<svg width="16" height="16" viewBox="0 0 16 16" fill="none" xmlns="http://www.w3.org/2000/svg">
<path d="M9.99942 2H8.99942C8.7342 2 8.47985 2.10536 8.29231 2.29289C8.10478 2.48043 7.99942 2.73478 7.99942 3C7.99942 3.26522 8.10478 3.51957 8.29231 3.70711C8.47985 3.89464 8.7342 4 8.99942 4H9.99942C10.5299 4 11.0386 4.21071 11.4136 4.58579C11.7887 4.96086 11.9994 5.46957 11.9994 6C11.9994 6.53043 11.7887 7.03914 11.4136 7.41421C11.0386 7.78929 10.5299 8 9.99942 8H6.99942V5.5C6.99932 5.40401 6.9716 5.31008 6.91956 5.22943C6.86752 5.14878 6.79336 5.0848 6.70595 5.04516C6.61853 5.00551 6.52155 4.99186 6.42659 5.00584C6.33163 5.01982 6.2427 5.06084 6.17042 5.124L2.17042 8.624C2.11688 8.67093 2.07398 8.72875 2.04459 8.79359C2.0152 8.85843 2 8.92881 2 9C2 9.07119 2.0152 9.14157 2.04459 9.20641C2.07398 9.27125 2.11688 9.32907 2.17042 9.376L6.17042 12.876C6.26146 12.9558 6.37836 12.9999 6.49942 13C6.63203 13 6.7592 12.9473 6.85297 12.8536C6.94674 12.7598 6.99942 12.6326 6.99942 12.5V10H9.99942C11.0603 10 12.0777 9.57857 12.8278 8.82843C13.578 8.07828 13.9994 7.06087 13.9994 6C13.9994 4.93913 13.578 3.92172 12.8278 3.17157C12.0777 2.42143 11.0603 2 9.99942 2V2Z" fill="#3276A3"/>
</svg>
