<svg width="16" height="16" viewBox="0 0 16 16" fill="none" xmlns="http://www.w3.org/2000/svg">
<path d="M4.12492 10.8603L5.12735 7.18471L10.6204 1.69231L13.2929 4.3648L7.80051 9.85787L4.12492 10.8603ZM4.06 11.0983L4.06003 11.0982L4.06 11.0983Z" fill="#53768F" stroke="#356587"/>
<path d="M6.04643 6.26604L6.61655 8.04508L6.69508 8.29012L6.94011 8.36864L8.71915 8.93876L7.8005 9.85784L4.12492 10.8603L5.12735 7.18469L6.04643 6.26604ZM3.88682 10.9252C3.88693 10.9252 3.88704 10.9252 3.88714 10.9251L3.88691 10.9252L3.88682 10.9252Z" fill="#D8AF69" stroke="#897759"/>
<path d="M3.83486 10.1861C4.0556 9.96532 4.41349 9.96532 4.63422 10.1861V10.1861C4.85496 10.4068 4.85496 10.7647 4.63422 10.9854L4.01933 11.6003C3.79859 11.821 3.44071 11.821 3.21997 11.6003V11.6003C2.99924 11.3796 2.99924 11.0217 3.21997 10.8009L3.83486 10.1861Z" fill="#5C5342"/>
<rect x="2" y="13" width="12" height="2" fill="#6E6E6E"/>
</svg>
