<svg width="16" height="16" viewBox="0 0 16 16" fill="none" xmlns="http://www.w3.org/2000/svg">
<path d="M5.562 9C4.93708 9.34611 4.41625 9.85327 4.05363 10.4688C3.69102 11.0843 3.49985 11.7856 3.5 12.5V13.5H12.5V12.5C12.5001 11.7856 12.309 11.0843 11.9464 10.4688C11.5838 9.85327 11.0629 9.34611 10.438 9" stroke="#3DB689" stroke-linecap="round" stroke-linejoin="round"/>
<path d="M10.5 5.125C10.5 3.67525 9.38071 2.5 8 2.5C6.61929 2.5 5.5 3.67525 5.5 5.125V5.875C5.5 7.32475 6.61929 8.5 8 8.5C9.38071 8.5 10.5 7.32475 10.5 5.875V5.125Z" stroke="#3DB689" stroke-linecap="round" stroke-linejoin="round"/>
<rect x="4" y="12" width="8" height="1" fill="#3DB689"/>
</svg>
