<svg width="17" height="20" viewBox="0 0 17 20" fill="none" xmlns="http://www.w3.org/2000/svg">
<path fill-opacity="0.8" fill-rule="evenodd" clip-rule="evenodd" d="M2.59927 10.033L9.31679 3.31544L13.0291 3.84577L13.5594 7.55809L6.84191 14.2756L2.59927 10.033ZM1.89217 10.7401C1.50164 10.3495 1.50164 9.71638 1.89217 9.32585L8.60968 2.60834C8.83225 2.38577 9.14661 2.28098 9.45821 2.3255L13.1705 2.85583C13.6105 2.91868 13.9562 3.26438 14.019 3.70435L14.5494 7.41666C14.5939 7.72826 14.4891 8.04263 14.2665 8.26519L7.54902 14.9827C7.1585 15.3732 6.52533 15.3732 6.13481 14.9827L1.89217 10.7401ZM11.7917 6.49743C12.1822 6.1069 12.1822 5.47374 11.7917 5.08321C11.4011 4.69269 10.768 4.69269 10.3774 5.08321C9.98692 5.47374 9.98692 6.1069 10.3774 6.49743C10.768 6.88795 11.4011 6.88795 11.7917 6.49743Z" fill="#333333"/>
<path fill-opacity="0.8" fill-rule="evenodd" clip-rule="evenodd" d="M1.35359 12.3692L6.30334 17.3189C6.4986 17.5142 6.81518 17.5142 7.01045 17.3189L13.5566 10.7727C13.6855 10.6439 13.7017 10.4406 13.5949 10.293L14.4052 9.70693C14.7998 10.2525 14.7398 11.0038 14.2637 11.4799L7.71755 18.026C7.13177 18.6118 6.18202 18.6118 5.59623 18.026L0.646484 13.0763L1.35359 12.3692Z" fill="#333333"/>
</svg>
