<svg width="16" height="16" viewBox="0 0 16 16" fill="none" xmlns="http://www.w3.org/2000/svg">
<path d="M8.00014 12C11.5304 12 13.8082 8.47733 13.9034 8.328C14.0317 8.12533 14.0324 7.87733 13.9042 7.67467C13.8097 7.52467 11.5484 4 8.00014 4C4.43386 4 2.18835 7.526 2.0946 7.676C1.96785 7.878 1.9686 8.124 2.0961 8.326C2.1906 8.47533 4.45186 12 8.00014 12ZM8.00014 5.33333C10.1294 5.33333 11.7772 7.22333 12.3637 8C11.7757 8.77733 10.1279 10.6667 8.00014 10.6667C5.86937 10.6667 4.22161 8.77467 3.63586 7.99933C4.21861 7.22333 5.85962 5.33333 8.00014 5.33333Z" fill="#727272"/>
<path d="M8 9.5C8.82843 9.5 9.5 8.82843 9.5 8C9.5 7.17157 8.82843 6.5 8 6.5C7.17157 6.5 6.5 7.17157 6.5 8C6.5 8.82843 7.17157 9.5 8 9.5Z" fill="#727272"/>
</svg>
