<svg width="16" height="16" viewBox="0 0 16 16" fill="none" xmlns="http://www.w3.org/2000/svg">
<path d="M6.00058 2H7.00058C7.2658 2 7.52015 2.10536 7.70769 2.29289C7.89522 2.48043 8.00058 2.73478 8.00058 3C8.00058 3.26522 7.89522 3.51957 7.70769 3.70711C7.52015 3.89464 7.2658 4 7.00058 4H6.00058C5.47015 4 4.96144 4.21071 4.58637 4.58579C4.2113 4.96086 4.00058 5.46957 4.00058 6C4.00058 6.53043 4.2113 7.03914 4.58637 7.41421C4.96144 7.78929 5.47015 8 6.00058 8H9.00058V5.5C9.00068 5.40401 9.0284 5.31008 9.08044 5.22943C9.13248 5.14878 9.20664 5.0848 9.29405 5.04516C9.38147 5.00551 9.47845 4.99186 9.57341 5.00584C9.66837 5.01982 9.7573 5.06084 9.82958 5.124L13.8296 8.624C13.8831 8.67093 13.926 8.72875 13.9554 8.79359C13.9848 8.85843 14 8.92881 14 9C14 9.07119 13.9848 9.14157 13.9554 9.20641C13.926 9.27125 13.8831 9.32907 13.8296 9.376L9.82958 12.876C9.73854 12.9558 9.62164 12.9999 9.50058 13C9.36797 13 9.2408 12.9473 9.14703 12.8536C9.05326 12.7598 9.00058 12.6326 9.00058 12.5V10H6.00058C4.93972 10 3.9223 9.57857 3.17215 8.82843C2.42201 8.07828 2.00058 7.06087 2.00058 6C2.00058 4.93913 2.42201 3.92172 3.17215 3.17157C3.9223 2.42143 4.93972 2 6.00058 2V2Z" fill="#3276A3"/>
</svg>
