<svg width="296" height="76" viewBox="0 0 296 76" fill="none" xmlns="http://www.w3.org/2000/svg">
<path d="M15.6426 56.2373L16.874 56.5483C16.6159 57.5597 16.1504 58.332 15.4775 58.8652C14.8089 59.3942 13.9901 59.6587 13.021 59.6587C12.0181 59.6587 11.2013 59.4556 10.5708 59.0493C9.9445 58.6388 9.46631 58.0464 9.13623 57.272C8.81038 56.4976 8.64746 55.666 8.64746 54.7773C8.64746 53.8083 8.83154 52.964 9.19971 52.2446C9.5721 51.521 10.099 50.973 10.7803 50.6006C11.4658 50.224 12.2191 50.0356 13.04 50.0356C13.971 50.0356 14.7539 50.2726 15.3887 50.7466C16.0234 51.2205 16.4657 51.887 16.7153 52.7461L15.5029 53.0317C15.2871 52.3547 14.974 51.8617 14.5635 51.5527C14.153 51.2438 13.6367 51.0894 13.0146 51.0894C12.2995 51.0894 11.7007 51.2607 11.2183 51.6035C10.7401 51.9463 10.4037 52.4076 10.209 52.9873C10.0143 53.5628 9.91699 54.1574 9.91699 54.771C9.91699 55.5623 10.0312 56.2542 10.2598 56.8467C10.4925 57.4349 10.8522 57.875 11.3389 58.167C11.8255 58.459 12.3524 58.605 12.9194 58.605C13.6092 58.605 14.1932 58.4061 14.6714 58.0083C15.1496 57.6105 15.4733 57.0202 15.6426 56.2373Z" fill="#009646"/>
<path d="M17.8262 56.1294C17.8262 54.881 18.1732 53.9564 18.8672 53.3555C19.4469 52.8561 20.1536 52.6064 20.9873 52.6064C21.9141 52.6064 22.6715 52.9111 23.2598 53.5205C23.848 54.1257 24.1421 54.9635 24.1421 56.0342C24.1421 56.9017 24.0109 57.5851 23.7485 58.0845C23.4904 58.5796 23.1117 58.9647 22.6123 59.2397C22.1172 59.5148 21.5755 59.6523 20.9873 59.6523C20.0436 59.6523 19.2798 59.3498 18.6958 58.7446C18.116 58.1395 17.8262 57.2677 17.8262 56.1294ZM19.0005 56.1294C19.0005 56.9927 19.1888 57.6401 19.5654 58.0718C19.9421 58.4992 20.416 58.7129 20.9873 58.7129C21.5544 58.7129 22.0262 58.4971 22.4028 58.0654C22.7795 57.6338 22.9678 56.9757 22.9678 56.0913C22.9678 55.2576 22.7773 54.6271 22.3965 54.1997C22.0199 53.7681 21.5501 53.5522 20.9873 53.5522C20.416 53.5522 19.9421 53.766 19.5654 54.1934C19.1888 54.6208 19.0005 55.2661 19.0005 56.1294Z" fill="#009646"/>
<path d="M26.8271 56.4531V55.5581C27.3096 55.5539 27.6375 55.5348 27.811 55.501C27.9888 55.4671 28.1559 55.3656 28.3125 55.1963C28.4691 55.027 28.5474 54.8154 28.5474 54.5615C28.5474 54.2526 28.4437 54.0072 28.2363 53.8252C28.0332 53.639 27.7687 53.5459 27.4429 53.5459C26.7996 53.5459 26.349 53.9246 26.0908 54.6821L25.0054 54.5044C25.3439 53.2391 26.1606 52.6064 27.4556 52.6064C28.175 52.6064 28.7378 52.8032 29.144 53.1968C29.5545 53.5903 29.7598 54.0601 29.7598 54.606C29.7598 55.1561 29.4932 55.5941 28.96 55.9199C29.2985 56.1019 29.5524 56.3346 29.7217 56.6182C29.891 56.8975 29.9756 57.2297 29.9756 57.6147C29.9756 58.2199 29.7555 58.7108 29.3154 59.0874C28.8753 59.464 28.2596 59.6523 27.4683 59.6523C25.9321 59.6523 25.0413 58.9689 24.7959 57.6021L25.8687 57.3735C25.966 57.8052 26.1628 58.1395 26.459 58.3765C26.7594 58.6134 27.1022 58.7319 27.4873 58.7319C27.8724 58.7319 28.1919 58.624 28.4458 58.4082C28.7039 58.1882 28.833 57.9089 28.833 57.5703C28.833 57.3079 28.7526 57.0794 28.5918 56.8848C28.431 56.6901 28.2596 56.5695 28.0776 56.5229C27.8957 56.4722 27.5656 56.4468 27.0874 56.4468C27.0493 56.4468 26.9626 56.4489 26.8271 56.4531Z" fill="#009646"/>
<path d="M31.9116 52.7588H36.6089V58.5605H37.3389V61.4106H36.3994V59.5H31.0928V61.4106H30.1533V58.5605H30.7563C31.5604 57.4688 31.9455 55.5348 31.9116 52.7588ZM32.8638 53.7046C32.7791 55.8924 32.4406 57.5111 31.8481 58.5605H35.4727V53.7046H32.8638Z" fill="#009646"/>
<path d="M43.001 58.6685C42.5778 59.0282 42.1694 59.2821 41.7759 59.4302C41.3866 59.5783 40.9676 59.6523 40.519 59.6523C39.7785 59.6523 39.2093 59.4725 38.8115 59.1128C38.4137 58.7489 38.2148 58.2855 38.2148 57.7227C38.2148 57.3926 38.2889 57.0921 38.437 56.8213C38.5894 56.5462 38.7861 56.3262 39.0273 56.1611C39.2728 55.9961 39.5479 55.8713 39.8525 55.7866C40.0768 55.7274 40.4154 55.6702 40.8682 55.6152C41.7907 55.5052 42.4699 55.374 42.9058 55.2217C42.91 55.0651 42.9121 54.9657 42.9121 54.9233C42.9121 54.4578 42.8042 54.1299 42.5884 53.9395C42.2964 53.6813 41.8626 53.5522 41.2871 53.5522C40.7497 53.5522 40.3519 53.6475 40.0938 53.8379C39.8398 54.0241 39.6515 54.3563 39.5288 54.8345L38.4116 54.6821C38.5132 54.2039 38.6803 53.8188 38.9131 53.5269C39.1458 53.2306 39.4823 53.0042 39.9224 52.8477C40.3625 52.6868 40.8724 52.6064 41.4521 52.6064C42.0277 52.6064 42.4953 52.6742 42.855 52.8096C43.2147 52.945 43.4792 53.1164 43.6484 53.3237C43.8177 53.5269 43.9362 53.785 44.0039 54.0981C44.042 54.2928 44.061 54.644 44.061 55.1519V56.6753C44.061 57.7375 44.0843 58.4103 44.1309 58.6938C44.1816 58.9731 44.279 59.2419 44.4229 59.5H43.2295C43.111 59.263 43.0348 58.9858 43.001 58.6685ZM42.9058 56.1167C42.491 56.286 41.869 56.4299 41.0396 56.5483C40.5698 56.616 40.2376 56.6922 40.043 56.7769C39.8483 56.8615 39.6981 56.9863 39.5923 57.1514C39.4865 57.3122 39.4336 57.492 39.4336 57.6909C39.4336 57.9956 39.5479 58.2495 39.7764 58.4526C40.0091 58.6558 40.3477 58.7573 40.792 58.7573C41.2321 58.7573 41.6235 58.6621 41.9663 58.4717C42.3091 58.277 42.5609 58.0125 42.7217 57.6782C42.8444 57.4201 42.9058 57.0392 42.9058 56.5356V56.1167Z" fill="#009646"/>
<path d="M45.8447 52.7588H46.9873V55.5645H50.1548V52.7588H51.2974V59.5H50.1548V56.5103H46.9873V59.5H45.8447V52.7588Z" fill="#009646"/>
<path d="M53.0239 52.7588H54.1665V57.9004L57.334 52.7588H58.5654V59.5H57.4229V54.3901L54.2554 59.5H53.0239V52.7588Z" fill="#009646"/>
<path d="M64.9004 57.3291L66.0811 57.4751C65.8949 58.1649 65.55 58.7002 65.0464 59.0811C64.5428 59.4619 63.8996 59.6523 63.1167 59.6523C62.1307 59.6523 61.3478 59.3498 60.7681 58.7446C60.1925 58.1353 59.9048 57.2826 59.9048 56.1865C59.9048 55.0524 60.1968 54.1722 60.7808 53.5459C61.3647 52.9196 62.1222 52.6064 63.0532 52.6064C63.9546 52.6064 64.6909 52.9132 65.2622 53.5269C65.8335 54.1405 66.1191 55.0037 66.1191 56.1167C66.1191 56.1844 66.117 56.286 66.1128 56.4214H61.0854C61.1278 57.1619 61.3372 57.729 61.7139 58.1226C62.0905 58.5161 62.5602 58.7129 63.123 58.7129C63.542 58.7129 63.8996 58.6029 64.1958 58.3828C64.492 58.1628 64.7269 57.8115 64.9004 57.3291ZM61.1489 55.4819H64.9131C64.8623 54.9149 64.7184 54.4896 64.4814 54.2061C64.1175 53.766 63.6457 53.5459 63.0659 53.5459C62.5412 53.5459 62.099 53.7215 61.7393 54.0728C61.3838 54.424 61.187 54.8937 61.1489 55.4819Z" fill="#009646"/>
<path d="M112 50.1943H119.318V59.5H118.081V51.2925H113.231V59.5H112V50.1943Z" fill="#424242" fill-opacity="0.5"/>
<path d="M120.759 56.1294C120.759 54.881 121.106 53.9564 121.8 53.3555C122.38 52.8561 123.087 52.6064 123.921 52.6064C124.847 52.6064 125.605 52.9111 126.193 53.5205C126.781 54.1257 127.075 54.9635 127.075 56.0342C127.075 56.9017 126.944 57.5851 126.682 58.0845C126.424 58.5796 126.045 58.9647 125.546 59.2397C125.05 59.5148 124.509 59.6523 123.921 59.6523C122.977 59.6523 122.213 59.3498 121.629 58.7446C121.049 58.1395 120.759 57.2677 120.759 56.1294ZM121.934 56.1294C121.934 56.9927 122.122 57.6401 122.499 58.0718C122.875 58.4992 123.349 58.7129 123.921 58.7129C124.488 58.7129 124.959 58.4971 125.336 58.0654C125.713 57.6338 125.901 56.9757 125.901 56.0913C125.901 55.2576 125.711 54.6271 125.33 54.1997C124.953 53.7681 124.483 53.5522 123.921 53.5522C123.349 53.5522 122.875 53.766 122.499 54.1934C122.122 54.6208 121.934 55.2661 121.934 56.1294Z" fill="#424242" fill-opacity="0.5"/>
<path d="M129.03 52.7588H133.728V58.5605H134.458V61.4106H133.518V59.5H128.212V61.4106H127.272V58.5605H127.875C128.679 57.4688 129.064 55.5348 129.03 52.7588ZM129.983 53.7046C129.898 55.8924 129.559 57.5111 128.967 58.5605H132.591V53.7046H129.983Z" fill="#424242" fill-opacity="0.5"/>
<path d="M135.727 52.7588H141.046V59.5H139.904V53.7046H136.87V59.5H135.727V52.7588Z" fill="#424242" fill-opacity="0.5"/>
<path d="M142.767 52.7588H143.909V57.9004L147.077 52.7588H148.308V59.5H147.166V54.3901L143.998 59.5H142.767V52.7588Z" fill="#424242" fill-opacity="0.5"/>
<path d="M154.427 57.0308L155.551 57.1768C155.428 57.9512 155.113 58.5584 154.605 58.9985C154.102 59.4344 153.482 59.6523 152.745 59.6523C151.823 59.6523 151.08 59.3519 150.517 58.751C149.959 58.1458 149.679 57.2804 149.679 56.1548C149.679 55.4269 149.8 54.79 150.041 54.2441C150.282 53.6982 150.648 53.2899 151.139 53.019C151.634 52.744 152.172 52.6064 152.752 52.6064C153.484 52.6064 154.082 52.7926 154.548 53.165C155.013 53.5332 155.312 54.0579 155.443 54.7393L154.332 54.9106C154.226 54.4578 154.038 54.1172 153.767 53.8887C153.501 53.6602 153.177 53.5459 152.796 53.5459C152.22 53.5459 151.753 53.7533 151.393 54.168C151.033 54.5785 150.854 55.2301 150.854 56.123C150.854 57.0286 151.027 57.6867 151.374 58.0972C151.721 58.5076 152.174 58.7129 152.733 58.7129C153.181 58.7129 153.556 58.5754 153.856 58.3003C154.157 58.0252 154.347 57.6021 154.427 57.0308Z" fill="#424242" fill-opacity="0.5"/>
<path d="M160.927 58.6685C160.504 59.0282 160.096 59.2821 159.702 59.4302C159.313 59.5783 158.894 59.6523 158.445 59.6523C157.705 59.6523 157.136 59.4725 156.738 59.1128C156.34 58.7489 156.141 58.2855 156.141 57.7227C156.141 57.3926 156.215 57.0921 156.363 56.8213C156.516 56.5462 156.713 56.3262 156.954 56.1611C157.199 55.9961 157.474 55.8713 157.779 55.7866C158.003 55.7274 158.342 55.6702 158.795 55.6152C159.717 55.5052 160.396 55.374 160.832 55.2217C160.836 55.0651 160.838 54.9657 160.838 54.9233C160.838 54.4578 160.731 54.1299 160.515 53.9395C160.223 53.6813 159.789 53.5522 159.213 53.5522C158.676 53.5522 158.278 53.6475 158.02 53.8379C157.766 54.0241 157.578 54.3563 157.455 54.8345L156.338 54.6821C156.44 54.2039 156.607 53.8188 156.839 53.5269C157.072 53.2306 157.409 53.0042 157.849 52.8477C158.289 52.6868 158.799 52.6064 159.379 52.6064C159.954 52.6064 160.422 52.6742 160.781 52.8096C161.141 52.945 161.406 53.1164 161.575 53.3237C161.744 53.5269 161.863 53.785 161.93 54.0981C161.968 54.2928 161.987 54.644 161.987 55.1519V56.6753C161.987 57.7375 162.011 58.4103 162.057 58.6938C162.108 58.9731 162.205 59.2419 162.349 59.5H161.156C161.037 59.263 160.961 58.9858 160.927 58.6685ZM160.832 56.1167C160.417 56.286 159.795 56.4299 158.966 56.5483C158.496 56.616 158.164 56.6922 157.969 56.7769C157.775 56.8615 157.624 56.9863 157.519 57.1514C157.413 57.3122 157.36 57.492 157.36 57.6909C157.36 57.9956 157.474 58.2495 157.703 58.4526C157.935 58.6558 158.274 58.7573 158.718 58.7573C159.158 58.7573 159.55 58.6621 159.893 58.4717C160.235 58.277 160.487 58.0125 160.648 57.6782C160.771 57.4201 160.832 57.0392 160.832 56.5356V56.1167Z" fill="#424242" fill-opacity="0.5"/>
<path d="M163.771 52.7588H164.914V55.5645H168.081V52.7588H169.224V59.5H168.081V56.5103H164.914V59.5H163.771V52.7588Z" fill="#424242" fill-opacity="0.5"/>
<path d="M170.95 52.7588H172.093V57.9004L175.26 52.7588H176.492V59.5H175.349V54.3901L172.182 59.5H170.95V52.7588Z" fill="#424242" fill-opacity="0.5"/>
<path d="M182.827 57.3291L184.007 57.4751C183.821 58.1649 183.476 58.7002 182.973 59.0811C182.469 59.4619 181.826 59.6523 181.043 59.6523C180.057 59.6523 179.274 59.3498 178.694 58.7446C178.119 58.1353 177.831 57.2826 177.831 56.1865C177.831 55.0524 178.123 54.1722 178.707 53.5459C179.291 52.9196 180.049 52.6064 180.98 52.6064C181.881 52.6064 182.617 52.9132 183.189 53.5269C183.76 54.1405 184.046 55.0037 184.046 56.1167C184.046 56.1844 184.043 56.286 184.039 56.4214H179.012C179.054 57.1619 179.264 57.729 179.64 58.1226C180.017 58.5161 180.487 58.7129 181.049 58.7129C181.468 58.7129 181.826 58.6029 182.122 58.3828C182.418 58.1628 182.653 57.8115 182.827 57.3291ZM179.075 55.4819H182.839C182.789 54.9149 182.645 54.4896 182.408 54.2061C182.044 53.766 181.572 53.5459 180.992 53.5459C180.468 53.5459 180.025 53.7215 179.666 54.0728C179.31 54.424 179.113 54.8937 179.075 55.4819Z" fill="#424242" fill-opacity="0.5"/>
<path d="M37 14C28.163 14 21 21.163 21 30C21 38.837 28.163 46 37 46C45.837 46 53 38.837 53 30C52.974 21.174 45.826 14.026 37 14Z" fill="#14AA5A"/>
<path fill-rule="evenodd" clip-rule="evenodd" d="M37 43C44.1797 43 50 37.1797 50 30C50 22.8203 44.1797 17 37 17C29.8203 17 24 22.8203 24 30C24 37.1797 29.8203 43 37 43ZM37 44C44.732 44 51 37.732 51 30C51 22.268 44.732 16 37 16C29.268 16 23 22.268 23 30C23 37.732 29.268 44 37 44Z" fill="#FFFAD9"/>
<path d="M37.6426 37.1758C37.1445 37.1758 36.793 36.8047 36.793 36.2676V24.832H36.7539L34.1172 26.6777C33.9219 26.8145 33.7363 26.8828 33.5215 26.8828C33.1113 26.8828 32.8281 26.5898 32.8281 26.1602C32.8281 25.8477 32.9453 25.6426 33.3164 25.3789L36.334 23.2207C36.8809 22.8301 37.1152 22.7324 37.5156 22.7324C38.1211 22.7324 38.4922 23.1035 38.4922 23.7188V36.2676C38.4922 36.8047 38.1406 37.1758 37.6426 37.1758Z" fill="#FFFAD9"/>
<path opacity="0.7" d="M162 30C162 37.732 155.732 44 148 44C140.268 44 134 37.732 134 30C134 22.268 140.268 16 148 16C155.732 16 162 22.268 162 30Z" fill="#424242" fill-opacity="0.5"/>
<path d="M144.279 37C143.762 37 143.43 36.7168 143.43 36.2773C143.43 35.916 143.508 35.7598 143.928 35.3203L148.439 30.6133C150.334 28.6309 150.783 27.8789 150.783 26.6973C150.783 25.2617 149.68 24.207 148.166 24.207C146.643 24.207 145.578 24.998 145.1 26.5117C144.982 26.873 144.787 27.127 144.309 27.127C143.791 27.127 143.498 26.8047 143.498 26.3457C143.498 26.2188 143.508 26.1113 143.527 25.9941C143.732 24.5488 145.285 22.6738 148.166 22.6738C150.705 22.6738 152.541 24.3145 152.541 26.5898C152.541 28.1328 151.838 29.2949 149.426 31.7656L145.891 35.3984V35.4375H152.043C152.541 35.4375 152.873 35.75 152.873 36.2188C152.873 36.6875 152.541 37 152.043 37H144.279Z" fill="#FFFAD9"/>
<path opacity="0.7" d="M53 29H132V31H53V29Z" fill="#424242" fill-opacity="0.5"/>
</svg>
