<svg width="69" height="76" viewBox="0 0 69 76" fill="none" xmlns="http://www.w3.org/2000/svg">
<path d="M39 14C30.163 14 23 21.163 23 30C23 38.837 30.163 46 39 46C47.837 46 55 38.837 55 30C54.974 21.174 47.826 14.026 39 14ZM45.707 35.293C46.098 35.684 46.098 36.316 45.707 36.707C45.512 36.902 45.256 37 45 37C44.744 37 44.488 36.902 44.293 36.707L39 31.414L33.707 36.707C33.512 36.902 33.256 37 33 37C32.744 37 32.488 36.902 32.293 36.707C31.902 36.316 31.902 35.684 32.293 35.293L37.586 30L32.293 24.707C31.902 24.316 31.902 23.684 32.293 23.293C32.684 22.902 33.316 22.902 33.707 23.293L39 28.586L44.293 23.293C44.684 22.902 45.316 22.902 45.707 23.293C46.098 23.684 46.098 24.316 45.707 24.707L40.414 30L45.707 35.293Z" fill="#F16E67"/>
<path fill-rule="evenodd" clip-rule="evenodd" d="M39 43C46.1797 43 52 37.1797 52 30C52 22.8203 46.1797 17 39 17C31.8203 17 26 22.8203 26 30C26 37.1797 31.8203 43 39 43ZM39 44C46.732 44 53 37.732 53 30C53 22.268 46.732 16 39 16C31.268 16 25 22.268 25 30C25 37.732 31.268 44 39 44Z" fill="#FFFAD9"/>
<path d="M8.62842 54.9678C8.62842 53.4232 9.04313 52.215 9.87256 51.3433C10.702 50.4673 11.7726 50.0293 13.0845 50.0293C13.9435 50.0293 14.7179 50.2345 15.4077 50.645C16.0975 51.0555 16.6222 51.6289 16.9819 52.3652C17.3459 53.0973 17.5278 53.9289 17.5278 54.8599C17.5278 55.8035 17.3374 56.6478 16.9565 57.3926C16.5757 58.1374 16.0361 58.7023 15.3379 59.0874C14.6397 59.4683 13.8864 59.6587 13.0781 59.6587C12.2022 59.6587 11.4193 59.4471 10.7295 59.0239C10.0397 58.6007 9.51709 58.0231 9.16162 57.291C8.80615 56.5589 8.62842 55.7845 8.62842 54.9678ZM9.89795 54.9868C9.89795 56.1082 10.1984 56.9927 10.7993 57.6401C11.4045 58.2834 12.162 58.605 13.0718 58.605C13.9985 58.605 14.7602 58.2791 15.3569 57.6274C15.9578 56.9757 16.2583 56.0511 16.2583 54.8535C16.2583 54.096 16.1292 53.4359 15.8711 52.873C15.6172 52.306 15.2427 51.868 14.7476 51.5591C14.2567 51.2459 13.7044 51.0894 13.0908 51.0894C12.2191 51.0894 11.4679 51.3898 10.8374 51.9907C10.2111 52.5874 9.89795 53.5861 9.89795 54.9868Z" fill="#CC0E0E"/>
<path d="M18.3594 52.7588H23.8374V53.7046H21.6665V59.5H20.5303V53.7046H18.3594V52.7588Z" fill="#CC0E0E"/>
<path d="M24.9609 52.7588H26.7383L28.5093 58.1543L30.4771 52.7588H32.1211V59.5H30.9785V54.0728L28.9854 59.5H27.9634L26.0781 53.8125V59.5H24.9609V52.7588Z" fill="#CC0E0E"/>
<path d="M38.4814 57.3291L39.6621 57.4751C39.4759 58.1649 39.131 58.7002 38.6274 59.0811C38.1239 59.4619 37.4806 59.6523 36.6978 59.6523C35.7118 59.6523 34.9289 59.3498 34.3491 58.7446C33.7736 58.1353 33.4858 57.2826 33.4858 56.1865C33.4858 55.0524 33.7778 54.1722 34.3618 53.5459C34.9458 52.9196 35.7033 52.6064 36.6343 52.6064C37.5356 52.6064 38.272 52.9132 38.8433 53.5269C39.4146 54.1405 39.7002 55.0037 39.7002 56.1167C39.7002 56.1844 39.6981 56.286 39.6938 56.4214H34.6665C34.7088 57.1619 34.9183 57.729 35.2949 58.1226C35.6715 58.5161 36.1413 58.7129 36.7041 58.7129C37.123 58.7129 37.4806 58.6029 37.7769 58.3828C38.0731 58.1628 38.3079 57.8115 38.4814 57.3291ZM34.73 55.4819H38.4941C38.4434 54.9149 38.2995 54.4896 38.0625 54.2061C37.6986 53.766 37.2267 53.5459 36.647 53.5459C36.1222 53.5459 35.68 53.7215 35.3203 54.0728C34.9648 54.424 34.7681 54.8937 34.73 55.4819Z" fill="#CC0E0E"/>
<path d="M41.1094 52.7588H42.252V55.5645H45.4194V52.7588H46.562V59.5H45.4194V56.5103H42.252V59.5H41.1094V52.7588Z" fill="#CC0E0E"/>
<path d="M52.9033 57.3291L54.084 57.4751C53.8978 58.1649 53.5529 58.7002 53.0493 59.0811C52.5457 59.4619 51.9025 59.6523 51.1196 59.6523C50.1336 59.6523 49.3507 59.3498 48.771 58.7446C48.1955 58.1353 47.9077 57.2826 47.9077 56.1865C47.9077 55.0524 48.1997 54.1722 48.7837 53.5459C49.3677 52.9196 50.1252 52.6064 51.0562 52.6064C51.9575 52.6064 52.6938 52.9132 53.2651 53.5269C53.8364 54.1405 54.1221 55.0037 54.1221 56.1167C54.1221 56.1844 54.12 56.286 54.1157 56.4214H49.0884C49.1307 57.1619 49.3402 57.729 49.7168 58.1226C50.0934 58.5161 50.5632 58.7129 51.126 58.7129C51.5449 58.7129 51.9025 58.6029 52.1987 58.3828C52.495 58.1628 52.7298 57.8115 52.9033 57.3291ZM49.1519 55.4819H52.916C52.8652 54.9149 52.7214 54.4896 52.4844 54.2061C52.1204 53.766 51.6486 53.5459 51.0688 53.5459C50.5441 53.5459 50.1019 53.7215 49.7422 54.0728C49.3867 54.424 49.1899 54.8937 49.1519 55.4819Z" fill="#CC0E0E"/>
<path d="M55.5312 52.7588H56.6738V55.5645H59.8413V52.7588H60.9839V59.5H59.8413V56.5103H56.6738V59.5H55.5312V52.7588Z" fill="#CC0E0E"/>
<path d="M67.1094 58.6685C66.6862 59.0282 66.2778 59.2821 65.8843 59.4302C65.495 59.5783 65.076 59.6523 64.6274 59.6523C63.8869 59.6523 63.3177 59.4725 62.9199 59.1128C62.5221 58.7489 62.3232 58.2855 62.3232 57.7227C62.3232 57.3926 62.3973 57.0921 62.5454 56.8213C62.6978 56.5462 62.8945 56.3262 63.1357 56.1611C63.3812 55.9961 63.6562 55.8713 63.9609 55.7866C64.1852 55.7274 64.5238 55.6702 64.9766 55.6152C65.8991 55.5052 66.5783 55.374 67.0142 55.2217C67.0184 55.0651 67.0205 54.9657 67.0205 54.9233C67.0205 54.4578 66.9126 54.1299 66.6968 53.9395C66.4048 53.6813 65.971 53.5522 65.3955 53.5522C64.8581 53.5522 64.4603 53.6475 64.2021 53.8379C63.9482 54.0241 63.7599 54.3563 63.6372 54.8345L62.52 54.6821C62.6216 54.2039 62.7887 53.8188 63.0215 53.5269C63.2542 53.2306 63.5907 53.0042 64.0308 52.8477C64.4709 52.6868 64.9808 52.6064 65.5605 52.6064C66.1361 52.6064 66.6037 52.6742 66.9634 52.8096C67.3231 52.945 67.5876 53.1164 67.7568 53.3237C67.9261 53.5269 68.0446 53.785 68.1123 54.0981C68.1504 54.2928 68.1694 54.644 68.1694 55.1519V56.6753C68.1694 57.7375 68.1927 58.4103 68.2393 58.6938C68.29 58.9731 68.3874 59.2419 68.5312 59.5H67.3379C67.2194 59.263 67.1432 58.9858 67.1094 58.6685ZM67.0142 56.1167C66.5994 56.286 65.9774 56.4299 65.1479 56.5483C64.6782 56.616 64.346 56.6922 64.1514 56.7769C63.9567 56.8615 63.8065 56.9863 63.7007 57.1514C63.5949 57.3122 63.542 57.492 63.542 57.6909C63.542 57.9956 63.6562 58.2495 63.8848 58.4526C64.1175 58.6558 64.4561 58.7573 64.9004 58.7573C65.3405 58.7573 65.7319 58.6621 66.0747 58.4717C66.4175 58.277 66.6693 58.0125 66.8301 57.6782C66.9528 57.4201 67.0142 57.0392 67.0142 56.5356V56.1167Z" fill="#CC0E0E"/>
</svg>
