<svg width="296" height="76" viewBox="0 0 296 76" fill="none" xmlns="http://www.w3.org/2000/svg">
<path d="M233 55.4785C233 53.9339 233.415 52.7257 234.245 51.854C235.074 50.978 236.145 50.54 237.456 50.54C238.316 50.54 239.09 50.7452 239.78 51.1557C240.469 51.5662 240.994 52.1396 241.354 52.8759C241.718 53.608 241.9 54.4396 241.9 55.3706C241.9 56.3142 241.709 57.1585 241.329 57.9033C240.948 58.6481 240.408 59.213 239.71 59.5981C239.012 59.979 238.258 60.1694 237.45 60.1694C236.574 60.1694 235.791 59.9578 235.101 59.5346C234.412 59.1114 233.889 58.5338 233.534 57.8017C233.178 57.0696 233 56.2952 233 55.4785ZM234.27 55.4975C234.27 56.6189 234.57 57.5034 235.171 58.1508C235.776 58.7941 236.534 59.1157 237.444 59.1157C238.371 59.1157 239.132 58.7898 239.729 58.1381C240.33 57.4864 240.63 56.5618 240.63 55.3642C240.63 54.6067 240.501 53.9466 240.243 53.3837C239.989 52.8167 239.615 52.3787 239.12 52.0698C238.629 51.7566 238.076 51.6001 237.463 51.6001C236.591 51.6001 235.84 51.9005 235.209 52.5014C234.583 53.0981 234.27 54.0968 234.27 55.4975Z" fill="#766712"/>
<path d="M247.422 53.2695V56.1831C247.786 56.1831 248.042 56.1132 248.19 55.9736C248.338 55.8339 248.554 55.4277 248.838 54.7548C249.104 54.1158 249.344 53.7075 249.555 53.5297C249.762 53.3562 250.093 53.2695 250.545 53.2695H250.964V54.2153L250.653 54.2089C250.349 54.2089 250.154 54.2534 250.069 54.3422C249.98 54.4353 249.845 54.7125 249.663 55.1738C249.494 55.6139 249.337 55.9186 249.193 56.0878C249.049 56.2571 248.825 56.4116 248.52 56.5512C249.016 56.6824 249.498 57.1394 249.968 57.9223L251.225 60.0107H249.968L248.743 57.9223C248.493 57.4991 248.275 57.222 248.089 57.0908C247.903 56.9596 247.68 56.894 247.422 56.894V60.0107H246.254V56.894C246 56.894 245.78 56.9596 245.594 57.0908C245.408 57.2177 245.19 57.4949 244.94 57.9223L243.715 60.0107H242.458L243.709 57.9223C244.183 57.1394 244.667 56.6824 245.163 56.5512C244.824 56.3947 244.587 56.2254 244.452 56.0434C244.316 55.8572 244.113 55.4171 243.842 54.7231C243.749 54.4904 243.65 54.3465 243.544 54.2915C243.434 54.2364 243.271 54.2089 243.055 54.2089C243 54.2089 242.888 54.2111 242.719 54.2153V53.2695H242.877C243.317 53.2695 243.626 53.297 243.804 53.352C243.986 53.4028 244.147 53.5149 244.287 53.6884C244.43 53.8577 244.617 54.2132 244.845 54.7548C245.124 55.4192 245.336 55.8234 245.48 55.9672C245.628 56.1111 245.886 56.1831 246.254 56.1831V53.2695H247.422Z" fill="#766712"/>
<path d="M252.043 53.2695H253.186V58.4111L256.353 53.2695H257.585V60.0107H256.442V54.9008L253.275 60.0107H252.043V53.2695Z" fill="#766712"/>
<path d="M260.206 53.2695H264.904V59.0712H265.634V61.9213H264.694V60.0107H259.388V61.9213H258.448V59.0712H259.051C259.855 57.9795 260.24 56.0455 260.206 53.2695ZM261.159 54.2153C261.074 56.4031 260.735 58.0218 260.143 59.0712H263.768V54.2153H261.159Z" fill="#766712"/>
<path d="M271.296 59.1793C270.873 59.539 270.464 59.7929 270.071 59.941C269.681 60.0891 269.262 60.1631 268.814 60.1631C268.073 60.1631 267.504 59.9833 267.106 59.6236C266.709 59.2597 266.51 58.7963 266.51 58.2335C266.51 57.9034 266.584 57.6029 266.732 57.3321C266.884 57.057 267.081 56.837 267.322 56.6719C267.568 56.5069 267.843 56.3821 268.147 56.2974C268.372 56.2382 268.71 56.181 269.163 56.126C270.086 56.016 270.765 55.8848 271.201 55.7325C271.205 55.5759 271.207 55.4765 271.207 55.4341C271.207 54.9686 271.099 54.6407 270.883 54.4503C270.591 54.1921 270.157 54.063 269.582 54.063C269.045 54.063 268.647 54.1583 268.389 54.3487C268.135 54.5349 267.946 54.8671 267.824 55.3453L266.706 55.1929C266.808 54.7147 266.975 54.3296 267.208 54.0377C267.441 53.7414 267.777 53.515 268.217 53.3585C268.657 53.1976 269.167 53.1172 269.747 53.1172C270.323 53.1172 270.79 53.185 271.15 53.3204C271.51 53.4558 271.774 53.6272 271.943 53.8345C272.113 54.0377 272.231 54.2958 272.299 54.6089C272.337 54.8036 272.356 55.1548 272.356 55.6627V57.1861C272.356 58.2483 272.379 58.9211 272.426 59.2046C272.476 59.4839 272.574 59.7527 272.718 60.0108H271.524C271.406 59.7738 271.33 59.4966 271.296 59.1793ZM271.201 56.6275C270.786 56.7968 270.164 56.9407 269.334 57.0591C268.865 57.1268 268.532 57.203 268.338 57.2877C268.143 57.3723 267.993 57.4971 267.887 57.6622C267.781 57.823 267.728 58.0028 267.728 58.2017C267.728 58.5064 267.843 58.7603 268.071 58.9634C268.304 59.1666 268.643 59.2681 269.087 59.2681C269.527 59.2681 269.918 59.1729 270.261 58.9825C270.604 58.7878 270.856 58.5233 271.017 58.189C271.139 57.9309 271.201 57.55 271.201 57.0464V56.6275Z" fill="#766712"/>
<path d="M278.748 57.8399L279.929 57.9859C279.742 58.6757 279.398 59.211 278.894 59.5919C278.39 59.9727 277.747 60.1631 276.964 60.1631C275.978 60.1631 275.195 59.8606 274.616 59.2554C274.04 58.6461 273.752 57.7934 273.752 56.6973C273.752 55.5632 274.044 54.683 274.628 54.0567C275.212 53.4304 275.97 53.1172 276.901 53.1172C277.802 53.1172 278.539 53.424 279.11 54.0377C279.681 54.6513 279.967 55.5145 279.967 56.6275C279.967 56.6952 279.965 56.7968 279.96 56.9322H274.933C274.975 57.6727 275.185 58.2398 275.561 58.6334C275.938 59.0269 276.408 59.2237 276.971 59.2237C277.39 59.2237 277.747 59.1137 278.043 58.8936C278.34 58.6736 278.574 58.3223 278.748 57.8399ZM274.997 55.9927H278.761C278.71 55.4257 278.566 55.0004 278.329 54.7169C277.965 54.2768 277.493 54.0567 276.914 54.0567C276.389 54.0567 275.947 54.2323 275.587 54.5836C275.231 54.9348 275.035 55.4045 274.997 55.9927Z" fill="#766712"/>
<path d="M280.322 53.2695H285.8V54.2153H283.629V60.0107H282.493V54.2153H280.322V53.2695Z" fill="#766712"/>
<path d="M222 75.4878V66.1631H223.041V67.0391C223.287 66.6963 223.564 66.4403 223.873 66.271C224.182 66.0975 224.556 66.0107 224.996 66.0107C225.572 66.0107 226.08 66.1589 226.52 66.4551C226.96 66.7513 227.292 67.1703 227.516 67.7119C227.741 68.2494 227.853 68.8397 227.853 69.4829C227.853 70.1727 227.728 70.7948 227.478 71.3491C227.233 71.8993 226.873 72.3224 226.399 72.6187C225.929 72.9106 225.434 73.0566 224.914 73.0566C224.533 73.0566 224.19 72.9762 223.885 72.8154C223.585 72.6546 223.337 72.4515 223.143 72.2061V75.4878H222ZM223.035 69.5718C223.035 70.4393 223.21 71.0804 223.562 71.4951C223.913 71.9098 224.338 72.1172 224.838 72.1172C225.345 72.1172 225.779 71.9035 226.139 71.4761C226.503 71.0444 226.685 70.3779 226.685 69.4766C226.685 68.6175 226.507 67.9743 226.152 67.5469C225.8 67.1195 225.379 66.9058 224.888 66.9058C224.402 66.9058 223.97 67.1343 223.593 67.5913C223.221 68.0441 223.035 68.7043 223.035 69.5718Z" fill="#766712"/>
<path d="M233.851 70.7334L235.032 70.8794C234.846 71.5692 234.501 72.1045 233.997 72.4854C233.494 72.8662 232.85 73.0566 232.068 73.0566C231.082 73.0566 230.299 72.7541 229.719 72.1489C229.143 71.5396 228.856 70.6869 228.856 69.5908C228.856 68.4567 229.148 67.5765 229.732 66.9502C230.316 66.3239 231.073 66.0107 232.004 66.0107C232.905 66.0107 233.642 66.3175 234.213 66.9312C234.784 67.5448 235.07 68.408 235.07 69.521C235.07 69.5887 235.068 69.6903 235.064 69.8257H230.036C230.079 70.5662 230.288 71.1333 230.665 71.5269C231.041 71.9204 231.511 72.1172 232.074 72.1172C232.493 72.1172 232.85 72.0072 233.147 71.7871C233.443 71.5671 233.678 71.2158 233.851 70.7334ZM230.1 68.8862H233.864C233.813 68.3192 233.669 67.8939 233.432 67.6104C233.068 67.1703 232.597 66.9502 232.017 66.9502C231.492 66.9502 231.05 67.1258 230.69 67.4771C230.335 67.8283 230.138 68.298 230.1 68.8862Z" fill="#766712"/>
<path d="M236.479 66.1631H240.358V67.1089H237.622V72.9043H236.479V66.1631Z" fill="#766712"/>
<path d="M241.221 66.1631H242.363V71.3047L245.531 66.1631H246.762V72.9043H245.62V67.7944L242.452 72.9043H241.221V66.1631Z" fill="#766712"/>
<path d="M252.882 70.4351L254.005 70.5811C253.882 71.3555 253.567 71.9627 253.059 72.4028C252.556 72.8387 251.936 73.0566 251.199 73.0566C250.277 73.0566 249.534 72.7562 248.971 72.1553C248.413 71.5501 248.133 70.6847 248.133 69.5591C248.133 68.8312 248.254 68.1943 248.495 67.6484C248.737 67.1025 249.103 66.6942 249.593 66.4233C250.089 66.1483 250.626 66.0107 251.206 66.0107C251.938 66.0107 252.537 66.1969 253.002 66.5693C253.468 66.9375 253.766 67.4622 253.897 68.1436L252.786 68.3149C252.681 67.8621 252.492 67.5215 252.221 67.293C251.955 67.0645 251.631 66.9502 251.25 66.9502C250.675 66.9502 250.207 67.1576 249.847 67.5723C249.488 67.9828 249.308 68.6344 249.308 69.5273C249.308 70.4329 249.481 71.091 249.828 71.5015C250.175 71.9119 250.628 72.1172 251.187 72.1172C251.635 72.1172 252.01 71.9797 252.31 71.7046C252.611 71.4295 252.801 71.0064 252.882 70.4351Z" fill="#766712"/>
<path d="M254.367 66.1631H259.845V67.1089H257.674V72.9043H256.538V67.1089H254.367V66.1631Z" fill="#766712"/>
<path d="M260.937 75.4878V66.1631H261.978V67.0391C262.223 66.6963 262.5 66.4403 262.809 66.271C263.118 66.0975 263.493 66.0107 263.933 66.0107C264.508 66.0107 265.016 66.1589 265.456 66.4551C265.896 66.7513 266.229 67.1703 266.453 67.7119C266.677 68.2494 266.789 68.8397 266.789 69.4829C266.789 70.1727 266.664 70.7948 266.415 71.3491C266.169 71.8993 265.81 72.3224 265.336 72.6187C264.866 72.9106 264.371 73.0566 263.85 73.0566C263.469 73.0566 263.127 72.9762 262.822 72.8154C262.522 72.6546 262.274 72.4515 262.079 72.2061V75.4878H260.937ZM261.971 69.5718C261.971 70.4393 262.147 71.0804 262.498 71.4951C262.849 71.9098 263.275 72.1172 263.774 72.1172C264.282 72.1172 264.716 71.9035 265.075 71.4761C265.439 71.0444 265.621 70.3779 265.621 69.4766C265.621 68.6175 265.444 67.9743 265.088 67.5469C264.737 67.1195 264.316 66.9058 263.825 66.9058C263.338 66.9058 262.907 67.1343 262.53 67.5913C262.158 68.0441 261.971 68.7043 261.971 69.5718Z" fill="#766712"/>
<path d="M272.572 72.0728C272.149 72.4325 271.74 72.6864 271.347 72.8345C270.958 72.9826 270.539 73.0566 270.09 73.0566C269.349 73.0566 268.78 72.8768 268.383 72.5171C267.985 72.1532 267.786 71.6898 267.786 71.127C267.786 70.7969 267.86 70.4964 268.008 70.2256C268.16 69.9505 268.357 69.7305 268.598 69.5654C268.844 69.4004 269.119 69.2756 269.424 69.1909C269.648 69.1317 269.986 69.0745 270.439 69.0195C271.362 68.9095 272.041 68.7783 272.477 68.626C272.481 68.4694 272.483 68.37 272.483 68.3276C272.483 67.8621 272.375 67.5342 272.159 67.3438C271.867 67.0856 271.434 66.9565 270.858 66.9565C270.321 66.9565 269.923 67.0518 269.665 67.2422C269.411 67.4284 269.223 67.7606 269.1 68.2388L267.983 68.0864C268.084 67.6082 268.251 67.2231 268.484 66.9312C268.717 66.6349 269.053 66.4085 269.493 66.252C269.933 66.0911 270.443 66.0107 271.023 66.0107C271.599 66.0107 272.066 66.0785 272.426 66.2139C272.786 66.3493 273.05 66.5207 273.219 66.728C273.389 66.9312 273.507 67.1893 273.575 67.5024C273.613 67.6971 273.632 68.0483 273.632 68.5562V70.0796C273.632 71.1418 273.655 71.8146 273.702 72.0981C273.753 72.3774 273.85 72.6462 273.994 72.9043H272.8C272.682 72.6673 272.606 72.3901 272.572 72.0728ZM272.477 69.521C272.062 69.6903 271.44 69.8342 270.611 69.9526C270.141 70.0203 269.809 70.0965 269.614 70.1812C269.419 70.2658 269.269 70.3906 269.163 70.5557C269.057 70.7165 269.005 70.8963 269.005 71.0952C269.005 71.3999 269.119 71.6538 269.347 71.8569C269.58 72.0601 269.919 72.1616 270.363 72.1616C270.803 72.1616 271.195 72.0664 271.537 71.876C271.88 71.6813 272.132 71.4168 272.293 71.0825C272.415 70.8244 272.477 70.4435 272.477 69.9399V69.521Z" fill="#766712"/>
<path d="M275.428 66.1631H276.571V71.9648H279.732V66.1631H280.875V71.9648H281.611V74.8149H280.672V72.9043H275.428V66.1631Z" fill="#766712"/>
<path d="M282.862 66.1631H284.004V71.3047L287.172 66.1631H288.403V72.9043H287.26V67.7944L284.093 72.9043H282.862V66.1631Z" fill="#766712"/>
<path d="M290.123 66.1631H291.266V71.3047L294.433 66.1631H295.665V72.9043H294.522V67.7944L291.355 72.9043H290.123V66.1631Z" fill="#766712"/>
<path d="M37 14C28.163 14 21 21.163 21 30C21 38.837 28.163 46 37 46C45.837 46 53 38.837 53 30C52.974 21.174 45.826 14.026 37 14ZM44.707 25.707L36.707 35.707C36.512 35.902 36.256 36 36 36C35.744 36 35.488 35.902 35.293 35.707L31.293 31.707C30.902 31.316 30.902 30.684 31.293 30.293C31.684 29.902 32.316 29.902 32.707 30.293L36 33.586L43.293 24.293C43.684 23.902 44.316 23.902 44.707 24.293C45.098 24.684 45.098 25.316 44.707 25.707Z" fill="#14AA5A"/>
<path fill-rule="evenodd" clip-rule="evenodd" d="M37 43C44.1797 43 50 37.1797 50 30C50 22.8203 44.1797 17 37 17C29.8203 17 24 22.8203 24 30C24 37.1797 29.8203 43 37 43ZM37 44C44.732 44 51 37.732 51 30C51 22.268 44.732 16 37 16C29.268 16 23 22.268 23 30C23 37.732 29.268 44 37 44Z" fill="#FFFAD9"/>
<path d="M148 14C139.163 14 132 21.163 132 30C132 38.837 139.163 46 148 46C156.837 46 164 38.837 164 30C163.974 21.174 156.826 14.026 148 14ZM155.707 25.707L147.707 35.707C147.512 35.902 147.256 36 147 36C146.744 36 146.488 35.902 146.293 35.707L142.293 31.707C141.902 31.316 141.902 30.684 142.293 30.293C142.684 29.902 143.316 29.902 143.707 30.293L147 33.586L154.293 24.293C154.684 23.902 155.316 23.902 155.707 24.293C156.098 24.684 156.098 25.316 155.707 25.707Z" fill="#14AA5A"/>
<path fill-rule="evenodd" clip-rule="evenodd" d="M148 43C155.18 43 161 37.1797 161 30C161 22.8203 155.18 17 148 17C140.82 17 135 22.8203 135 30C135 37.1797 140.82 43 148 43ZM148 44C155.732 44 162 37.732 162 30C162 22.268 155.732 16 148 16C140.268 16 134 22.268 134 30C134 37.732 140.268 44 148 44Z" fill="#FFFAD9"/>
<path d="M53 29H132V31H53V29Z" fill="#14AA5A"/>
<path d="M116 50.54H123.319V59.8457H122.081V51.6382H117.231V59.8457H116V50.54Z" fill="#009646"/>
<path d="M124.76 56.4751C124.76 55.2267 125.107 54.3021 125.801 53.7012C126.38 53.2018 127.087 52.9521 127.921 52.9521C128.847 52.9521 129.605 53.2568 130.193 53.8662C130.781 54.4714 131.075 55.3092 131.075 56.3799C131.075 57.2474 130.944 57.9308 130.682 58.4302C130.424 58.9253 130.045 59.3104 129.546 59.5854C129.051 59.8605 128.509 59.9981 127.921 59.9981C126.977 59.9981 126.213 59.6955 125.629 59.0903C125.049 58.4852 124.76 57.6134 124.76 56.4751ZM125.934 56.4751C125.934 57.3384 126.122 57.9858 126.499 58.4175C126.875 58.8449 127.349 59.0586 127.921 59.0586C128.488 59.0586 128.96 58.8428 129.336 58.4111C129.713 57.9795 129.901 57.3214 129.901 56.437C129.901 55.6033 129.711 54.9728 129.33 54.5454C128.953 54.1138 128.483 53.8979 127.921 53.8979C127.349 53.8979 126.875 54.1118 126.499 54.5392C126.122 54.9666 125.934 55.6118 125.934 56.4751Z" fill="#009646"/>
<path d="M133.031 53.1045H137.728V58.9062H138.458V61.7563H137.518V59.8457H132.212V61.7563H131.272V58.9062H131.875C132.679 57.8145 133.064 55.8805 133.031 53.1045ZM133.983 54.0503C133.898 56.2381 133.56 57.8568 132.967 58.9062H136.592V54.0503H133.983Z" fill="#009646"/>
<path d="M139.727 53.1045H145.047V59.8457H143.904V54.0503H140.87V59.8457H139.727V53.1045Z" fill="#009646"/>
<path d="M146.767 53.1045H147.909V58.2461L151.077 53.1045H152.308V59.8457H151.166V54.7358L147.998 59.8457H146.767V53.1045Z" fill="#009646"/>
<path d="M158.428 57.3765L159.551 57.5225C159.428 58.2969 159.113 58.9041 158.605 59.3442C158.102 59.7801 157.482 59.9981 156.745 59.9981C155.823 59.9981 155.08 59.6976 154.517 59.0967C153.959 58.4915 153.679 57.6261 153.679 56.5005C153.679 55.7726 153.8 55.1357 154.041 54.5898C154.282 54.0439 154.649 53.6356 155.139 53.3647C155.635 53.0897 156.172 52.9521 156.752 52.9521C157.484 52.9521 158.083 53.1383 158.548 53.5107C159.014 53.8789 159.312 54.4036 159.443 55.085L158.332 55.2563C158.226 54.8035 158.038 54.4629 157.767 54.2344C157.501 54.0059 157.177 53.8916 156.796 53.8916C156.221 53.8916 155.753 54.099 155.393 54.5137C155.034 54.9242 154.854 55.5759 154.854 56.4688C154.854 57.3744 155.027 58.0324 155.374 58.4429C155.721 58.8533 156.174 59.0586 156.733 59.0586C157.181 59.0586 157.556 58.9211 157.856 58.646C158.157 58.3709 158.347 57.9478 158.428 57.3765Z" fill="#009646"/>
<path d="M164.928 59.0142C164.504 59.3739 164.096 59.6278 163.702 59.7759C163.313 59.924 162.894 59.9981 162.446 59.9981C161.705 59.9981 161.136 59.8182 160.738 59.4585C160.34 59.0946 160.141 58.6312 160.141 58.0684C160.141 57.7383 160.215 57.4378 160.364 57.167C160.516 56.8919 160.713 56.6719 160.954 56.5068C161.199 56.3418 161.474 56.217 161.779 56.1323C162.003 56.0731 162.342 56.0159 162.795 55.9609C163.717 55.8509 164.396 55.7197 164.832 55.5674C164.837 55.4108 164.839 55.3115 164.839 55.2691C164.839 54.8036 164.731 54.4756 164.515 54.2852C164.223 54.027 163.789 53.8979 163.214 53.8979C162.676 53.8979 162.278 53.9932 162.02 54.1836C161.766 54.3698 161.578 54.702 161.455 55.1802L160.338 55.0278C160.44 54.5496 160.607 54.1646 160.84 53.8727C161.072 53.5764 161.409 53.3499 161.849 53.1934C162.289 53.0325 162.799 52.9521 163.379 52.9521C163.954 52.9521 164.422 53.0199 164.782 53.1553C165.141 53.2907 165.406 53.4621 165.575 53.6694C165.744 53.8726 165.863 54.1307 165.93 54.4438C165.969 54.6385 165.988 54.9898 165.988 55.4977V57.021C165.988 58.0832 166.011 58.7561 166.057 59.0396C166.108 59.3189 166.206 59.5876 166.349 59.8457H165.156C165.038 59.6087 164.961 59.3315 164.928 59.0142ZM164.832 56.4624C164.418 56.6317 163.796 56.7757 162.966 56.8941C162.496 56.9618 162.164 57.038 161.969 57.1227C161.775 57.2073 161.625 57.3321 161.519 57.4972C161.413 57.658 161.36 57.8377 161.36 58.0366C161.36 58.3413 161.474 58.5952 161.703 58.7983C161.936 59.0015 162.274 59.1031 162.719 59.1031C163.159 59.1031 163.55 59.0078 163.893 58.8174C164.236 58.6227 164.487 58.3582 164.648 58.0239C164.771 57.7658 164.832 57.3849 164.832 56.8813V56.4624Z" fill="#009646"/>
<path d="M167.771 53.1045H168.914V55.9102H172.081V53.1045H173.224V59.8457H172.081V56.856H168.914V59.8457H167.771V53.1045Z" fill="#009646"/>
<path d="M179.349 59.0142C178.926 59.3739 178.518 59.6278 178.124 59.7759C177.735 59.924 177.316 59.9981 176.867 59.9981C176.127 59.9981 175.558 59.8182 175.16 59.4585C174.762 59.0946 174.563 58.6312 174.563 58.0684C174.563 57.7383 174.637 57.4378 174.785 57.167C174.938 56.8919 175.135 56.6719 175.376 56.5068C175.621 56.3418 175.896 56.217 176.201 56.1323C176.425 56.0731 176.764 56.0159 177.217 55.9609C178.139 55.8509 178.818 55.7197 179.254 55.5674C179.258 55.4108 179.261 55.3115 179.261 55.2691C179.261 54.8036 179.153 54.4756 178.937 54.2852C178.645 54.027 178.211 53.8979 177.636 53.8979C177.098 53.8979 176.7 53.9932 176.442 54.1836C176.188 54.3698 176 54.702 175.877 55.1802L174.76 55.0278C174.862 54.5496 175.029 54.1646 175.261 53.8727C175.494 53.5764 175.831 53.3499 176.271 53.1934C176.711 53.0325 177.221 52.9521 177.801 52.9521C178.376 52.9521 178.844 53.0199 179.203 53.1553C179.563 53.2907 179.828 53.4621 179.997 53.6694C180.166 53.8726 180.285 54.1307 180.352 54.4438C180.39 54.6385 180.409 54.9898 180.409 55.4977V57.021C180.409 58.0832 180.433 58.7561 180.479 59.0396C180.53 59.3189 180.627 59.5876 180.771 59.8457H179.578C179.459 59.6087 179.383 59.3315 179.349 59.0142ZM179.254 56.4624C178.839 56.6317 178.217 56.7757 177.388 56.8941C176.918 56.9618 176.586 57.038 176.391 57.1227C176.197 57.2073 176.046 57.3321 175.941 57.4972C175.835 57.658 175.782 57.8377 175.782 58.0366C175.782 58.3413 175.896 58.5952 176.125 58.7983C176.358 59.0015 176.696 59.1031 177.14 59.1031C177.581 59.1031 177.972 59.0078 178.315 58.8174C178.657 58.6227 178.909 58.3582 179.07 58.0239C179.193 57.7658 179.254 57.3849 179.254 56.8813V56.4624Z" fill="#009646"/>
<path d="M18.9951 56.7417L20.2266 57.0527C19.9684 58.0641 19.5029 58.8364 18.8301 59.3696C18.1615 59.8986 17.3426 60.1631 16.3735 60.1631C15.3706 60.1631 14.5539 59.96 13.9233 59.5537C13.297 59.1432 12.8189 58.5508 12.4888 57.7764C12.1629 57.002 12 56.1704 12 55.2817C12 54.3127 12.1841 53.4684 12.5522 52.749C12.9246 52.0254 13.4515 51.4774 14.1328 51.105C14.8184 50.7284 15.5716 50.54 16.3926 50.54C17.3236 50.54 18.1064 50.777 18.7412 51.251C19.376 51.7249 19.8182 52.3914 20.0679 53.2505L18.8555 53.5361C18.6396 52.8591 18.3265 52.3661 17.916 52.0571C17.5055 51.7482 16.9893 51.5938 16.3672 51.5938C15.652 51.5938 15.0532 51.7651 14.5708 52.1079C14.0926 52.4507 13.7562 52.912 13.5615 53.4917C13.3669 54.0672 13.2695 54.6618 13.2695 55.2754C13.2695 56.0667 13.3838 56.7586 13.6123 57.3511C13.845 57.9393 14.2048 58.3794 14.6914 58.6714C15.1781 58.9634 15.7049 59.1094 16.272 59.1094C16.9617 59.1094 17.5457 58.9105 18.0239 58.5127C18.5021 58.1149 18.8258 57.5246 18.9951 56.7417Z" fill="#009646"/>
<path d="M21.1787 56.6338C21.1787 55.3854 21.5257 54.4608 22.2197 53.8599C22.7994 53.3605 23.5061 53.1108 24.3398 53.1108C25.2666 53.1108 26.024 53.4155 26.6123 54.0249C27.2005 54.6301 27.4946 55.4679 27.4946 56.5386C27.4946 57.4061 27.3634 58.0895 27.101 58.5889C26.8429 59.084 26.4642 59.4691 25.9648 59.7441C25.4697 60.0192 24.928 60.1567 24.3398 60.1567C23.3961 60.1567 22.6323 59.8542 22.0483 59.249C21.4685 58.6439 21.1787 57.7721 21.1787 56.6338ZM22.353 56.6338C22.353 57.4971 22.5413 58.1445 22.9179 58.5762C23.2946 59.0036 23.7685 59.2173 24.3398 59.2173C24.9069 59.2173 25.3787 59.0015 25.7553 58.5698C26.132 58.1382 26.3203 57.4801 26.3203 56.5957C26.3203 55.762 26.1298 55.1315 25.749 54.7041C25.3724 54.2725 24.9026 54.0566 24.3398 54.0566C23.7685 54.0566 23.2946 54.2704 22.9179 54.6978C22.5413 55.1252 22.353 55.7705 22.353 56.6338Z" fill="#009646"/>
<path d="M30.1796 56.9575V56.0625C30.6621 56.0583 30.99 56.0392 31.1635 56.0054C31.3413 55.9715 31.5084 55.87 31.665 55.7007C31.8216 55.5314 31.8999 55.3198 31.8999 55.0659C31.8999 54.757 31.7962 54.5116 31.5888 54.3296C31.3857 54.1434 31.1212 54.0503 30.7954 54.0503C30.1521 54.0503 29.7015 54.429 29.4433 55.1865L28.3579 55.0088C28.6964 53.7435 29.5131 53.1108 30.8081 53.1108C31.5275 53.1108 32.0903 53.3076 32.4965 53.7012C32.907 54.0947 33.1123 54.5645 33.1123 55.1104C33.1123 55.6605 32.8457 56.0985 32.3125 56.4243C32.651 56.6063 32.9049 56.839 33.0742 57.1226C33.2435 57.4019 33.3281 57.7341 33.3281 58.1191C33.3281 58.7243 33.108 59.2152 32.6679 59.5918C32.2278 59.9684 31.6121 60.1567 30.8208 60.1567C29.2846 60.1567 28.3938 59.4733 28.1484 58.1065L29.2212 57.8779C29.3185 58.3096 29.5153 58.6439 29.8115 58.8809C30.1119 59.1178 30.4547 59.2363 30.8398 59.2363C31.2249 59.2363 31.5444 59.1284 31.7983 58.9126C32.0564 58.6926 32.1855 58.4133 32.1855 58.0747C32.1855 57.8123 32.1051 57.5838 31.9443 57.3892C31.7835 57.1945 31.6121 57.0739 31.4301 57.0273C31.2482 56.9766 30.9181 56.9512 30.4399 56.9512C30.4018 56.9512 30.3151 56.9533 30.1796 56.9575Z" fill="#009646"/>
<path d="M35.2641 53.2632H39.9614V59.0649H40.6914V61.915H39.7519V60.0044H34.4453V61.915H33.5058V59.0649H34.1088C34.9129 57.9732 35.298 56.0392 35.2641 53.2632ZM36.2163 54.209C36.1316 56.3968 35.7931 58.0155 35.2006 59.0649H38.8252V54.209H36.2163Z" fill="#009646"/>
<path d="M46.3535 59.1729C45.9303 59.5326 45.5219 59.7865 45.1284 59.9346C44.7391 60.0827 44.3201 60.1567 43.8715 60.1567C43.131 60.1567 42.5618 59.9769 42.164 59.6172C41.7662 59.2533 41.5673 58.7899 41.5673 58.2271C41.5673 57.897 41.6414 57.5965 41.7895 57.3257C41.9419 57.0506 42.1386 56.8306 42.3798 56.6655C42.6253 56.5005 42.9004 56.3757 43.205 56.291C43.4293 56.2318 43.7679 56.1746 44.2207 56.1196C45.1432 56.0096 45.8224 55.8784 46.2583 55.7261C46.2625 55.5695 46.2646 55.4701 46.2646 55.4277C46.2646 54.9622 46.1567 54.6343 45.9409 54.4439C45.6489 54.1857 45.2151 54.0566 44.6396 54.0566C44.1022 54.0566 43.7044 54.1519 43.4463 54.3423C43.1923 54.5285 43.004 54.8607 42.8813 55.3389L41.7641 55.1865C41.8657 54.7083 42.0328 54.3232 42.2656 54.0313C42.4983 53.735 42.8348 53.5086 43.2749 53.3521C43.715 53.1912 44.2249 53.1108 44.8046 53.1108C45.3802 53.1108 45.8478 53.1786 46.2075 53.314C46.5672 53.4494 46.8317 53.6208 47.0009 53.8281C47.1702 54.0313 47.2887 54.2894 47.3564 54.6025C47.3945 54.7972 47.4135 55.1484 47.4135 55.6563V57.1797C47.4135 58.2419 47.4368 58.9147 47.4834 59.1982C47.5341 59.4775 47.6315 59.7463 47.7754 60.0044H46.582C46.4635 59.7674 46.3873 59.4902 46.3535 59.1729ZM46.2583 56.6211C45.8435 56.7904 45.2215 56.9343 44.3921 57.0527C43.9223 57.1204 43.5901 57.1966 43.3955 57.2813C43.2008 57.3659 43.0506 57.4907 42.9448 57.6558C42.839 57.8166 42.7861 57.9964 42.7861 58.1953C42.7861 58.5 42.9004 58.7539 43.1289 58.957C43.3616 59.1602 43.7002 59.2617 44.1445 59.2617C44.5846 59.2617 44.976 59.1665 45.3188 58.9761C45.6616 58.7814 45.9134 58.5169 46.0742 58.1826C46.1969 57.9245 46.2583 57.5436 46.2583 57.04V56.6211Z" fill="#009646"/>
<path d="M49.1972 53.2632H50.3398V56.0689H53.5073V53.2632H54.6499V60.0044H53.5073V57.0147H50.3398V60.0044H49.1972V53.2632Z" fill="#009646"/>
<path d="M60.7754 59.1729C60.3522 59.5326 59.9438 59.7865 59.5503 59.9346C59.1609 60.0827 58.742 60.1567 58.2934 60.1567C57.5529 60.1567 56.9837 59.9769 56.5859 59.6172C56.1881 59.2533 55.9892 58.7899 55.9892 58.2271C55.9892 57.897 56.0633 57.5965 56.2114 57.3257C56.3637 57.0506 56.5605 56.8306 56.8017 56.6655C57.0472 56.5005 57.3222 56.3757 57.6269 56.291C57.8512 56.2318 58.1897 56.1746 58.6425 56.1196C59.5651 56.0096 60.2443 55.8784 60.6801 55.7261C60.6844 55.5695 60.6865 55.4701 60.6865 55.4277C60.6865 54.9622 60.5786 54.6343 60.3628 54.4439C60.0708 54.1857 59.637 54.0566 59.0615 54.0566C58.524 54.0566 58.1263 54.1519 57.8681 54.3423C57.6142 54.5285 57.4259 54.8607 57.3032 55.3389L56.186 55.1865C56.2876 54.7083 56.4547 54.3232 56.6875 54.0313C56.9202 53.735 57.2566 53.5086 57.6967 53.3521C58.1368 53.1912 58.6468 53.1108 59.2265 53.1108C59.802 53.1108 60.2697 53.1786 60.6294 53.314C60.9891 53.4494 61.2535 53.6208 61.4228 53.8281C61.5921 54.0313 61.7106 54.2894 61.7783 54.6025C61.8164 54.7972 61.8354 55.1484 61.8354 55.6563V57.1797C61.8354 58.2419 61.8587 58.9147 61.9052 59.1982C61.956 59.4775 62.0533 59.7463 62.1972 60.0044H61.0039C60.8854 59.7674 60.8092 59.4902 60.7754 59.1729ZM60.6801 56.6211C60.2654 56.7904 59.6434 56.9343 58.8139 57.0527C58.3442 57.1204 58.012 57.1966 57.8173 57.2813C57.6227 57.3659 57.4725 57.4907 57.3667 57.6558C57.2609 57.8166 57.208 57.9964 57.208 58.1953C57.208 58.5 57.3222 58.7539 57.5507 58.957C57.7835 59.1602 58.122 59.2617 58.5664 59.2617C59.0065 59.2617 59.3979 59.1665 59.7407 58.9761C60.0835 58.7814 60.3352 58.5169 60.4961 58.1826C60.6188 57.9245 60.6801 57.5436 60.6801 57.04V56.6211Z" fill="#009646"/>
<path d="M273 30C273 37.732 266.732 44 259 44C251.268 44 245 37.732 245 30C245 22.268 251.268 16 259 16C266.732 16 273 22.268 273 30Z" fill="#F3D528"/>
<path d="M164 29H245V31H164V29Z" fill="url(#paint0_linear_3_70)"/>
<path d="M258.795 37.7344C256.695 37.7344 255.172 36.9824 254.322 35.5371C254.097 35.1465 254 34.7949 254 34.4141C254 33.9258 254.303 33.5938 254.81 33.5938C255.211 33.5938 255.435 33.8086 255.621 34.2871C256.09 35.498 257.095 36.2109 258.795 36.2109C260.65 36.2109 261.89 35.1562 261.9 33.6816C261.91 31.9434 260.67 30.9668 258.687 30.9668H257.564C257.095 30.9668 256.773 30.6641 256.773 30.2246C256.773 29.7852 257.095 29.4824 257.564 29.4824H258.609C260.289 29.4824 261.461 28.4473 261.461 27.041C261.461 25.6445 260.582 24.6973 258.775 24.6973C257.222 24.6973 256.373 25.3516 255.865 26.6309C255.689 27.1387 255.513 27.3242 255.074 27.3242C254.576 27.3242 254.293 27.0312 254.293 26.5234C254.293 26.123 254.381 25.7715 254.586 25.3906C255.328 23.9844 256.822 23.1738 258.775 23.1738C261.597 23.1738 263.228 24.7949 263.228 26.8066C263.228 28.5547 262.008 29.7559 260.24 30.127V30.166C262.291 30.3418 263.687 31.6211 263.687 33.623C263.687 36.0449 261.558 37.7344 258.795 37.7344Z" fill="#766712"/>
<defs>
<linearGradient id="paint0_linear_3_70" x1="162.462" y1="30" x2="247.563" y2="30" gradientUnits="userSpaceOnUse">
<stop stop-color="#40934F"/>
<stop offset="1" stop-color="#FBED9E"/>
</linearGradient>
</defs>
</svg>
