<svg width="16" height="16" viewBox="0 0 16 16" fill="none" xmlns="http://www.w3.org/2000/svg">
<g clip-path="url(#clip0_129_35)">
<path d="M9.17796 10.529L8.11896 11.854C6.4782 10.8892 5.11074 9.52176 4.14596 7.881L5.47096 6.822C5.6262 6.69772 5.7359 6.52552 5.78294 6.3323C5.82998 6.13909 5.8117 5.93573 5.73096 5.754L4.52396 3.036C4.43743 2.84103 4.28447 2.68312 4.09234 2.59045C3.90021 2.49777 3.68141 2.47635 3.47496 2.53L1.17496 3.13C0.959891 3.18497 0.772723 3.31747 0.649421 3.50206C0.526119 3.68664 0.475381 3.91028 0.506958 4.13C0.910887 7.00121 2.23861 9.66287 4.28939 11.7126C6.34018 13.7623 9.00253 15.0886 11.874 15.491C12.0937 15.5226 12.3173 15.4718 12.5019 15.3485C12.6865 15.2252 12.819 15.0381 12.874 14.823L13.474 12.523C13.5273 12.3167 13.5058 12.0981 13.4131 11.9062C13.3205 11.7143 13.1627 11.5615 12.968 11.475L10.246 10.27C10.0643 10.1892 9.86105 10.1707 9.66784 10.2176C9.47463 10.2644 9.30237 10.3739 9.17796 10.529V10.529Z" stroke="#333333" stroke-linecap="round" stroke-linejoin="round"/>
<path d="M8.5 4C9.42826 4 10.3185 4.36875 10.9749 5.02513C11.6313 5.6815 12 6.57174 12 7.5" stroke="#333333" stroke-linecap="round" stroke-linejoin="round"/>
<path d="M8.5 1C9.35359 1 10.1988 1.16813 10.9874 1.49478C11.7761 1.82144 12.4926 2.30023 13.0962 2.90381C13.6998 3.50739 14.1786 4.22394 14.5052 5.01256C14.8319 5.80117 15 6.64641 15 7.5" stroke="#333333" stroke-linecap="round" stroke-linejoin="round"/>
</g>
<defs>
<clipPath id="clip0_129_35">
<rect width="16" height="16" fill="white"/>
</clipPath>
</defs>
</svg>
