<svg width="16" height="16" viewBox="0 0 16 16" fill="none" xmlns="http://www.w3.org/2000/svg">
<path d="M0.5 5L8 9L15.5 5" stroke="#333333" stroke-linecap="round" stroke-linejoin="round"/>
<path d="M14 14.5H2C1.60218 14.5 1.22064 14.342 0.93934 14.0607C0.658035 13.7794 0.5 13.3978 0.5 13V3C0.5 2.60218 0.658035 2.22064 0.93934 1.93934C1.22064 1.65804 1.60218 1.5 2 1.5H14C14.3978 1.5 14.7794 1.65804 15.0607 1.93934C15.342 2.22064 15.5 2.60218 15.5 3V13C15.5 13.3978 15.342 13.7794 15.0607 14.0607C14.7794 14.342 14.3978 14.5 14 14.5V14.5Z" stroke="#333333" stroke-linecap="round" stroke-linejoin="round"/>
</svg>
