<svg width="296" height="76" viewBox="0 0 296 76" fill="none" xmlns="http://www.w3.org/2000/svg">
<g clip-path="url(#clip0_3_257)">
<path d="M18.9951 56.2373L20.2266 56.5483C19.9684 57.5597 19.5029 58.332 18.8301 58.8652C18.1615 59.3942 17.3426 59.6587 16.3735 59.6587C15.3706 59.6587 14.5539 59.4556 13.9233 59.0493C13.297 58.6388 12.8189 58.0464 12.4888 57.272C12.1629 56.4976 12 55.666 12 54.7773C12 53.8083 12.1841 52.964 12.5522 52.2446C12.9246 51.521 13.4515 50.973 14.1328 50.6006C14.8184 50.224 15.5716 50.0356 16.3926 50.0356C17.3236 50.0356 18.1064 50.2726 18.7412 50.7466C19.376 51.2205 19.8182 51.887 20.0679 52.7461L18.8555 53.0317C18.6396 52.3547 18.3265 51.8617 17.916 51.5527C17.5055 51.2438 16.9893 51.0894 16.3672 51.0894C15.652 51.0894 15.0532 51.2607 14.5708 51.6035C14.0926 51.9463 13.7562 52.4076 13.5615 52.9873C13.3669 53.5628 13.2695 54.1574 13.2695 54.771C13.2695 55.5623 13.3838 56.2542 13.6123 56.8467C13.845 57.4349 14.2048 57.875 14.6914 58.167C15.1781 58.459 15.7049 58.605 16.272 58.605C16.9617 58.605 17.5457 58.4061 18.0239 58.0083C18.5021 57.6105 18.8258 57.0202 18.9951 56.2373Z" fill="#009646"/>
<path d="M21.1787 56.1294C21.1787 54.881 21.5257 53.9564 22.2197 53.3555C22.7994 52.8561 23.5061 52.6064 24.3398 52.6064C25.2666 52.6064 26.024 52.9111 26.6123 53.5205C27.2005 54.1257 27.4946 54.9635 27.4946 56.0342C27.4946 56.9017 27.3634 57.5851 27.101 58.0845C26.8429 58.5796 26.4642 58.9647 25.9648 59.2397C25.4697 59.5148 24.928 59.6523 24.3398 59.6523C23.3961 59.6523 22.6323 59.3498 22.0483 58.7446C21.4685 58.1395 21.1787 57.2677 21.1787 56.1294ZM22.353 56.1294C22.353 56.9927 22.5413 57.6401 22.9179 58.0718C23.2946 58.4992 23.7685 58.7129 24.3398 58.7129C24.9069 58.7129 25.3787 58.4971 25.7553 58.0654C26.132 57.6338 26.3203 56.9757 26.3203 56.0913C26.3203 55.2576 26.1298 54.6271 25.749 54.1997C25.3724 53.7681 24.9026 53.5522 24.3398 53.5522C23.7685 53.5522 23.2946 53.766 22.9179 54.1934C22.5413 54.6208 22.353 55.2661 22.353 56.1294Z" fill="#009646"/>
<path d="M30.1796 56.4531V55.5581C30.6621 55.5539 30.99 55.5348 31.1635 55.501C31.3413 55.4671 31.5084 55.3656 31.665 55.1963C31.8216 55.027 31.8999 54.8154 31.8999 54.5615C31.8999 54.2526 31.7962 54.0072 31.5888 53.8252C31.3857 53.639 31.1212 53.5459 30.7954 53.5459C30.1521 53.5459 29.7015 53.9246 29.4433 54.6821L28.3579 54.5044C28.6964 53.2391 29.5131 52.6064 30.8081 52.6064C31.5275 52.6064 32.0903 52.8032 32.4965 53.1968C32.907 53.5903 33.1123 54.0601 33.1123 54.606C33.1123 55.1561 32.8457 55.5941 32.3125 55.9199C32.651 56.1019 32.9049 56.3346 33.0742 56.6182C33.2435 56.8975 33.3281 57.2297 33.3281 57.6147C33.3281 58.2199 33.108 58.7108 32.6679 59.0874C32.2278 59.464 31.6121 59.6523 30.8208 59.6523C29.2846 59.6523 28.3938 58.9689 28.1484 57.6021L29.2212 57.3735C29.3185 57.8052 29.5153 58.1395 29.8115 58.3765C30.1119 58.6134 30.4547 58.7319 30.8398 58.7319C31.2249 58.7319 31.5444 58.624 31.7983 58.4082C32.0564 58.1882 32.1855 57.9089 32.1855 57.5703C32.1855 57.3079 32.1051 57.0794 31.9443 56.8848C31.7835 56.6901 31.6121 56.5695 31.4301 56.5229C31.2482 56.4722 30.9181 56.4468 30.4399 56.4468C30.4018 56.4468 30.3151 56.4489 30.1796 56.4531Z" fill="#009646"/>
<path d="M35.2641 52.7588H39.9614V58.5605H40.6914V61.4106H39.7519V59.5H34.4453V61.4106H33.5058V58.5605H34.1088C34.9129 57.4688 35.298 55.5348 35.2641 52.7588ZM36.2163 53.7046C36.1316 55.8924 35.7931 57.5111 35.2006 58.5605H38.8252V53.7046H36.2163Z" fill="#009646"/>
<path d="M46.3535 58.6685C45.9303 59.0282 45.5219 59.2821 45.1284 59.4302C44.7391 59.5783 44.3201 59.6523 43.8715 59.6523C43.131 59.6523 42.5618 59.4725 42.164 59.1128C41.7662 58.7489 41.5673 58.2855 41.5673 57.7227C41.5673 57.3926 41.6414 57.0921 41.7895 56.8213C41.9419 56.5462 42.1386 56.3262 42.3798 56.1611C42.6253 55.9961 42.9004 55.8713 43.205 55.7866C43.4293 55.7274 43.7679 55.6702 44.2207 55.6152C45.1432 55.5052 45.8224 55.374 46.2583 55.2217C46.2625 55.0651 46.2646 54.9657 46.2646 54.9233C46.2646 54.4578 46.1567 54.1299 45.9409 53.9395C45.6489 53.6813 45.2151 53.5522 44.6396 53.5522C44.1022 53.5522 43.7044 53.6475 43.4463 53.8379C43.1923 54.0241 43.004 54.3563 42.8813 54.8345L41.7641 54.6821C41.8657 54.2039 42.0328 53.8188 42.2656 53.5269C42.4983 53.2306 42.8348 53.0042 43.2749 52.8477C43.715 52.6868 44.2249 52.6064 44.8046 52.6064C45.3802 52.6064 45.8478 52.6742 46.2075 52.8096C46.5672 52.945 46.8317 53.1164 47.0009 53.3237C47.1702 53.5269 47.2887 53.785 47.3564 54.0981C47.3945 54.2928 47.4135 54.644 47.4135 55.1519V56.6753C47.4135 57.7375 47.4368 58.4103 47.4834 58.6938C47.5341 58.9731 47.6315 59.2419 47.7754 59.5H46.582C46.4635 59.263 46.3873 58.9858 46.3535 58.6685ZM46.2583 56.1167C45.8435 56.286 45.2215 56.4299 44.3921 56.5483C43.9223 56.616 43.5901 56.6922 43.3955 56.7769C43.2008 56.8615 43.0506 56.9863 42.9448 57.1514C42.839 57.3122 42.7861 57.492 42.7861 57.6909C42.7861 57.9956 42.9004 58.2495 43.1289 58.4526C43.3616 58.6558 43.7002 58.7573 44.1445 58.7573C44.5846 58.7573 44.976 58.6621 45.3188 58.4717C45.6616 58.277 45.9134 58.0125 46.0742 57.6782C46.1969 57.4201 46.2583 57.0392 46.2583 56.5356V56.1167Z" fill="#009646"/>
<path d="M49.1972 52.7588H50.3398V55.5645H53.5073V52.7588H54.6499V59.5H53.5073V56.5103H50.3398V59.5H49.1972V52.7588Z" fill="#009646"/>
<path d="M60.7754 58.6685C60.3522 59.0282 59.9438 59.2821 59.5503 59.4302C59.1609 59.5783 58.742 59.6523 58.2934 59.6523C57.5529 59.6523 56.9837 59.4725 56.5859 59.1128C56.1881 58.7489 55.9892 58.2855 55.9892 57.7227C55.9892 57.3926 56.0633 57.0921 56.2114 56.8213C56.3637 56.5462 56.5605 56.3262 56.8017 56.1611C57.0472 55.9961 57.3222 55.8713 57.6269 55.7866C57.8512 55.7274 58.1897 55.6702 58.6425 55.6152C59.5651 55.5052 60.2443 55.374 60.6801 55.2217C60.6844 55.0651 60.6865 54.9657 60.6865 54.9233C60.6865 54.4578 60.5786 54.1299 60.3628 53.9395C60.0708 53.6813 59.637 53.5522 59.0615 53.5522C58.524 53.5522 58.1263 53.6475 57.8681 53.8379C57.6142 54.0241 57.4259 54.3563 57.3032 54.8345L56.186 54.6821C56.2876 54.2039 56.4547 53.8188 56.6875 53.5269C56.9202 53.2306 57.2566 53.0042 57.6967 52.8477C58.1368 52.6868 58.6468 52.6064 59.2265 52.6064C59.802 52.6064 60.2697 52.6742 60.6294 52.8096C60.9891 52.945 61.2535 53.1164 61.4228 53.3237C61.5921 53.5269 61.7106 53.785 61.7783 54.0981C61.8164 54.2928 61.8354 54.644 61.8354 55.1519V56.6753C61.8354 57.7375 61.8587 58.4103 61.9052 58.6938C61.956 58.9731 62.0533 59.2419 62.1972 59.5H61.0039C60.8854 59.263 60.8092 58.9858 60.7754 58.6685ZM60.6801 56.1167C60.2654 56.286 59.6434 56.4299 58.8139 56.5483C58.3442 56.616 58.012 56.6922 57.8173 56.7769C57.6227 56.8615 57.4725 56.9863 57.3667 57.1514C57.2609 57.3122 57.208 57.492 57.208 57.6909C57.208 57.9956 57.3222 58.2495 57.5507 58.4526C57.7835 58.6558 58.122 58.7573 58.5664 58.7573C59.0065 58.7573 59.3979 58.6621 59.7407 58.4717C60.0835 58.277 60.3352 58.0125 60.4961 57.6782C60.6188 57.4201 60.6801 57.0392 60.6801 56.5356V56.1167Z" fill="#009646"/>
<path d="M112 50.1943H119.318V59.5H118.081V51.2925H113.231V59.5H112V50.1943Z" fill="#424242" fill-opacity="0.5"/>
<path d="M120.759 56.1294C120.759 54.881 121.106 53.9564 121.8 53.3555C122.38 52.8561 123.087 52.6064 123.921 52.6064C124.847 52.6064 125.605 52.9111 126.193 53.5205C126.781 54.1257 127.075 54.9635 127.075 56.0342C127.075 56.9017 126.944 57.5851 126.682 58.0845C126.424 58.5796 126.045 58.9647 125.546 59.2397C125.05 59.5148 124.509 59.6523 123.921 59.6523C122.977 59.6523 122.213 59.3498 121.629 58.7446C121.049 58.1395 120.759 57.2677 120.759 56.1294ZM121.934 56.1294C121.934 56.9927 122.122 57.6401 122.499 58.0718C122.875 58.4992 123.349 58.7129 123.921 58.7129C124.488 58.7129 124.959 58.4971 125.336 58.0654C125.713 57.6338 125.901 56.9757 125.901 56.0913C125.901 55.2576 125.711 54.6271 125.33 54.1997C124.953 53.7681 124.483 53.5522 123.921 53.5522C123.349 53.5522 122.875 53.766 122.499 54.1934C122.122 54.6208 121.934 55.2661 121.934 56.1294Z" fill="#424242" fill-opacity="0.5"/>
<path d="M129.03 52.7588H133.728V58.5605H134.458V61.4106H133.518V59.5H128.212V61.4106H127.272V58.5605H127.875C128.679 57.4688 129.064 55.5348 129.03 52.7588ZM129.983 53.7046C129.898 55.8924 129.559 57.5111 128.967 58.5605H132.591V53.7046H129.983Z" fill="#424242" fill-opacity="0.5"/>
<path d="M135.727 52.7588H141.046V59.5H139.904V53.7046H136.87V59.5H135.727V52.7588Z" fill="#424242" fill-opacity="0.5"/>
<path d="M142.767 52.7588H143.909V57.9004L147.077 52.7588H148.308V59.5H147.166V54.3901L143.998 59.5H142.767V52.7588Z" fill="#424242" fill-opacity="0.5"/>
<path d="M154.427 57.0308L155.551 57.1768C155.428 57.9512 155.113 58.5584 154.605 58.9985C154.102 59.4344 153.482 59.6523 152.745 59.6523C151.823 59.6523 151.08 59.3519 150.517 58.751C149.959 58.1458 149.679 57.2804 149.679 56.1548C149.679 55.4269 149.8 54.79 150.041 54.2441C150.282 53.6982 150.648 53.2899 151.139 53.019C151.634 52.744 152.172 52.6064 152.752 52.6064C153.484 52.6064 154.082 52.7926 154.548 53.165C155.013 53.5332 155.312 54.0579 155.443 54.7393L154.332 54.9106C154.226 54.4578 154.038 54.1172 153.767 53.8887C153.501 53.6602 153.177 53.5459 152.796 53.5459C152.22 53.5459 151.753 53.7533 151.393 54.168C151.033 54.5785 150.854 55.2301 150.854 56.123C150.854 57.0286 151.027 57.6867 151.374 58.0972C151.721 58.5076 152.174 58.7129 152.733 58.7129C153.181 58.7129 153.556 58.5754 153.856 58.3003C154.157 58.0252 154.347 57.6021 154.427 57.0308Z" fill="#424242" fill-opacity="0.5"/>
<path d="M160.927 58.6685C160.504 59.0282 160.096 59.2821 159.702 59.4302C159.313 59.5783 158.894 59.6523 158.445 59.6523C157.705 59.6523 157.136 59.4725 156.738 59.1128C156.34 58.7489 156.141 58.2855 156.141 57.7227C156.141 57.3926 156.215 57.0921 156.363 56.8213C156.516 56.5462 156.713 56.3262 156.954 56.1611C157.199 55.9961 157.474 55.8713 157.779 55.7866C158.003 55.7274 158.342 55.6702 158.795 55.6152C159.717 55.5052 160.396 55.374 160.832 55.2217C160.836 55.0651 160.838 54.9657 160.838 54.9233C160.838 54.4578 160.731 54.1299 160.515 53.9395C160.223 53.6813 159.789 53.5522 159.213 53.5522C158.676 53.5522 158.278 53.6475 158.02 53.8379C157.766 54.0241 157.578 54.3563 157.455 54.8345L156.338 54.6821C156.44 54.2039 156.607 53.8188 156.839 53.5269C157.072 53.2306 157.409 53.0042 157.849 52.8477C158.289 52.6868 158.799 52.6064 159.379 52.6064C159.954 52.6064 160.422 52.6742 160.781 52.8096C161.141 52.945 161.406 53.1164 161.575 53.3237C161.744 53.5269 161.863 53.785 161.93 54.0981C161.968 54.2928 161.987 54.644 161.987 55.1519V56.6753C161.987 57.7375 162.011 58.4103 162.057 58.6938C162.108 58.9731 162.205 59.2419 162.349 59.5H161.156C161.037 59.263 160.961 58.9858 160.927 58.6685ZM160.832 56.1167C160.417 56.286 159.795 56.4299 158.966 56.5483C158.496 56.616 158.164 56.6922 157.969 56.7769C157.775 56.8615 157.624 56.9863 157.519 57.1514C157.413 57.3122 157.36 57.492 157.36 57.6909C157.36 57.9956 157.474 58.2495 157.703 58.4526C157.935 58.6558 158.274 58.7573 158.718 58.7573C159.158 58.7573 159.55 58.6621 159.893 58.4717C160.235 58.277 160.487 58.0125 160.648 57.6782C160.771 57.4201 160.832 57.0392 160.832 56.5356V56.1167Z" fill="#424242" fill-opacity="0.5"/>
<path d="M163.771 52.7588H164.914V55.5645H168.081V52.7588H169.224V59.5H168.081V56.5103H164.914V59.5H163.771V52.7588Z" fill="#424242" fill-opacity="0.5"/>
<path d="M170.95 52.7588H172.093V57.9004L175.26 52.7588H176.492V59.5H175.349V54.3901L172.182 59.5H170.95V52.7588Z" fill="#424242" fill-opacity="0.5"/>
<path d="M182.827 57.3291L184.007 57.4751C183.821 58.1649 183.476 58.7002 182.973 59.0811C182.469 59.4619 181.826 59.6523 181.043 59.6523C180.057 59.6523 179.274 59.3498 178.694 58.7446C178.119 58.1353 177.831 57.2826 177.831 56.1865C177.831 55.0524 178.123 54.1722 178.707 53.5459C179.291 52.9196 180.049 52.6064 180.98 52.6064C181.881 52.6064 182.617 52.9132 183.189 53.5269C183.76 54.1405 184.046 55.0037 184.046 56.1167C184.046 56.1844 184.043 56.286 184.039 56.4214H179.012C179.054 57.1619 179.264 57.729 179.64 58.1226C180.017 58.5161 180.487 58.7129 181.049 58.7129C181.468 58.7129 181.826 58.6029 182.122 58.3828C182.418 58.1628 182.653 57.8115 182.827 57.3291ZM179.075 55.4819H182.839C182.789 54.9149 182.645 54.4896 182.408 54.2061C182.044 53.766 181.572 53.5459 180.992 53.5459C180.468 53.5459 180.025 53.7215 179.666 54.0728C179.31 54.424 179.113 54.8937 179.075 55.4819Z" fill="#424242" fill-opacity="0.5"/>
<path d="M222 59.5V50.1943H225.51C226.128 50.1943 226.6 50.224 226.926 50.2832C227.383 50.3594 227.766 50.5054 228.075 50.7212C228.384 50.9328 228.631 51.2311 228.817 51.6162C229.008 52.0013 229.103 52.4245 229.103 52.8857C229.103 53.6771 228.851 54.3478 228.348 54.8979C227.844 55.4438 226.934 55.7168 225.618 55.7168H223.231V59.5H222ZM223.231 54.6187H225.637C226.433 54.6187 226.998 54.4705 227.332 54.1743C227.666 53.8781 227.833 53.4613 227.833 52.9238C227.833 52.5345 227.734 52.2023 227.535 51.9272C227.34 51.6479 227.082 51.4639 226.761 51.375C226.553 51.32 226.17 51.2925 225.612 51.2925H223.231V54.6187Z" fill="#424242" fill-opacity="0.5"/>
<path d="M234.568 57.3291L235.749 57.4751C235.563 58.1649 235.218 58.7002 234.714 59.0811C234.211 59.4619 233.567 59.6523 232.785 59.6523C231.799 59.6523 231.016 59.3498 230.436 58.7446C229.86 58.1353 229.573 57.2826 229.573 56.1865C229.573 55.0524 229.865 54.1722 230.449 53.5459C231.033 52.9196 231.79 52.6064 232.721 52.6064C233.622 52.6064 234.359 52.9132 234.93 53.5269C235.501 54.1405 235.787 55.0037 235.787 56.1167C235.787 56.1844 235.785 56.286 235.781 56.4214H230.753C230.796 57.1619 231.005 57.729 231.382 58.1226C231.758 58.5161 232.228 58.7129 232.791 58.7129C233.21 58.7129 233.567 58.6029 233.864 58.3828C234.16 58.1628 234.395 57.8115 234.568 57.3291ZM230.817 55.4819H234.581C234.53 54.9149 234.386 54.4896 234.149 54.2061C233.785 53.766 233.314 53.5459 232.734 53.5459C232.209 53.5459 231.767 53.7215 231.407 54.0728C231.052 54.424 230.855 54.8937 230.817 55.4819Z" fill="#424242" fill-opacity="0.5"/>
<path d="M237.196 52.7588H241.075V53.7046H238.339V59.5H237.196V52.7588Z" fill="#424242" fill-opacity="0.5"/>
<path d="M241.938 52.7588H243.08V57.9004L246.248 52.7588H247.479V59.5H246.337V54.3901L243.169 59.5H241.938V52.7588Z" fill="#424242" fill-opacity="0.5"/>
<path d="M253.599 57.0308L254.722 57.1768C254.599 57.9512 254.284 58.5584 253.776 58.9985C253.273 59.4344 252.653 59.6523 251.916 59.6523C250.994 59.6523 250.251 59.3519 249.688 58.751C249.13 58.1458 248.851 57.2804 248.851 56.1548C248.851 55.4269 248.971 54.79 249.212 54.2441C249.454 53.6982 249.82 53.2899 250.31 53.019C250.806 52.744 251.343 52.6064 251.923 52.6064C252.655 52.6064 253.254 52.7926 253.719 53.165C254.185 53.5332 254.483 54.0579 254.614 54.7393L253.503 54.9106C253.398 54.4578 253.209 54.1172 252.938 53.8887C252.672 53.6602 252.348 53.5459 251.967 53.5459C251.392 53.5459 250.924 53.7533 250.564 54.168C250.205 54.5785 250.025 55.2301 250.025 56.123C250.025 57.0286 250.198 57.6867 250.545 58.0972C250.892 58.5076 251.345 58.7129 251.904 58.7129C252.352 58.7129 252.727 58.5754 253.027 58.3003C253.328 58.0252 253.518 57.6021 253.599 57.0308Z" fill="#424242" fill-opacity="0.5"/>
<path d="M255.084 52.7588H260.562V53.7046H258.391V59.5H257.255V53.7046H255.084V52.7588Z" fill="#424242" fill-opacity="0.5"/>
<path d="M261.654 62.0835V52.7588H262.695V53.6348C262.94 53.292 263.217 53.036 263.526 52.8667C263.835 52.6932 264.21 52.6064 264.65 52.6064C265.225 52.6064 265.733 52.7546 266.173 53.0508C266.613 53.347 266.946 53.766 267.17 54.3076C267.394 54.8451 267.506 55.4354 267.506 56.0786C267.506 56.7684 267.381 57.3905 267.132 57.9448C266.886 58.495 266.527 58.9181 266.053 59.2144C265.583 59.5063 265.088 59.6523 264.567 59.6523C264.186 59.6523 263.844 59.5719 263.539 59.4111C263.239 59.2503 262.991 59.0472 262.796 58.8018V62.0835H261.654ZM262.688 56.1675C262.688 57.035 262.864 57.6761 263.215 58.0908C263.566 58.5055 263.992 58.7129 264.491 58.7129C264.999 58.7129 265.433 58.4992 265.792 58.0718C266.156 57.6401 266.338 56.9736 266.338 56.0723C266.338 55.2132 266.161 54.57 265.805 54.1426C265.454 53.7152 265.033 53.5015 264.542 53.5015C264.055 53.5015 263.624 53.73 263.247 54.187C262.875 54.6398 262.688 55.3 262.688 56.1675Z" fill="#424242" fill-opacity="0.5"/>
<path d="M273.289 58.6685C272.866 59.0282 272.457 59.2821 272.064 59.4302C271.675 59.5783 271.256 59.6523 270.807 59.6523C270.066 59.6523 269.497 59.4725 269.1 59.1128C268.702 58.7489 268.503 58.2855 268.503 57.7227C268.503 57.3926 268.577 57.0921 268.725 56.8213C268.877 56.5462 269.074 56.3262 269.315 56.1611C269.561 55.9961 269.836 55.8713 270.141 55.7866C270.365 55.7274 270.703 55.6702 271.156 55.6152C272.079 55.5052 272.758 55.374 273.194 55.2217C273.198 55.0651 273.2 54.9657 273.2 54.9233C273.2 54.4578 273.092 54.1299 272.876 53.9395C272.584 53.6813 272.151 53.5522 271.575 53.5522C271.038 53.5522 270.64 53.6475 270.382 53.8379C270.128 54.0241 269.94 54.3563 269.817 54.8345L268.7 54.6821C268.801 54.2039 268.968 53.8188 269.201 53.5269C269.434 53.2306 269.77 53.0042 270.21 52.8477C270.65 52.6868 271.16 52.6064 271.74 52.6064C272.316 52.6064 272.783 52.6742 273.143 52.8096C273.503 52.945 273.767 53.1164 273.936 53.3237C274.106 53.5269 274.224 53.785 274.292 54.0981C274.33 54.2928 274.349 54.644 274.349 55.1519V56.6753C274.349 57.7375 274.372 58.4103 274.419 58.6938C274.47 58.9731 274.567 59.2419 274.711 59.5H273.518C273.399 59.263 273.323 58.9858 273.289 58.6685ZM273.194 56.1167C272.779 56.286 272.157 56.4299 271.328 56.5483C270.858 56.616 270.526 56.6922 270.331 56.7769C270.136 56.8615 269.986 56.9863 269.88 57.1514C269.775 57.3122 269.722 57.492 269.722 57.6909C269.722 57.9956 269.836 58.2495 270.064 58.4526C270.297 58.6558 270.636 58.7573 271.08 58.7573C271.52 58.7573 271.912 58.6621 272.254 58.4717C272.597 58.277 272.849 58.0125 273.01 57.6782C273.132 57.4201 273.194 57.0392 273.194 56.5356V56.1167Z" fill="#424242" fill-opacity="0.5"/>
<path d="M276.145 52.7588H277.288V58.5605H280.449V52.7588H281.592V58.5605H282.328V61.4106H281.389V59.5H276.145V52.7588Z" fill="#424242" fill-opacity="0.5"/>
<path d="M283.579 52.7588H284.721V57.9004L287.889 52.7588H289.12V59.5H287.977V54.3901L284.81 59.5H283.579V52.7588Z" fill="#424242" fill-opacity="0.5"/>
<path d="M296.147 52.7588V59.5H295.011V56.8721H294.351C293.948 56.8721 293.648 56.925 293.449 57.0308C293.254 57.1323 292.969 57.4645 292.592 58.0273L291.596 59.5H290.18L291.412 57.6846C291.788 57.1302 292.163 56.8171 292.535 56.7451C291.883 56.6562 291.399 56.4214 291.081 56.0405C290.768 55.6597 290.612 55.2217 290.612 54.7266C290.612 54.1426 290.817 53.6686 291.227 53.3047C291.642 52.9408 292.241 52.7588 293.024 52.7588H296.147ZM295.011 53.7046H293.386C292.704 53.7046 292.264 53.8104 292.065 54.022C291.871 54.2336 291.773 54.4811 291.773 54.7646C291.773 55.1667 291.917 55.4629 292.205 55.6533C292.497 55.8395 293.011 55.9326 293.747 55.9326H295.011V53.7046Z" fill="#424242" fill-opacity="0.5"/>
<path d="M37 14C28.163 14 21 21.163 21 30C21 38.837 28.163 46 37 46C45.837 46 53 38.837 53 30C52.974 21.174 45.826 14.026 37 14Z" fill="#14AA5A"/>
<path fill-rule="evenodd" clip-rule="evenodd" d="M37 43C44.1797 43 50 37.1797 50 30C50 22.8203 44.1797 17 37 17C29.8203 17 24 22.8203 24 30C24 37.1797 29.8203 43 37 43ZM37 44C44.732 44 51 37.732 51 30C51 22.268 44.732 16 37 16C29.268 16 23 22.268 23 30C23 37.732 29.268 44 37 44Z" fill="#FFFAD9"/>
<path d="M37.6426 37.1758C37.1445 37.1758 36.793 36.8047 36.793 36.2676V24.832H36.7539L34.1172 26.6777C33.9219 26.8145 33.7363 26.8828 33.5215 26.8828C33.1113 26.8828 32.8281 26.5898 32.8281 26.1602C32.8281 25.8477 32.9453 25.6426 33.3164 25.3789L36.334 23.2207C36.8809 22.8301 37.1152 22.7324 37.5156 22.7324C38.1211 22.7324 38.4922 23.1035 38.4922 23.7188V36.2676C38.4922 36.8047 38.1406 37.1758 37.6426 37.1758Z" fill="#FFFAD9"/>
<path opacity="0.7" d="M162 30C162 37.732 155.732 44 148 44C140.268 44 134 37.732 134 30C134 22.268 140.268 16 148 16C155.732 16 162 22.268 162 30Z" fill="#424242" fill-opacity="0.5"/>
<path d="M144.279 37C143.762 37 143.43 36.7168 143.43 36.2773C143.43 35.916 143.508 35.7598 143.928 35.3203L148.439 30.6133C150.334 28.6309 150.783 27.8789 150.783 26.6973C150.783 25.2617 149.68 24.207 148.166 24.207C146.643 24.207 145.578 24.998 145.1 26.5117C144.982 26.873 144.787 27.127 144.309 27.127C143.791 27.127 143.498 26.8047 143.498 26.3457C143.498 26.2188 143.508 26.1113 143.527 25.9941C143.732 24.5488 145.285 22.6738 148.166 22.6738C150.705 22.6738 152.541 24.3145 152.541 26.5898C152.541 28.1328 151.838 29.2949 149.426 31.7656L145.891 35.3984V35.4375H152.043C152.541 35.4375 152.873 35.75 152.873 36.2188C152.873 36.6875 152.541 37 152.043 37H144.279Z" fill="#FFFAD9"/>
<path opacity="0.7" d="M273 30C273 37.732 266.732 44 259 44C251.268 44 245 37.732 245 30C245 22.268 251.268 16 259 16C266.732 16 273 22.268 273 30Z" fill="#424242" fill-opacity="0.5"/>
<path d="M258.971 37.2344C256.871 37.2344 255.348 36.4824 254.498 35.0371C254.273 34.6465 254.176 34.2949 254.176 33.9141C254.176 33.4258 254.479 33.0938 254.986 33.0938C255.387 33.0938 255.611 33.3086 255.797 33.7871C256.266 34.998 257.271 35.7109 258.971 35.7109C260.826 35.7109 262.066 34.6562 262.076 33.1816C262.086 31.4434 260.846 30.4668 258.863 30.4668H257.74C257.271 30.4668 256.949 30.1641 256.949 29.7246C256.949 29.2852 257.271 28.9824 257.74 28.9824H258.785C260.465 28.9824 261.637 27.9473 261.637 26.541C261.637 25.1445 260.758 24.1973 258.951 24.1973C257.398 24.1973 256.549 24.8516 256.041 26.1309C255.865 26.6387 255.689 26.8242 255.25 26.8242C254.752 26.8242 254.469 26.5312 254.469 26.0234C254.469 25.623 254.557 25.2715 254.762 24.8906C255.504 23.4844 256.998 22.6738 258.951 22.6738C261.773 22.6738 263.404 24.2949 263.404 26.3066C263.404 28.0547 262.184 29.2559 260.416 29.627V29.666C262.467 29.8418 263.863 31.1211 263.863 33.123C263.863 35.5449 261.734 37.2344 258.971 37.2344Z" fill="#FFFAD9"/>
<path opacity="0.7" d="M53 29H132V31H53V29Z" fill="#424242" fill-opacity="0.5"/>
<path opacity="0.7" d="M164 29H243V31H164V29Z" fill="#424242" fill-opacity="0.5"/>
</g>
<defs>
<clipPath id="clip0_3_257">
<rect width="296" height="76" fill="white"/>
</clipPath>
</defs>
</svg>
