<svg width="68" height="76" viewBox="0 0 68 76" fill="none" xmlns="http://www.w3.org/2000/svg">
<path d="M38 14C29.163 14 22 21.163 22 30C22 38.837 29.163 46 38 46C46.837 46 54 38.837 54 30C53.974 21.174 46.826 14.026 38 14ZM45.707 25.707L37.707 35.707C37.512 35.902 37.256 36 37 36C36.744 36 36.488 35.902 36.293 35.707L32.293 31.707C31.902 31.316 31.902 30.684 32.293 30.293C32.684 29.902 33.316 29.902 33.707 30.293L37 33.586L44.293 24.293C44.684 23.902 45.316 23.902 45.707 24.293C46.098 24.684 46.098 25.316 45.707 25.707Z" fill="#14AA5A"/>
<path fill-rule="evenodd" clip-rule="evenodd" d="M38 43C45.1797 43 51 37.1797 51 30C51 22.8203 45.1797 17 38 17C30.8203 17 25 22.8203 25 30C25 37.1797 30.8203 43 38 43ZM38 44C45.732 44 52 37.732 52 30C52 22.268 45.732 16 38 16C30.268 16 24 22.268 24 30C24 37.732 30.268 44 38 44Z" fill="#FFFAD9"/>
<path d="M8 60V50.6943H11.4912C12.2021 50.6943 12.7713 50.7896 13.1987 50.98C13.6304 51.1662 13.9668 51.4561 14.208 51.8496C14.4535 52.2389 14.5762 52.6473 14.5762 53.0747C14.5762 53.4725 14.4683 53.847 14.2524 54.1982C14.0366 54.5495 13.7108 54.833 13.2749 55.0488C13.8377 55.2139 14.2694 55.4953 14.5698 55.8931C14.8745 56.2909 15.0269 56.7606 15.0269 57.3022C15.0269 57.7381 14.9338 58.1444 14.7476 58.521C14.5656 58.8934 14.3392 59.1812 14.0684 59.3843C13.7975 59.5874 13.4569 59.7419 13.0464 59.8477C12.6401 59.9492 12.1408 60 11.5483 60H8ZM9.23144 54.6045H11.2436C11.7895 54.6045 12.181 54.5685 12.418 54.4966C12.7311 54.4035 12.966 54.249 13.1226 54.0332C13.2834 53.8174 13.3638 53.5465 13.3638 53.2207C13.3638 52.9118 13.2897 52.641 13.1416 52.4082C12.9935 52.1712 12.7819 52.0104 12.5068 51.9258C12.2318 51.8369 11.7599 51.7925 11.0913 51.7925H9.23144V54.6045ZM9.23144 58.9019H11.5483C11.9461 58.9019 12.2254 58.887 12.3862 58.8574C12.6698 58.8066 12.9067 58.722 13.0972 58.6035C13.2876 58.485 13.4442 58.3136 13.5669 58.0894C13.6896 57.8608 13.751 57.5985 13.751 57.3022C13.751 56.9552 13.6621 56.6548 13.4844 56.4009C13.3066 56.1427 13.0591 55.9629 12.7417 55.8613C12.4286 55.7555 11.9758 55.7026 11.3833 55.7026H9.23144V58.9019Z" fill="#009646"/>
<path d="M20.1938 62.5835V53.2588H21.2348V54.1348C21.4803 53.792 21.7575 53.536 22.0665 53.3667C22.3754 53.1932 22.7498 53.1064 23.1899 53.1064C23.7654 53.1064 24.2733 53.2546 24.7134 53.5508C25.1535 53.847 25.4856 54.266 25.7099 54.8076C25.9342 55.3451 26.0464 55.9354 26.0464 56.5786C26.0464 57.2684 25.9216 57.8905 25.6719 58.4448C25.4265 58.995 25.0668 59.4181 24.5928 59.7144C24.1231 60.0063 23.628 60.1523 23.1075 60.1523C22.7266 60.1523 22.3838 60.0719 22.0791 59.9111C21.7787 59.7503 21.531 59.5472 21.3364 59.3018V62.5835H20.1938ZM21.2285 56.6675C21.2285 57.535 21.4042 58.1761 21.7554 58.5908C22.1067 59.0055 22.5319 59.2129 23.0312 59.2129C23.539 59.2129 23.9729 58.9992 24.3326 58.5718C24.6965 58.1401 24.8785 57.4736 24.8785 56.5723C24.8785 55.7132 24.7006 55.07 24.3452 54.6426C23.9939 54.2152 23.573 54.0015 23.0821 54.0015C22.5954 54.0015 22.1637 54.23 21.7871 54.687C21.4147 55.1398 21.2285 55.8 21.2285 56.6675Z" fill="#009646"/>
<path d="M32.045 57.8291L33.2255 57.9751C33.0393 58.6649 32.6945 59.2002 32.191 59.5811C31.6874 59.9619 31.0441 60.1523 30.2612 60.1523C29.2752 60.1523 28.4923 59.8498 27.9125 59.2446C27.337 58.6353 27.0493 57.7826 27.0493 56.6865C27.0493 55.5524 27.3413 54.6722 27.9252 54.0459C28.5092 53.4196 29.2668 53.1064 30.1978 53.1064C31.0992 53.1064 31.8354 53.4132 32.4067 54.0269C32.978 54.6405 33.2636 55.5037 33.2636 56.6167C33.2636 56.6844 33.2615 56.786 33.2573 56.9214H28.2299C28.2722 57.6619 28.4817 58.229 28.8583 58.6226C29.235 59.0161 29.7047 59.2129 30.2675 59.2129C30.6865 59.2129 31.0441 59.1029 31.3403 58.8828C31.6365 58.6628 31.8715 58.3115 32.045 57.8291ZM28.2934 55.9819H32.0576C32.0068 55.4149 31.8629 54.9896 31.6259 54.7061C31.262 54.266 30.7902 54.0459 30.2104 54.0459C29.6857 54.0459 29.2434 54.2215 28.8837 54.5728C28.5283 54.924 28.3315 55.3937 28.2934 55.9819Z" fill="#009646"/>
<path d="M39.2812 57.8291L40.462 57.9751C40.2758 58.6649 39.9308 59.2002 39.4272 59.5811C38.9236 59.9619 38.2804 60.1523 37.4975 60.1523C36.5115 60.1523 35.7287 59.8498 35.149 59.2446C34.5735 58.6353 34.2857 57.7826 34.2857 56.6865C34.2857 55.5524 34.5776 54.6722 35.1616 54.0459C35.7456 53.4196 36.503 53.1064 37.434 53.1064C38.3354 53.1064 39.0717 53.4132 39.643 54.0269C40.2143 54.6405 40.5 55.5037 40.5 56.6167C40.5 56.6844 40.4979 56.786 40.4937 56.9214H35.4664C35.5087 57.6619 35.718 58.229 36.0947 58.6226C36.4713 59.0161 36.9411 59.2129 37.504 59.2129C37.9229 59.2129 38.2805 59.1029 38.5767 58.8828C38.8729 58.6628 39.1077 58.3115 39.2812 57.8291ZM35.5297 55.9819H39.294C39.2432 55.4149 39.0992 54.9896 38.8623 54.7061C38.4983 54.266 38.0265 54.0459 37.4467 54.0459C36.922 54.0459 36.4798 54.2215 36.1201 54.5728C35.7646 54.924 35.5678 55.3937 35.5297 55.9819Z" fill="#009646"/>
<path d="M46.3018 57.5308L47.4253 57.6768C47.3026 58.4512 46.9874 59.0584 46.4795 59.4985C45.976 59.9344 45.356 60.1523 44.6197 60.1523C43.6972 60.1523 42.9545 59.8519 42.3917 59.251C41.8331 58.6458 41.5538 57.7804 41.5538 56.6548C41.5538 55.9269 41.6744 55.29 41.9156 54.7441C42.1568 54.1982 42.5228 53.7899 43.0137 53.519C43.5088 53.244 44.0462 53.1064 44.6259 53.1064C45.358 53.1064 45.9569 53.2926 46.4224 53.665C46.8879 54.0332 47.1862 54.5579 47.3174 55.2393L46.2066 55.4106C46.1008 54.9578 45.9125 54.6172 45.6417 54.3887C45.375 54.1602 45.0513 54.0459 44.6705 54.0459C44.0949 54.0459 43.6273 54.2533 43.2676 54.668C42.9079 55.0785 42.7281 55.7301 42.7281 56.623C42.7281 57.5286 42.9016 58.1867 43.2486 58.5972C43.5956 59.0076 44.0484 59.2129 44.607 59.2129C45.0555 59.2129 45.43 59.0754 45.7304 58.8003C46.0309 58.5252 46.2214 58.1021 46.3018 57.5308Z" fill="#009646"/>
<path d="M47.7872 53.2588H53.2652V54.2046H51.0942V60H49.958V54.2046H47.7872V53.2588Z" fill="#009646"/>
<path d="M54.357 62.5835V53.2588H55.398V54.1348C55.6434 53.792 55.9206 53.536 56.2295 53.3667C56.5385 53.1932 56.913 53.1064 57.3531 53.1064C57.9286 53.1064 58.4364 53.2546 58.8765 53.5508C59.3166 53.847 59.6488 54.266 59.8731 54.8076C60.0974 55.3451 60.2094 55.9354 60.2094 56.5786C60.2094 57.2684 60.0847 57.8905 59.835 58.4448C59.5896 58.995 59.2299 59.4181 58.7559 59.7144C58.2862 60.0063 57.791 60.1523 57.2705 60.1523C56.8896 60.1523 56.5469 60.0719 56.2422 59.9111C55.9418 59.7503 55.6941 59.5472 55.4995 59.3018V62.5835H54.357ZM55.3917 56.6675C55.3917 57.535 55.5673 58.1761 55.9185 58.5908C56.2697 59.0055 56.695 59.2129 57.1944 59.2129C57.7022 59.2129 58.136 58.9992 58.4957 58.5718C58.8596 58.1401 59.0415 57.4736 59.0415 56.5723C59.0415 55.7132 58.8638 55.07 58.5083 54.6426C58.1571 54.2152 57.7361 54.0015 57.2452 54.0015C56.7585 54.0015 56.3269 54.23 55.9502 54.687C55.5778 55.1398 55.3917 55.8 55.3917 56.6675Z" fill="#009646"/>
<path d="M66.208 57.8291L67.3887 57.9751C67.2025 58.6649 66.8575 59.2002 66.354 59.5811C65.8504 59.9619 65.2072 60.1523 64.4244 60.1523C63.4384 60.1523 62.6555 59.8498 62.0757 59.2446C61.5002 58.6353 61.2125 57.7826 61.2125 56.6865C61.2125 55.5524 61.5044 54.6722 62.0884 54.0459C62.6724 53.4196 63.4299 53.1064 64.3609 53.1064C65.2623 53.1064 65.9986 53.4132 66.5699 54.0269C67.1412 54.6405 67.4268 55.5037 67.4268 56.6167C67.4268 56.6844 67.4247 56.786 67.4205 56.9214H62.3931C62.4354 57.6619 62.6449 58.229 63.0215 58.6226C63.3982 59.0161 63.8679 59.2129 64.4307 59.2129C64.8497 59.2129 65.2072 59.1029 65.5035 58.8828C65.7997 58.6628 66.0345 58.3115 66.208 57.8291ZM62.4566 55.9819H66.2208C66.17 55.4149 66.0261 54.9896 65.7891 54.7061C65.4252 54.266 64.9533 54.0459 64.3736 54.0459C63.8488 54.0459 63.4066 54.2215 63.0469 54.5728C62.6915 54.924 62.4947 55.3937 62.4566 55.9819Z" fill="#009646"/>
</svg>
