<svg width="58" height="76" viewBox="0 0 58 76" fill="none" xmlns="http://www.w3.org/2000/svg">
<path d="M33 14C24.163 14 17 21.163 17 30C17 38.837 24.163 46 33 46C41.837 46 49 38.837 49 30C48.974 21.174 41.826 14.026 33 14ZM40.707 25.707L32.707 35.707C32.512 35.902 32.256 36 32 36C31.744 36 31.488 35.902 31.293 35.707L27.293 31.707C26.902 31.316 26.902 30.684 27.293 30.293C27.684 29.902 28.316 29.902 28.707 30.293L32 33.586L39.293 24.293C39.684 23.902 40.316 23.902 40.707 24.293C41.098 24.684 41.098 25.316 40.707 25.707Z" fill="#14AA5A"/>
<path fill-rule="evenodd" clip-rule="evenodd" d="M33 43C40.1797 43 46 37.1797 46 30C46 22.8203 40.1797 17 33 17C25.8203 17 20 22.8203 20 30C20 37.1797 25.8203 43 33 43ZM33 44C40.732 44 47 37.732 47 30C47 22.268 40.732 16 33 16C25.268 16 19 22.268 19 30C19 37.732 25.268 44 33 44Z" fill="#FFFAD9"/>
<path d="M8.98096 59.5L12.5547 50.1943H13.8814L17.6899 59.5H16.2871L15.2017 56.6816H11.3105L10.2886 59.5H8.98096ZM11.666 55.6787H14.8208L13.8496 53.1016C13.5534 52.3187 13.3333 51.6755 13.1894 51.1719C13.071 51.7686 12.9038 52.361 12.688 52.9492L11.666 55.6787Z" fill="#009646"/>
<path d="M18.5215 52.7588H19.6641V55.6724C20.028 55.6724 20.2819 55.6025 20.4258 55.4629C20.5739 55.3232 20.7897 54.917 21.0732 54.2441C21.2975 53.7109 21.4795 53.3597 21.6191 53.1904C21.7588 53.0212 21.9196 52.9069 22.1016 52.8477C22.2835 52.7884 22.5755 52.7588 22.9775 52.7588H23.2061V53.7046L22.8887 53.6982C22.5882 53.6982 22.3957 53.7427 22.311 53.8315C22.2222 53.9246 22.0868 54.2018 21.9048 54.6631C21.7313 55.1032 21.5726 55.4079 21.4287 55.5771C21.2848 55.7464 21.0627 55.9009 20.7622 56.0405C21.2531 56.1717 21.7355 56.6287 22.2095 57.4116L23.46 59.5H22.2031L20.9844 57.4116C20.7347 56.9927 20.5168 56.7176 20.3306 56.5864C20.1444 56.451 19.9222 56.3833 19.6641 56.3833V59.5H18.5215V52.7588Z" fill="#009646"/>
<path d="M23.752 52.7588H29.23V53.7046H27.0591V59.5H25.9229V53.7046H23.752V52.7588Z" fill="#009646"/>
<path d="M30.3218 52.7588H31.4644V57.9004L34.6318 52.7588H35.8633V59.5H34.7207V54.3901L31.5532 59.5H30.3218V52.7588Z" fill="#009646"/>
<path d="M37.5898 52.7588H40.2241C40.8716 52.7588 41.3519 52.8138 41.665 52.9238C41.9824 53.0296 42.2533 53.2264 42.4775 53.5142C42.7061 53.8019 42.8203 54.1468 42.8203 54.5488C42.8203 54.8704 42.7526 55.1519 42.6172 55.3931C42.486 55.63 42.2871 55.8289 42.0205 55.9897C42.3379 56.0955 42.6003 56.2944 42.8076 56.5864C43.0192 56.8742 43.125 57.217 43.125 57.6147C43.0827 58.2537 42.8542 58.7277 42.4395 59.0366C42.0247 59.3455 41.4217 59.5 40.6304 59.5H37.5898V52.7588ZM38.7324 55.5962H39.9512C40.4378 55.5962 40.7721 55.5708 40.9541 55.52C41.1361 55.4692 41.299 55.3677 41.4429 55.2153C41.5868 55.0588 41.6587 54.8726 41.6587 54.6567C41.6587 54.3013 41.5317 54.0537 41.2778 53.9141C41.0282 53.7744 40.5986 53.7046 39.9893 53.7046H38.7324V55.5962ZM38.7324 58.5605H40.2368C40.8843 58.5605 41.3286 58.4865 41.5698 58.3384C41.811 58.186 41.938 57.9258 41.9507 57.5576C41.9507 57.3418 41.8809 57.1429 41.7412 56.9609C41.6016 56.7747 41.4196 56.6584 41.1953 56.6118C40.971 56.561 40.6113 56.5356 40.1162 56.5356H38.7324V58.5605Z" fill="#009646"/>
<path d="M44.4961 52.7588H45.6387V55.5645H48.8062V52.7588H49.9487V59.5H48.8062V56.5103H45.6387V59.5H44.4961V52.7588Z" fill="#009646"/>
<path d="M56.0742 58.6685C55.651 59.0282 55.2427 59.2821 54.8491 59.4302C54.4598 59.5783 54.0409 59.6523 53.5923 59.6523C52.8517 59.6523 52.2826 59.4725 51.8848 59.1128C51.487 58.7489 51.2881 58.2855 51.2881 57.7227C51.2881 57.3926 51.3621 57.0921 51.5103 56.8213C51.6626 56.5462 51.8594 56.3262 52.1006 56.1611C52.346 55.9961 52.6211 55.8713 52.9258 55.7866C53.1501 55.7274 53.4886 55.6702 53.9414 55.6152C54.8639 55.5052 55.5431 55.374 55.979 55.2217C55.9832 55.0651 55.9854 54.9657 55.9854 54.9233C55.9854 54.4578 55.8774 54.1299 55.6616 53.9395C55.3696 53.6813 54.9359 53.5522 54.3604 53.5522C53.8229 53.5522 53.4251 53.6475 53.167 53.8379C52.9131 54.0241 52.7248 54.3563 52.6021 54.8345L51.4849 54.6821C51.5864 54.2039 51.7536 53.8188 51.9863 53.5269C52.2191 53.2306 52.5555 53.0042 52.9956 52.8477C53.4357 52.6868 53.9456 52.6064 54.5254 52.6064C55.1009 52.6064 55.5685 52.6742 55.9282 52.8096C56.2879 52.945 56.5524 53.1164 56.7217 53.3237C56.891 53.5269 57.0094 53.785 57.0771 54.0981C57.1152 54.2928 57.1343 54.644 57.1343 55.1519V56.6753C57.1343 57.7375 57.1576 58.4103 57.2041 58.6938C57.2549 58.9731 57.3522 59.2419 57.4961 59.5H56.3027C56.1842 59.263 56.1081 58.9858 56.0742 58.6685ZM55.979 56.1167C55.5643 56.286 54.9422 56.4299 54.1128 56.5483C53.6431 56.616 53.3109 56.6922 53.1162 56.7769C52.9215 56.8615 52.7713 56.9863 52.6655 57.1514C52.5597 57.3122 52.5068 57.492 52.5068 57.6909C52.5068 57.9956 52.6211 58.2495 52.8496 58.4526C53.0824 58.6558 53.4209 58.7573 53.8652 58.7573C54.3053 58.7573 54.6968 58.6621 55.0396 58.4717C55.3823 58.277 55.6341 58.0125 55.7949 57.6782C55.9176 57.4201 55.979 57.0392 55.979 56.5356V56.1167Z" fill="#009646"/>
</svg>
