<svg width="296" height="76" viewBox="0 0 296 76" fill="none" xmlns="http://www.w3.org/2000/svg">
<g clip-path="url(#clip0_3_172)">
<path d="M37 13.5C28.163 13.5 21 20.663 21 29.5C21 38.337 28.163 45.5 37 45.5C45.837 45.5 53 38.337 53 29.5C52.974 20.674 45.826 13.526 37 13.5Z" fill="#14AA5A"/>
<path fill-rule="evenodd" clip-rule="evenodd" d="M37 42.5C44.1797 42.5 50 36.6797 50 29.5C50 22.3203 44.1797 16.5 37 16.5C29.8203 16.5 24 22.3203 24 29.5C24 36.6797 29.8203 42.5 37 42.5ZM37 43.5C44.732 43.5 51 37.232 51 29.5C51 21.768 44.732 15.5 37 15.5C29.268 15.5 23 21.768 23 29.5C23 37.232 29.268 43.5 37 43.5Z" fill="#FFFAD9"/>
<path d="M37.6426 36.6758C37.1445 36.6758 36.793 36.3047 36.793 35.7676V24.332H36.7539L34.1172 26.1777C33.9219 26.3145 33.7363 26.3828 33.5215 26.3828C33.1113 26.3828 32.8281 26.0898 32.8281 25.6602C32.8281 25.3477 32.9453 25.1426 33.3164 24.8789L36.334 22.7207C36.8809 22.3301 37.1152 22.2324 37.5156 22.2324C38.1211 22.2324 38.4922 22.6035 38.4922 23.2188V35.7676C38.4922 36.3047 38.1406 36.6758 37.6426 36.6758Z" fill="#FFFAD9"/>
<path opacity="0.7" d="M162 29.5C162 37.232 155.732 43.5 148 43.5C140.268 43.5 134 37.232 134 29.5C134 21.768 140.268 15.5 148 15.5C155.732 15.5 162 21.768 162 29.5Z" fill="#424242" fill-opacity="0.5"/>
<path d="M144.279 36.5C143.762 36.5 143.43 36.2168 143.43 35.7773C143.43 35.416 143.508 35.2598 143.928 34.8203L148.439 30.1133C150.334 28.1309 150.783 27.3789 150.783 26.1973C150.783 24.7617 149.68 23.707 148.166 23.707C146.643 23.707 145.578 24.498 145.1 26.0117C144.982 26.373 144.787 26.627 144.309 26.627C143.791 26.627 143.498 26.3047 143.498 25.8457C143.498 25.7188 143.508 25.6113 143.527 25.4941C143.732 24.0488 145.285 22.1738 148.166 22.1738C150.705 22.1738 152.541 23.8145 152.541 26.0898C152.541 27.6328 151.838 28.7949 149.426 31.2656L145.891 34.8984V34.9375H152.043C152.541 34.9375 152.873 35.25 152.873 35.7188C152.873 36.1875 152.541 36.5 152.043 36.5H144.279Z" fill="#FFFAD9"/>
<path opacity="0.7" d="M273 29.5C273 37.232 266.732 43.5 259 43.5C251.268 43.5 245 37.232 245 29.5C245 21.768 251.268 15.5 259 15.5C266.732 15.5 273 21.768 273 29.5Z" fill="#424242" fill-opacity="0.5"/>
<path d="M258.971 36.7344C256.871 36.7344 255.348 35.9824 254.498 34.5371C254.273 34.1465 254.176 33.7949 254.176 33.4141C254.176 32.9258 254.479 32.5938 254.986 32.5938C255.387 32.5938 255.611 32.8086 255.797 33.2871C256.266 34.498 257.271 35.2109 258.971 35.2109C260.826 35.2109 262.066 34.1562 262.076 32.6816C262.086 30.9434 260.846 29.9668 258.863 29.9668H257.74C257.271 29.9668 256.949 29.6641 256.949 29.2246C256.949 28.7852 257.271 28.4824 257.74 28.4824H258.785C260.465 28.4824 261.637 27.4473 261.637 26.041C261.637 24.6445 260.758 23.6973 258.951 23.6973C257.398 23.6973 256.549 24.3516 256.041 25.6309C255.865 26.1387 255.689 26.3242 255.25 26.3242C254.752 26.3242 254.469 26.0312 254.469 25.5234C254.469 25.123 254.557 24.7715 254.762 24.3906C255.504 22.9844 256.998 22.1738 258.951 22.1738C261.773 22.1738 263.404 23.7949 263.404 25.8066C263.404 27.5547 262.184 28.7559 260.416 29.127V29.166C262.467 29.3418 263.863 30.6211 263.863 32.623C263.863 35.0449 261.734 36.7344 258.971 36.7344Z" fill="#FFFAD9"/>
<path d="M15.6426 56.2373L16.874 56.5483C16.6159 57.5597 16.1504 58.332 15.4775 58.8652C14.8089 59.3942 13.9901 59.6587 13.021 59.6587C12.0181 59.6587 11.2013 59.4556 10.5708 59.0493C9.9445 58.6388 9.46631 58.0464 9.13623 57.272C8.81038 56.4976 8.64746 55.666 8.64746 54.7773C8.64746 53.8083 8.83154 52.964 9.19971 52.2446C9.5721 51.521 10.099 50.973 10.7803 50.6006C11.4658 50.224 12.2191 50.0356 13.04 50.0356C13.971 50.0356 14.7539 50.2726 15.3887 50.7466C16.0234 51.2205 16.4657 51.887 16.7153 52.7461L15.5029 53.0317C15.2871 52.3547 14.974 51.8617 14.5635 51.5527C14.153 51.2438 13.6367 51.0894 13.0146 51.0894C12.2995 51.0894 11.7007 51.2607 11.2183 51.6035C10.7401 51.9463 10.4037 52.4076 10.209 52.9873C10.0143 53.5628 9.91699 54.1574 9.91699 54.771C9.91699 55.5623 10.0312 56.2542 10.2598 56.8467C10.4925 57.4349 10.8522 57.875 11.3389 58.167C11.8255 58.459 12.3524 58.605 12.9194 58.605C13.6092 58.605 14.1932 58.4061 14.6714 58.0083C15.1496 57.6105 15.4733 57.0202 15.6426 56.2373Z" fill="#009646"/>
<path d="M17.8262 56.1294C17.8262 54.881 18.1732 53.9564 18.8672 53.3555C19.4469 52.8561 20.1536 52.6064 20.9873 52.6064C21.9141 52.6064 22.6715 52.9111 23.2598 53.5205C23.848 54.1257 24.1421 54.9635 24.1421 56.0342C24.1421 56.9017 24.0109 57.5851 23.7485 58.0845C23.4904 58.5796 23.1117 58.9647 22.6123 59.2397C22.1172 59.5148 21.5755 59.6523 20.9873 59.6523C20.0436 59.6523 19.2798 59.3498 18.6958 58.7446C18.116 58.1395 17.8262 57.2677 17.8262 56.1294ZM19.0005 56.1294C19.0005 56.9927 19.1888 57.6401 19.5654 58.0718C19.9421 58.4992 20.416 58.7129 20.9873 58.7129C21.5544 58.7129 22.0262 58.4971 22.4028 58.0654C22.7795 57.6338 22.9678 56.9757 22.9678 56.0913C22.9678 55.2576 22.7773 54.6271 22.3965 54.1997C22.0199 53.7681 21.5501 53.5522 20.9873 53.5522C20.416 53.5522 19.9421 53.766 19.5654 54.1934C19.1888 54.6208 19.0005 55.2661 19.0005 56.1294Z" fill="#009646"/>
<path d="M26.8271 56.4531V55.5581C27.3096 55.5539 27.6375 55.5348 27.811 55.501C27.9888 55.4671 28.1559 55.3656 28.3125 55.1963C28.4691 55.027 28.5474 54.8154 28.5474 54.5615C28.5474 54.2526 28.4437 54.0072 28.2363 53.8252C28.0332 53.639 27.7687 53.5459 27.4429 53.5459C26.7996 53.5459 26.349 53.9246 26.0908 54.6821L25.0054 54.5044C25.3439 53.2391 26.1606 52.6064 27.4556 52.6064C28.175 52.6064 28.7378 52.8032 29.144 53.1968C29.5545 53.5903 29.7598 54.0601 29.7598 54.606C29.7598 55.1561 29.4932 55.5941 28.96 55.9199C29.2985 56.1019 29.5524 56.3346 29.7217 56.6182C29.891 56.8975 29.9756 57.2297 29.9756 57.6147C29.9756 58.2199 29.7555 58.7108 29.3154 59.0874C28.8753 59.464 28.2596 59.6523 27.4683 59.6523C25.9321 59.6523 25.0413 58.9689 24.7959 57.6021L25.8687 57.3735C25.966 57.8052 26.1628 58.1395 26.459 58.3765C26.7594 58.6134 27.1022 58.7319 27.4873 58.7319C27.8724 58.7319 28.1919 58.624 28.4458 58.4082C28.7039 58.1882 28.833 57.9089 28.833 57.5703C28.833 57.3079 28.7526 57.0794 28.5918 56.8848C28.431 56.6901 28.2596 56.5695 28.0776 56.5229C27.8957 56.4722 27.5656 56.4468 27.0874 56.4468C27.0493 56.4468 26.9626 56.4489 26.8271 56.4531Z" fill="#009646"/>
<path d="M31.9116 52.7588H36.6089V58.5605H37.3389V61.4106H36.3994V59.5H31.0928V61.4106H30.1533V58.5605H30.7563C31.5604 57.4688 31.9455 55.5348 31.9116 52.7588ZM32.8638 53.7046C32.7791 55.8924 32.4406 57.5111 31.8481 58.5605H35.4727V53.7046H32.8638Z" fill="#009646"/>
<path d="M43.001 58.6685C42.5778 59.0282 42.1694 59.2821 41.7759 59.4302C41.3866 59.5783 40.9676 59.6523 40.519 59.6523C39.7785 59.6523 39.2093 59.4725 38.8115 59.1128C38.4137 58.7489 38.2148 58.2855 38.2148 57.7227C38.2148 57.3926 38.2889 57.0921 38.437 56.8213C38.5894 56.5462 38.7861 56.3262 39.0273 56.1611C39.2728 55.9961 39.5479 55.8713 39.8525 55.7866C40.0768 55.7274 40.4154 55.6702 40.8682 55.6152C41.7907 55.5052 42.4699 55.374 42.9058 55.2217C42.91 55.0651 42.9121 54.9657 42.9121 54.9233C42.9121 54.4578 42.8042 54.1299 42.5884 53.9395C42.2964 53.6813 41.8626 53.5522 41.2871 53.5522C40.7497 53.5522 40.3519 53.6475 40.0938 53.8379C39.8398 54.0241 39.6515 54.3563 39.5288 54.8345L38.4116 54.6821C38.5132 54.2039 38.6803 53.8188 38.9131 53.5269C39.1458 53.2306 39.4823 53.0042 39.9224 52.8477C40.3625 52.6868 40.8724 52.6064 41.4521 52.6064C42.0277 52.6064 42.4953 52.6742 42.855 52.8096C43.2147 52.945 43.4792 53.1164 43.6484 53.3237C43.8177 53.5269 43.9362 53.785 44.0039 54.0981C44.042 54.2928 44.061 54.644 44.061 55.1519V56.6753C44.061 57.7375 44.0843 58.4103 44.1309 58.6938C44.1816 58.9731 44.279 59.2419 44.4229 59.5H43.2295C43.111 59.263 43.0348 58.9858 43.001 58.6685ZM42.9058 56.1167C42.491 56.286 41.869 56.4299 41.0396 56.5483C40.5698 56.616 40.2376 56.6922 40.043 56.7769C39.8483 56.8615 39.6981 56.9863 39.5923 57.1514C39.4865 57.3122 39.4336 57.492 39.4336 57.6909C39.4336 57.9956 39.5479 58.2495 39.7764 58.4526C40.0091 58.6558 40.3477 58.7573 40.792 58.7573C41.2321 58.7573 41.6235 58.6621 41.9663 58.4717C42.3091 58.277 42.5609 58.0125 42.7217 57.6782C42.8444 57.4201 42.9058 57.0392 42.9058 56.5356V56.1167Z" fill="#009646"/>
<path d="M45.8447 52.7588H46.9873V55.5645H50.1548V52.7588H51.2974V59.5H50.1548V56.5103H46.9873V59.5H45.8447V52.7588Z" fill="#009646"/>
<path d="M53.0239 52.7588H54.1665V57.9004L57.334 52.7588H58.5654V59.5H57.4229V54.3901L54.2554 59.5H53.0239V52.7588Z" fill="#009646"/>
<path d="M64.9004 57.3291L66.0811 57.4751C65.8949 58.1649 65.55 58.7002 65.0464 59.0811C64.5428 59.4619 63.8996 59.6523 63.1167 59.6523C62.1307 59.6523 61.3478 59.3498 60.7681 58.7446C60.1925 58.1353 59.9048 57.2826 59.9048 56.1865C59.9048 55.0524 60.1968 54.1722 60.7808 53.5459C61.3647 52.9196 62.1222 52.6064 63.0532 52.6064C63.9546 52.6064 64.6909 52.9132 65.2622 53.5269C65.8335 54.1405 66.1191 55.0037 66.1191 56.1167C66.1191 56.1844 66.117 56.286 66.1128 56.4214H61.0854C61.1278 57.1619 61.3372 57.729 61.7139 58.1226C62.0905 58.5161 62.5602 58.7129 63.123 58.7129C63.542 58.7129 63.8996 58.6029 64.1958 58.3828C64.492 58.1628 64.7269 57.8115 64.9004 57.3291ZM61.1489 55.4819H64.9131C64.8623 54.9149 64.7184 54.4896 64.4814 54.2061C64.1175 53.766 63.6457 53.5459 63.0659 53.5459C62.5412 53.5459 62.099 53.7215 61.7393 54.0728C61.3838 54.424 61.187 54.8937 61.1489 55.4819Z" fill="#009646"/>
<path d="M112 50.1943H119.318V59.5H118.081V51.2925H113.231V59.5H112V50.1943Z" fill="#424242" fill-opacity="0.5"/>
<path d="M120.759 56.1294C120.759 54.881 121.106 53.9564 121.8 53.3555C122.38 52.8561 123.087 52.6064 123.921 52.6064C124.847 52.6064 125.605 52.9111 126.193 53.5205C126.781 54.1257 127.075 54.9635 127.075 56.0342C127.075 56.9017 126.944 57.5851 126.682 58.0845C126.424 58.5796 126.045 58.9647 125.546 59.2397C125.05 59.5148 124.509 59.6523 123.921 59.6523C122.977 59.6523 122.213 59.3498 121.629 58.7446C121.049 58.1395 120.759 57.2677 120.759 56.1294ZM121.934 56.1294C121.934 56.9927 122.122 57.6401 122.499 58.0718C122.875 58.4992 123.349 58.7129 123.921 58.7129C124.488 58.7129 124.959 58.4971 125.336 58.0654C125.713 57.6338 125.901 56.9757 125.901 56.0913C125.901 55.2576 125.711 54.6271 125.33 54.1997C124.953 53.7681 124.483 53.5522 123.921 53.5522C123.349 53.5522 122.875 53.766 122.499 54.1934C122.122 54.6208 121.934 55.2661 121.934 56.1294Z" fill="#424242" fill-opacity="0.5"/>
<path d="M129.03 52.7588H133.728V58.5605H134.458V61.4106H133.518V59.5H128.212V61.4106H127.272V58.5605H127.875C128.679 57.4688 129.064 55.5348 129.03 52.7588ZM129.983 53.7046C129.898 55.8924 129.559 57.5111 128.967 58.5605H132.591V53.7046H129.983Z" fill="#424242" fill-opacity="0.5"/>
<path d="M135.727 52.7588H141.046V59.5H139.904V53.7046H136.87V59.5H135.727V52.7588Z" fill="#424242" fill-opacity="0.5"/>
<path d="M142.767 52.7588H143.909V57.9004L147.077 52.7588H148.308V59.5H147.166V54.3901L143.998 59.5H142.767V52.7588Z" fill="#424242" fill-opacity="0.5"/>
<path d="M154.427 57.0308L155.551 57.1768C155.428 57.9512 155.113 58.5584 154.605 58.9985C154.102 59.4344 153.482 59.6523 152.745 59.6523C151.823 59.6523 151.08 59.3519 150.517 58.751C149.959 58.1458 149.679 57.2804 149.679 56.1548C149.679 55.4269 149.8 54.79 150.041 54.2441C150.282 53.6982 150.648 53.2899 151.139 53.019C151.634 52.744 152.172 52.6064 152.752 52.6064C153.484 52.6064 154.082 52.7926 154.548 53.165C155.013 53.5332 155.312 54.0579 155.443 54.7393L154.332 54.9106C154.226 54.4578 154.038 54.1172 153.767 53.8887C153.501 53.6602 153.177 53.5459 152.796 53.5459C152.22 53.5459 151.753 53.7533 151.393 54.168C151.033 54.5785 150.854 55.2301 150.854 56.123C150.854 57.0286 151.027 57.6867 151.374 58.0972C151.721 58.5076 152.174 58.7129 152.733 58.7129C153.181 58.7129 153.556 58.5754 153.856 58.3003C154.157 58.0252 154.347 57.6021 154.427 57.0308Z" fill="#424242" fill-opacity="0.5"/>
<path d="M160.927 58.6685C160.504 59.0282 160.096 59.2821 159.702 59.4302C159.313 59.5783 158.894 59.6523 158.445 59.6523C157.705 59.6523 157.136 59.4725 156.738 59.1128C156.34 58.7489 156.141 58.2855 156.141 57.7227C156.141 57.3926 156.215 57.0921 156.363 56.8213C156.516 56.5462 156.713 56.3262 156.954 56.1611C157.199 55.9961 157.474 55.8713 157.779 55.7866C158.003 55.7274 158.342 55.6702 158.795 55.6152C159.717 55.5052 160.396 55.374 160.832 55.2217C160.836 55.0651 160.838 54.9657 160.838 54.9233C160.838 54.4578 160.731 54.1299 160.515 53.9395C160.223 53.6813 159.789 53.5522 159.213 53.5522C158.676 53.5522 158.278 53.6475 158.02 53.8379C157.766 54.0241 157.578 54.3563 157.455 54.8345L156.338 54.6821C156.44 54.2039 156.607 53.8188 156.839 53.5269C157.072 53.2306 157.409 53.0042 157.849 52.8477C158.289 52.6868 158.799 52.6064 159.379 52.6064C159.954 52.6064 160.422 52.6742 160.781 52.8096C161.141 52.945 161.406 53.1164 161.575 53.3237C161.744 53.5269 161.863 53.785 161.93 54.0981C161.968 54.2928 161.987 54.644 161.987 55.1519V56.6753C161.987 57.7375 162.011 58.4103 162.057 58.6938C162.108 58.9731 162.205 59.2419 162.349 59.5H161.156C161.037 59.263 160.961 58.9858 160.927 58.6685ZM160.832 56.1167C160.417 56.286 159.795 56.4299 158.966 56.5483C158.496 56.616 158.164 56.6922 157.969 56.7769C157.775 56.8615 157.624 56.9863 157.519 57.1514C157.413 57.3122 157.36 57.492 157.36 57.6909C157.36 57.9956 157.474 58.2495 157.703 58.4526C157.935 58.6558 158.274 58.7573 158.718 58.7573C159.158 58.7573 159.55 58.6621 159.893 58.4717C160.235 58.277 160.487 58.0125 160.648 57.6782C160.771 57.4201 160.832 57.0392 160.832 56.5356V56.1167Z" fill="#424242" fill-opacity="0.5"/>
<path d="M163.771 52.7588H164.914V55.5645H168.081V52.7588H169.224V59.5H168.081V56.5103H164.914V59.5H163.771V52.7588Z" fill="#424242" fill-opacity="0.5"/>
<path d="M170.95 52.7588H172.093V57.9004L175.26 52.7588H176.492V59.5H175.349V54.3901L172.182 59.5H170.95V52.7588Z" fill="#424242" fill-opacity="0.5"/>
<path d="M182.827 57.3291L184.007 57.4751C183.821 58.1649 183.476 58.7002 182.973 59.0811C182.469 59.4619 181.826 59.6523 181.043 59.6523C180.057 59.6523 179.274 59.3498 178.694 58.7446C178.119 58.1353 177.831 57.2826 177.831 56.1865C177.831 55.0524 178.123 54.1722 178.707 53.5459C179.291 52.9196 180.049 52.6064 180.98 52.6064C181.881 52.6064 182.617 52.9132 183.189 53.5269C183.76 54.1405 184.046 55.0037 184.046 56.1167C184.046 56.1844 184.043 56.286 184.039 56.4214H179.012C179.054 57.1619 179.264 57.729 179.64 58.1226C180.017 58.5161 180.487 58.7129 181.049 58.7129C181.468 58.7129 181.826 58.6029 182.122 58.3828C182.418 58.1628 182.653 57.8115 182.827 57.3291ZM179.075 55.4819H182.839C182.789 54.9149 182.645 54.4896 182.408 54.2061C182.044 53.766 181.572 53.5459 180.992 53.5459C180.468 53.5459 180.025 53.7215 179.666 54.0728C179.31 54.424 179.113 54.8937 179.075 55.4819Z" fill="#424242" fill-opacity="0.5"/>
<path d="M222 59.5V50.1943H225.51C226.128 50.1943 226.6 50.224 226.926 50.2832C227.383 50.3594 227.766 50.5054 228.075 50.7212C228.384 50.9328 228.631 51.2311 228.817 51.6162C229.008 52.0013 229.103 52.4245 229.103 52.8857C229.103 53.6771 228.851 54.3478 228.348 54.8979C227.844 55.4438 226.934 55.7168 225.618 55.7168H223.231V59.5H222ZM223.231 54.6187H225.637C226.433 54.6187 226.998 54.4705 227.332 54.1743C227.666 53.8781 227.833 53.4613 227.833 52.9238C227.833 52.5345 227.734 52.2023 227.535 51.9272C227.34 51.6479 227.082 51.4639 226.761 51.375C226.553 51.32 226.17 51.2925 225.612 51.2925H223.231V54.6187Z" fill="#424242" fill-opacity="0.5"/>
<path d="M234.568 57.3291L235.749 57.4751C235.563 58.1649 235.218 58.7002 234.714 59.0811C234.211 59.4619 233.567 59.6523 232.785 59.6523C231.799 59.6523 231.016 59.3498 230.436 58.7446C229.86 58.1353 229.573 57.2826 229.573 56.1865C229.573 55.0524 229.865 54.1722 230.449 53.5459C231.033 52.9196 231.79 52.6064 232.721 52.6064C233.622 52.6064 234.359 52.9132 234.93 53.5269C235.501 54.1405 235.787 55.0037 235.787 56.1167C235.787 56.1844 235.785 56.286 235.781 56.4214H230.753C230.796 57.1619 231.005 57.729 231.382 58.1226C231.758 58.5161 232.228 58.7129 232.791 58.7129C233.21 58.7129 233.567 58.6029 233.864 58.3828C234.16 58.1628 234.395 57.8115 234.568 57.3291ZM230.817 55.4819H234.581C234.53 54.9149 234.386 54.4896 234.149 54.2061C233.785 53.766 233.314 53.5459 232.734 53.5459C232.209 53.5459 231.767 53.7215 231.407 54.0728C231.052 54.424 230.855 54.8937 230.817 55.4819Z" fill="#424242" fill-opacity="0.5"/>
<path d="M237.196 52.7588H241.075V53.7046H238.339V59.5H237.196V52.7588Z" fill="#424242" fill-opacity="0.5"/>
<path d="M241.938 52.7588H243.08V57.9004L246.248 52.7588H247.479V59.5H246.337V54.3901L243.169 59.5H241.938V52.7588Z" fill="#424242" fill-opacity="0.5"/>
<path d="M253.599 57.0308L254.722 57.1768C254.599 57.9512 254.284 58.5584 253.776 58.9985C253.273 59.4344 252.653 59.6523 251.916 59.6523C250.994 59.6523 250.251 59.3519 249.688 58.751C249.13 58.1458 248.851 57.2804 248.851 56.1548C248.851 55.4269 248.971 54.79 249.212 54.2441C249.454 53.6982 249.82 53.2899 250.31 53.019C250.806 52.744 251.343 52.6064 251.923 52.6064C252.655 52.6064 253.254 52.7926 253.719 53.165C254.185 53.5332 254.483 54.0579 254.614 54.7393L253.503 54.9106C253.398 54.4578 253.209 54.1172 252.938 53.8887C252.672 53.6602 252.348 53.5459 251.967 53.5459C251.392 53.5459 250.924 53.7533 250.564 54.168C250.205 54.5785 250.025 55.2301 250.025 56.123C250.025 57.0286 250.198 57.6867 250.545 58.0972C250.892 58.5076 251.345 58.7129 251.904 58.7129C252.352 58.7129 252.727 58.5754 253.027 58.3003C253.328 58.0252 253.518 57.6021 253.599 57.0308Z" fill="#424242" fill-opacity="0.5"/>
<path d="M255.084 52.7588H260.562V53.7046H258.391V59.5H257.255V53.7046H255.084V52.7588Z" fill="#424242" fill-opacity="0.5"/>
<path d="M261.654 62.0835V52.7588H262.695V53.6348C262.94 53.292 263.217 53.036 263.526 52.8667C263.835 52.6932 264.21 52.6064 264.65 52.6064C265.225 52.6064 265.733 52.7546 266.173 53.0508C266.613 53.347 266.946 53.766 267.17 54.3076C267.394 54.8451 267.506 55.4354 267.506 56.0786C267.506 56.7684 267.381 57.3905 267.132 57.9448C266.886 58.495 266.527 58.9181 266.053 59.2144C265.583 59.5063 265.088 59.6523 264.567 59.6523C264.186 59.6523 263.844 59.5719 263.539 59.4111C263.239 59.2503 262.991 59.0472 262.796 58.8018V62.0835H261.654ZM262.688 56.1675C262.688 57.035 262.864 57.6761 263.215 58.0908C263.566 58.5055 263.992 58.7129 264.491 58.7129C264.999 58.7129 265.433 58.4992 265.792 58.0718C266.156 57.6401 266.338 56.9736 266.338 56.0723C266.338 55.2132 266.161 54.57 265.805 54.1426C265.454 53.7152 265.033 53.5015 264.542 53.5015C264.055 53.5015 263.624 53.73 263.247 54.187C262.875 54.6398 262.688 55.3 262.688 56.1675Z" fill="#424242" fill-opacity="0.5"/>
<path d="M273.289 58.6685C272.866 59.0282 272.457 59.2821 272.064 59.4302C271.675 59.5783 271.256 59.6523 270.807 59.6523C270.066 59.6523 269.497 59.4725 269.1 59.1128C268.702 58.7489 268.503 58.2855 268.503 57.7227C268.503 57.3926 268.577 57.0921 268.725 56.8213C268.877 56.5462 269.074 56.3262 269.315 56.1611C269.561 55.9961 269.836 55.8713 270.141 55.7866C270.365 55.7274 270.703 55.6702 271.156 55.6152C272.079 55.5052 272.758 55.374 273.194 55.2217C273.198 55.0651 273.2 54.9657 273.2 54.9233C273.2 54.4578 273.092 54.1299 272.876 53.9395C272.584 53.6813 272.151 53.5522 271.575 53.5522C271.038 53.5522 270.64 53.6475 270.382 53.8379C270.128 54.0241 269.94 54.3563 269.817 54.8345L268.7 54.6821C268.801 54.2039 268.968 53.8188 269.201 53.5269C269.434 53.2306 269.77 53.0042 270.21 52.8477C270.65 52.6868 271.16 52.6064 271.74 52.6064C272.316 52.6064 272.783 52.6742 273.143 52.8096C273.503 52.945 273.767 53.1164 273.936 53.3237C274.106 53.5269 274.224 53.785 274.292 54.0981C274.33 54.2928 274.349 54.644 274.349 55.1519V56.6753C274.349 57.7375 274.372 58.4103 274.419 58.6938C274.47 58.9731 274.567 59.2419 274.711 59.5H273.518C273.399 59.263 273.323 58.9858 273.289 58.6685ZM273.194 56.1167C272.779 56.286 272.157 56.4299 271.328 56.5483C270.858 56.616 270.526 56.6922 270.331 56.7769C270.136 56.8615 269.986 56.9863 269.88 57.1514C269.775 57.3122 269.722 57.492 269.722 57.6909C269.722 57.9956 269.836 58.2495 270.064 58.4526C270.297 58.6558 270.636 58.7573 271.08 58.7573C271.52 58.7573 271.912 58.6621 272.254 58.4717C272.597 58.277 272.849 58.0125 273.01 57.6782C273.132 57.4201 273.194 57.0392 273.194 56.5356V56.1167Z" fill="#424242" fill-opacity="0.5"/>
<path d="M276.145 52.7588H277.288V58.5605H280.449V52.7588H281.592V58.5605H282.328V61.4106H281.389V59.5H276.145V52.7588Z" fill="#424242" fill-opacity="0.5"/>
<path d="M283.579 52.7588H284.721V57.9004L287.889 52.7588H289.12V59.5H287.977V54.3901L284.81 59.5H283.579V52.7588Z" fill="#424242" fill-opacity="0.5"/>
<path d="M296.147 52.7588V59.5H295.011V56.8721H294.351C293.948 56.8721 293.648 56.925 293.449 57.0308C293.254 57.1323 292.969 57.4645 292.592 58.0273L291.596 59.5H290.18L291.412 57.6846C291.788 57.1302 292.163 56.8171 292.535 56.7451C291.883 56.6562 291.399 56.4214 291.081 56.0405C290.768 55.6597 290.612 55.2217 290.612 54.7266C290.612 54.1426 290.817 53.6686 291.227 53.3047C291.642 52.9408 292.241 52.7588 293.024 52.7588H296.147ZM295.011 53.7046H293.386C292.704 53.7046 292.264 53.8104 292.065 54.022C291.871 54.2336 291.773 54.4811 291.773 54.7646C291.773 55.1667 291.917 55.4629 292.205 55.6533C292.497 55.8395 293.011 55.9326 293.747 55.9326H295.011V53.7046Z" fill="#424242" fill-opacity="0.5"/>
<path opacity="0.7" d="M53 28.5H132V30.5H53V28.5Z" fill="#424242" fill-opacity="0.5"/>
<path opacity="0.7" d="M164 28.5H243V30.5H164V28.5Z" fill="#424242" fill-opacity="0.5"/>
</g>
<defs>
<clipPath id="clip0_3_172">
<rect width="296" height="76" fill="white"/>
</clipPath>
</defs>
</svg>
