<svg width="288" height="76" viewBox="0 0 288 76" fill="none" xmlns="http://www.w3.org/2000/svg">
<path d="M10.9951 56.2373L12.2266 56.5483C11.9684 57.5597 11.5029 58.332 10.8301 58.8652C10.1615 59.3942 9.34261 59.6587 8.37354 59.6587C7.37061 59.6587 6.55387 59.4556 5.92334 59.0493C5.29704 58.6388 4.81885 58.0464 4.48877 57.272C4.16292 56.4976 4 55.666 4 54.7773C4 53.8083 4.18408 52.964 4.55225 52.2446C4.92464 51.521 5.4515 50.973 6.13281 50.6006C6.81836 50.224 7.57162 50.0356 8.39258 50.0356C9.32357 50.0356 10.1064 50.2726 10.7412 50.7466C11.376 51.2205 11.8182 51.887 12.0679 52.7461L10.8555 53.0317C10.6396 52.3547 10.3265 51.8617 9.91602 51.5527C9.50553 51.2438 8.98926 51.0894 8.36719 51.0894C7.65202 51.0894 7.05322 51.2607 6.5708 51.6035C6.09261 51.9463 5.75619 52.4076 5.56152 52.9873C5.36686 53.5628 5.26953 54.1574 5.26953 54.771C5.26953 55.5623 5.38379 56.2542 5.61231 56.8467C5.84505 57.4349 6.20475 57.875 6.69141 58.167C7.17806 58.459 7.70492 58.605 8.27197 58.605C8.96175 58.605 9.54574 58.4061 10.0239 58.0083C10.5021 57.6105 10.8258 57.0202 10.9951 56.2373Z" fill="#009646"/>
<path d="M13.1787 56.1294C13.1787 54.881 13.5257 53.9564 14.2197 53.3555C14.7994 52.8561 15.5061 52.6064 16.3398 52.6064C17.2666 52.6064 18.024 52.9111 18.6123 53.5205C19.2005 54.1257 19.4946 54.9635 19.4946 56.0342C19.4946 56.9017 19.3634 57.5851 19.101 58.0845C18.8429 58.5796 18.4642 58.9647 17.9648 59.2397C17.4697 59.5148 16.928 59.6523 16.3398 59.6523C15.3961 59.6523 14.6323 59.3498 14.0483 58.7446C13.4685 58.1395 13.1787 57.2677 13.1787 56.1294ZM14.353 56.1294C14.353 56.9927 14.5413 57.6401 14.9179 58.0718C15.2946 58.4992 15.7685 58.7129 16.3398 58.7129C16.9069 58.7129 17.3787 58.4971 17.7553 58.0654C18.132 57.6338 18.3203 56.9757 18.3203 56.0913C18.3203 55.2576 18.1298 54.6271 17.749 54.1997C17.3724 53.7681 16.9026 53.5522 16.3398 53.5522C15.7685 53.5522 15.2946 53.766 14.9179 54.1934C14.5413 54.6208 14.353 55.2661 14.353 56.1294Z" fill="#009646"/>
<path d="M22.1796 56.4531V55.5581C22.6621 55.5539 22.99 55.5348 23.1635 55.501C23.3413 55.4671 23.5084 55.3656 23.665 55.1963C23.8216 55.027 23.8999 54.8154 23.8999 54.5615C23.8999 54.2526 23.7962 54.0072 23.5888 53.8252C23.3857 53.639 23.1212 53.5459 22.7954 53.5459C22.1521 53.5459 21.7015 53.9246 21.4433 54.6821L20.3579 54.5044C20.6964 53.2391 21.5131 52.6064 22.8081 52.6064C23.5275 52.6064 24.0903 52.8032 24.4965 53.1968C24.907 53.5903 25.1123 54.0601 25.1123 54.606C25.1123 55.1561 24.8457 55.5941 24.3125 55.9199C24.651 56.1019 24.9049 56.3346 25.0742 56.6182C25.2435 56.8975 25.3281 57.2297 25.3281 57.6147C25.3281 58.2199 25.108 58.7108 24.6679 59.0874C24.2278 59.464 23.6121 59.6523 22.8208 59.6523C21.2846 59.6523 20.3938 58.9689 20.1484 57.6021L21.2212 57.3735C21.3185 57.8052 21.5153 58.1395 21.8115 58.3765C22.1119 58.6134 22.4547 58.7319 22.8398 58.7319C23.2249 58.7319 23.5444 58.624 23.7983 58.4082C24.0564 58.1882 24.1855 57.9089 24.1855 57.5703C24.1855 57.3079 24.1051 57.0794 23.9443 56.8848C23.7835 56.6901 23.6121 56.5695 23.4301 56.5229C23.2482 56.4722 22.9181 56.4468 22.4399 56.4468C22.4018 56.4468 22.3151 56.4489 22.1796 56.4531Z" fill="#009646"/>
<path d="M27.2642 52.7588H31.9615V58.5605H32.6915V61.4106H31.752V59.5H26.4454V61.4106H25.5059V58.5605H26.1089C26.913 57.4688 27.2981 55.5348 27.2642 52.7588ZM28.2164 53.7046C28.1317 55.8924 27.7932 57.5111 27.2007 58.5605H30.8253V53.7046H28.2164Z" fill="#009646"/>
<path d="M38.3535 58.6685C37.9303 59.0282 37.5219 59.2821 37.1284 59.4302C36.7391 59.5783 36.3201 59.6523 35.8715 59.6523C35.131 59.6523 34.5618 59.4725 34.164 59.1128C33.7662 58.7489 33.5673 58.2855 33.5673 57.7227C33.5673 57.3926 33.6414 57.0921 33.7895 56.8213C33.9419 56.5462 34.1386 56.3262 34.3798 56.1611C34.6253 55.9961 34.9004 55.8713 35.205 55.7866C35.4293 55.7274 35.7679 55.6702 36.2207 55.6152C37.1432 55.5052 37.8224 55.374 38.2583 55.2217C38.2625 55.0651 38.2646 54.9657 38.2646 54.9233C38.2646 54.4578 38.1567 54.1299 37.9409 53.9395C37.6489 53.6813 37.2151 53.5522 36.6396 53.5522C36.1022 53.5522 35.7044 53.6475 35.4463 53.8379C35.1923 54.0241 35.004 54.3563 34.8813 54.8345L33.7641 54.6821C33.8657 54.2039 34.0328 53.8188 34.2656 53.5269C34.4983 53.2306 34.8348 53.0042 35.2749 52.8477C35.715 52.6868 36.2249 52.6064 36.8046 52.6064C37.3802 52.6064 37.8478 52.6742 38.2075 52.8096C38.5672 52.945 38.8317 53.1164 39.0009 53.3237C39.1702 53.5269 39.2887 53.785 39.3564 54.0981C39.3945 54.2928 39.4135 54.644 39.4135 55.1519V56.6753C39.4135 57.7375 39.4368 58.4103 39.4834 58.6938C39.5341 58.9731 39.6315 59.2419 39.7754 59.5H38.582C38.4635 59.263 38.3873 58.9858 38.3535 58.6685ZM38.2583 56.1167C37.8435 56.286 37.2215 56.4299 36.3921 56.5483C35.9223 56.616 35.5901 56.6922 35.3955 56.7769C35.2008 56.8615 35.0506 56.9863 34.9448 57.1514C34.839 57.3122 34.7861 57.492 34.7861 57.6909C34.7861 57.9956 34.9004 58.2495 35.1289 58.4526C35.3616 58.6558 35.7002 58.7573 36.1445 58.7573C36.5846 58.7573 36.976 58.6621 37.3188 58.4717C37.6616 58.277 37.9134 58.0125 38.0742 57.6782C38.1969 57.4201 38.2583 57.0392 38.2583 56.5356V56.1167Z" fill="#009646"/>
<path d="M41.1971 52.7588H42.3397V55.5645H45.5072V52.7588H46.6498V59.5H45.5072V56.5103H42.3397V59.5H41.1971V52.7588Z" fill="#009646"/>
<path d="M52.7755 58.6685C52.3523 59.0282 51.9439 59.2821 51.5504 59.4302C51.161 59.5783 50.7421 59.6523 50.2935 59.6523C49.553 59.6523 48.9838 59.4725 48.586 59.1128C48.1882 58.7489 47.9893 58.2855 47.9893 57.7227C47.9893 57.3926 48.0634 57.0921 48.2115 56.8213C48.3638 56.5462 48.5606 56.3262 48.8018 56.1611C49.0473 55.9961 49.3223 55.8713 49.627 55.7866C49.8513 55.7274 50.1898 55.6702 50.6426 55.6152C51.5652 55.5052 52.2444 55.374 52.6802 55.2217C52.6845 55.0651 52.6866 54.9657 52.6866 54.9233C52.6866 54.4578 52.5787 54.1299 52.3629 53.9395C52.0709 53.6813 51.6371 53.5522 51.0616 53.5522C50.5241 53.5522 50.1264 53.6475 49.8682 53.8379C49.6143 54.0241 49.426 54.3563 49.3033 54.8345L48.1861 54.6821C48.2877 54.2039 48.4548 53.8188 48.6876 53.5269C48.9203 53.2306 49.2567 53.0042 49.6968 52.8477C50.1369 52.6868 50.6469 52.6064 51.2266 52.6064C51.8021 52.6064 52.2698 52.6742 52.6295 52.8096C52.9892 52.945 53.2536 53.1164 53.4229 53.3237C53.5922 53.5269 53.7107 53.785 53.7784 54.0981C53.8165 54.2928 53.8355 54.644 53.8355 55.1519V56.6753C53.8355 57.7375 53.8588 58.4103 53.9053 58.6938C53.9561 58.9731 54.0534 59.2419 54.1973 59.5H53.004C52.8855 59.263 52.8093 58.9858 52.7755 58.6685ZM52.6802 56.1167C52.2655 56.286 51.6435 56.4299 50.814 56.5483C50.3443 56.616 50.0121 56.6922 49.8174 56.7769C49.6228 56.8615 49.4726 56.9863 49.3668 57.1514C49.261 57.3122 49.2081 57.492 49.2081 57.6909C49.2081 57.9956 49.3223 58.2495 49.5508 58.4526C49.7836 58.6558 50.1221 58.7573 50.5665 58.7573C51.0066 58.7573 51.398 58.6621 51.7408 58.4717C52.0836 58.277 52.3353 58.0125 52.4962 57.6782C52.6189 57.4201 52.6802 57.0392 52.6802 56.5356V56.1167Z" fill="#009646"/>
<path d="M104 50.1943H111.318V59.5H110.081V51.2925H105.231V59.5H104V50.1943Z" fill="#424242" fill-opacity="0.5"/>
<path d="M112.759 56.1294C112.759 54.881 113.106 53.9564 113.8 53.3555C114.38 52.8561 115.087 52.6064 115.921 52.6064C116.847 52.6064 117.605 52.9111 118.193 53.5205C118.781 54.1257 119.075 54.9635 119.075 56.0342C119.075 56.9017 118.944 57.5851 118.682 58.0845C118.424 58.5796 118.045 58.9647 117.546 59.2397C117.05 59.5148 116.509 59.6523 115.921 59.6523C114.977 59.6523 114.213 59.3498 113.629 58.7446C113.049 58.1395 112.759 57.2677 112.759 56.1294ZM113.934 56.1294C113.934 56.9927 114.122 57.6401 114.499 58.0718C114.875 58.4992 115.349 58.7129 115.921 58.7129C116.488 58.7129 116.959 58.4971 117.336 58.0654C117.713 57.6338 117.901 56.9757 117.901 56.0913C117.901 55.2576 117.711 54.6271 117.33 54.1997C116.953 53.7681 116.483 53.5522 115.921 53.5522C115.349 53.5522 114.875 53.766 114.499 54.1934C114.122 54.6208 113.934 55.2661 113.934 56.1294Z" fill="#424242" fill-opacity="0.5"/>
<path d="M121.03 52.7588H125.728V58.5605H126.458V61.4106H125.518V59.5H120.212V61.4106H119.272V58.5605H119.875C120.679 57.4688 121.064 55.5348 121.03 52.7588ZM121.983 53.7046C121.898 55.8924 121.559 57.5111 120.967 58.5605H124.591V53.7046H121.983Z" fill="#424242" fill-opacity="0.5"/>
<path d="M127.727 52.7588H133.046V59.5H131.904V53.7046H128.87V59.5H127.727V52.7588Z" fill="#424242" fill-opacity="0.5"/>
<path d="M134.767 52.7588H135.909V57.9004L139.077 52.7588H140.308V59.5H139.166V54.3901L135.998 59.5H134.767V52.7588Z" fill="#424242" fill-opacity="0.5"/>
<path d="M146.427 57.0308L147.551 57.1768C147.428 57.9512 147.113 58.5584 146.605 58.9985C146.102 59.4344 145.482 59.6523 144.745 59.6523C143.823 59.6523 143.08 59.3519 142.517 58.751C141.959 58.1458 141.679 57.2804 141.679 56.1548C141.679 55.4269 141.8 54.79 142.041 54.2441C142.282 53.6982 142.648 53.2899 143.139 53.019C143.634 52.744 144.172 52.6064 144.752 52.6064C145.484 52.6064 146.082 52.7926 146.548 53.165C147.013 53.5332 147.312 54.0579 147.443 54.7393L146.332 54.9106C146.226 54.4578 146.038 54.1172 145.767 53.8887C145.501 53.6602 145.177 53.5459 144.796 53.5459C144.22 53.5459 143.753 53.7533 143.393 54.168C143.033 54.5785 142.854 55.2301 142.854 56.123C142.854 57.0286 143.027 57.6867 143.374 58.0972C143.721 58.5076 144.174 58.7129 144.733 58.7129C145.181 58.7129 145.556 58.5754 145.856 58.3003C146.157 58.0252 146.347 57.6021 146.427 57.0308Z" fill="#424242" fill-opacity="0.5"/>
<path d="M152.927 58.6685C152.504 59.0282 152.096 59.2821 151.702 59.4302C151.313 59.5783 150.894 59.6523 150.445 59.6523C149.705 59.6523 149.136 59.4725 148.738 59.1128C148.34 58.7489 148.141 58.2855 148.141 57.7227C148.141 57.3926 148.215 57.0921 148.363 56.8213C148.516 56.5462 148.713 56.3262 148.954 56.1611C149.199 55.9961 149.474 55.8713 149.779 55.7866C150.003 55.7274 150.342 55.6702 150.795 55.6152C151.717 55.5052 152.396 55.374 152.832 55.2217C152.836 55.0651 152.838 54.9657 152.838 54.9233C152.838 54.4578 152.731 54.1299 152.515 53.9395C152.223 53.6813 151.789 53.5522 151.213 53.5522C150.676 53.5522 150.278 53.6475 150.02 53.8379C149.766 54.0241 149.578 54.3563 149.455 54.8345L148.338 54.6821C148.44 54.2039 148.607 53.8188 148.839 53.5269C149.072 53.2306 149.409 53.0042 149.849 52.8477C150.289 52.6868 150.799 52.6064 151.379 52.6064C151.954 52.6064 152.422 52.6742 152.781 52.8096C153.141 52.945 153.406 53.1164 153.575 53.3237C153.744 53.5269 153.863 53.785 153.93 54.0981C153.968 54.2928 153.987 54.644 153.987 55.1519V56.6753C153.987 57.7375 154.011 58.4103 154.057 58.6938C154.108 58.9731 154.205 59.2419 154.349 59.5H153.156C153.037 59.263 152.961 58.9858 152.927 58.6685ZM152.832 56.1167C152.417 56.286 151.795 56.4299 150.966 56.5483C150.496 56.616 150.164 56.6922 149.969 56.7769C149.775 56.8615 149.624 56.9863 149.519 57.1514C149.413 57.3122 149.36 57.492 149.36 57.6909C149.36 57.9956 149.474 58.2495 149.703 58.4526C149.935 58.6558 150.274 58.7573 150.718 58.7573C151.158 58.7573 151.55 58.6621 151.893 58.4717C152.235 58.277 152.487 58.0125 152.648 57.6782C152.771 57.4201 152.832 57.0392 152.832 56.5356V56.1167Z" fill="#424242" fill-opacity="0.5"/>
<path d="M155.771 52.7588H156.914V55.5645H160.081V52.7588H161.224V59.5H160.081V56.5103H156.914V59.5H155.771V52.7588Z" fill="#424242" fill-opacity="0.5"/>
<path d="M162.95 52.7588H164.093V57.9004L167.26 52.7588H168.492V59.5H167.349V54.3901L164.182 59.5H162.95V52.7588Z" fill="#424242" fill-opacity="0.5"/>
<path d="M174.827 57.3291L176.007 57.4751C175.821 58.1649 175.476 58.7002 174.973 59.0811C174.469 59.4619 173.826 59.6523 173.043 59.6523C172.057 59.6523 171.274 59.3498 170.694 58.7446C170.119 58.1353 169.831 57.2826 169.831 56.1865C169.831 55.0524 170.123 54.1722 170.707 53.5459C171.291 52.9196 172.049 52.6064 172.98 52.6064C173.881 52.6064 174.617 52.9132 175.189 53.5269C175.76 54.1405 176.046 55.0037 176.046 56.1167C176.046 56.1844 176.043 56.286 176.039 56.4214H171.012C171.054 57.1619 171.264 57.729 171.64 58.1226C172.017 58.5161 172.487 58.7129 173.049 58.7129C173.468 58.7129 173.826 58.6029 174.122 58.3828C174.418 58.1628 174.653 57.8115 174.827 57.3291ZM171.075 55.4819H174.839C174.789 54.9149 174.645 54.4896 174.408 54.2061C174.044 53.766 173.572 53.5459 172.992 53.5459C172.468 53.5459 172.025 53.7215 171.666 54.0728C171.31 54.424 171.113 54.8937 171.075 55.4819Z" fill="#424242" fill-opacity="0.5"/>
<path d="M29 14C20.163 14 13 21.163 13 30C13 38.837 20.163 46 29 46C37.837 46 45 38.837 45 30C44.974 21.174 37.826 14.026 29 14Z" fill="#14AA5A"/>
<path fill-rule="evenodd" clip-rule="evenodd" d="M29 43C36.1797 43 42 37.1797 42 30C42 22.8203 36.1797 17 29 17C21.8203 17 16 22.8203 16 30C16 37.1797 21.8203 43 29 43ZM29 44C36.732 44 43 37.732 43 30C43 22.268 36.732 16 29 16C21.268 16 15 22.268 15 30C15 37.732 21.268 44 29 44Z" fill="#FFFAD9"/>
<path d="M29.6426 37.1758C29.1445 37.1758 28.793 36.8047 28.793 36.2676V24.832H28.7539L26.1172 26.6777C25.9219 26.8145 25.7363 26.8828 25.5215 26.8828C25.1113 26.8828 24.8281 26.5898 24.8281 26.1602C24.8281 25.8477 24.9453 25.6426 25.3164 25.3789L28.334 23.2207C28.8809 22.8301 29.1152 22.7324 29.5156 22.7324C30.1211 22.7324 30.4922 23.1035 30.4922 23.7188V36.2676C30.4922 36.8047 30.1406 37.1758 29.6426 37.1758Z" fill="#FFFAD9"/>
<path opacity="0.7" d="M154 30C154 37.732 147.732 44 140 44C132.268 44 126 37.732 126 30C126 22.268 132.268 16 140 16C147.732 16 154 22.268 154 30Z" fill="#424242" fill-opacity="0.5"/>
<path d="M136.279 36.5C135.762 36.5 135.43 36.2168 135.43 35.7773C135.43 35.416 135.508 35.2598 135.928 34.8203L140.439 30.1133C142.334 28.1309 142.783 27.3789 142.783 26.1973C142.783 24.7617 141.68 23.707 140.166 23.707C138.643 23.707 137.578 24.498 137.1 26.0117C136.982 26.373 136.787 26.627 136.309 26.627C135.791 26.627 135.498 26.3047 135.498 25.8457C135.498 25.7188 135.508 25.6113 135.527 25.4941C135.732 24.0488 137.285 22.1738 140.166 22.1738C142.705 22.1738 144.541 23.8145 144.541 26.0898C144.541 27.6328 143.838 28.7949 141.426 31.2656L137.891 34.8984V34.9375H144.043C144.541 34.9375 144.873 35.25 144.873 35.7188C144.873 36.1875 144.541 36.5 144.043 36.5H136.279Z" fill="#FFFAD9"/>
<path opacity="0.7" d="M45 29H124V31H45V29Z" fill="#424242" fill-opacity="0.5"/>
</svg>
