<svg width="16" height="16" viewBox="0 0 16 16" fill="none" xmlns="http://www.w3.org/2000/svg">
<path fill-rule="evenodd" clip-rule="evenodd" d="M8.5 5C8.77614 5 9 5.22386 9 5.5V8H12.5C12.7761 8 13 8.22386 13 8.5C13 8.77614 12.7761 9 12.5 9H8.5C8.22386 9 8 8.77614 8 8.5V5.5C8 5.22386 8.22386 5 8.5 5Z" fill="#333333"/>
<path fill-rule="evenodd" clip-rule="evenodd" d="M2.86982 8.05693C3.09133 5.14503 5.52423 2.85125 8.49286 2.85125C11.6075 2.85125 14.1323 5.37614 14.1323 8.49074C14.1323 11.6053 11.6075 14.1302 8.49286 14.1302C6.83884 14.1302 5.35113 13.4182 4.31956 12.2838C4.20172 12.3396 4.09415 12.4058 3.99993 12.5C3.83771 12.6622 3.74822 12.7833 3.69458 12.8861C4.88417 14.184 6.59348 14.9978 8.49286 14.9978C12.0866 14.9978 15 12.0845 15 8.49074C15 4.89697 12.0866 1.98364 8.49286 1.98364C5.04487 1.98364 2.22323 4.66542 2 8.05693H2.86982Z" fill="#333333"/>
<path d="M2.5 11L5 8H0L2.5 11Z" fill="#333333"/>
</svg>
