<svg width="16" height="16" viewBox="0 0 16 16" fill="none" xmlns="http://www.w3.org/2000/svg">
<rect x="2" y="8" width="12" height="6" fill="#D9D9D9"/>
<path d="M2 8H14V14H2V8Z" fill="#F7DA7D"/>
<path d="M2 7H14V5.5H9L8 4H2V7Z" fill="#FFE069"/>
<path fill-rule="evenodd" clip-rule="evenodd" d="M3.91421 4C3.78161 4 3.65443 4.05268 3.56066 4.14645L2.14645 5.56066C2.05268 5.65443 2 5.78161 2 5.91421V13.5C2 13.7761 2.22386 14 2.5 14H13.5C13.7761 14 14 13.7761 14 13.5V6.5C14 6.22386 13.7761 6 13.5 6H9.5C9.02786 6 8.58328 5.77771 8.3 5.4L7.4 4.2C7.30557 4.0741 7.15738 4 7 4H3.91421ZM2.85355 3.43934C3.13486 3.15803 3.51639 3 3.91421 3H7C7.47214 3 7.91672 3.22229 8.2 3.6L9.1 4.8C9.19443 4.9259 9.34262 5 9.5 5H13.5C14.3284 5 15 5.67157 15 6.5V13.5C15 14.3284 14.3284 15 13.5 15H2.5C1.67157 15 1 14.3284 1 13.5V5.91421C1 5.51639 1.15804 5.13486 1.43934 4.85355L2.85355 3.43934Z" fill="#BB8744"/>
<path d="M2 7H14V8H2V7Z" fill="#BB8744"/>
<path d="M4 12C4 10.3431 5.51099 9 7.375 9H9.625C11.489 9 13 10.3431 13 12V14H4V12Z" fill="#3DB689"/>
<path d="M7 9H10V10.3333C10 10.7015 9.32845 11 8.5 11C7.67155 11 7 10.7015 7 10.3333V9Z" fill="#DCEAF2"/>
<path d="M10 7H7V9H10V7Z" fill="#BB8942"/>
<path d="M12 6C12 6 10.433 6 8.5 6C6.56695 6 5 6 5 6C5 3.79086 6.56695 2 8.5 2C10.433 2 12 3.79086 12 6Z" fill="#110702"/>
<path d="M8.5 8C9.88071 8 11 6.88071 11 5.5C11 4.11929 9.88071 3 8.5 3C7.11929 3 6 4.11929 6 5.5C6 6.88071 7.11929 8 8.5 8Z" fill="#ECB968"/>
<path opacity="0.7" fill-rule="evenodd" clip-rule="evenodd" d="M14 15H3V12C3 10.1597 4.30798 8.719 6 8.20437V7.94949C5.7296 7.67356 5.50453 7.35304 5.33682 7H5.00007L5 6H6.05001C6.125 6.36944 6.28146 6.70929 6.49982 7C6.64208 7.18939 6.81061 7.35792 7 7.50018V9H7.375C7.24825 9 7.12312 9.00621 7 9.01831C6.64745 9.05295 6.31127 9.13585 6 9.25943C4.82137 9.72735 4 10.7784 4 12V14H13V12C13 10.7784 12.1786 9.72735 11 9.25943C10.6887 9.13585 10.3526 9.05295 10 9.01831C9.87687 9.00621 9.75175 9 9.625 9H10V7.50018C10.1894 7.35792 10.3579 7.18939 10.5002 7C10.7185 6.70929 10.875 6.36944 10.95 6H12L12 7H11.664C11.4963 7.35304 11.2704 7.67356 11 7.94949V8.20437C12.692 8.719 14 10.1597 14 12V15ZM12 6C12 5.99994 12 6.00006 12 6L12 7H13V6C13 3.36819 11.1066 1 8.5 1C5.8934 1 4 3.36819 4 6V7H5.00007L5 6C5 6.00006 5 5.99994 5 6C5 5.91045 5.00258 5.82142 5.00765 5.73333C5.01217 5.65492 5.01866 5.57712 5.02708 5.5C5.04565 5.32978 5.07358 5.16288 5.11026 5C5.49879 3.27477 6.8691 2 8.5 2C10.1309 2 11.5012 3.27477 11.8897 5C11.9264 5.16288 11.9543 5.32978 11.9729 5.5C11.9813 5.57712 11.9878 5.65492 11.9923 5.73333C11.9974 5.82142 12 5.91045 12 6Z" fill="white"/>
</svg>
