<svg width="72" height="76" viewBox="0 0 72 76" fill="none" xmlns="http://www.w3.org/2000/svg">
<g clip-path="url(#clip0_3_2)">
<mask id="mask0_3_2" style="mask-type:luminance" maskUnits="userSpaceOnUse" x="8" y="11" width="64" height="66">
<path d="M72 11.5H8V76.5H72V11.5Z" fill="white"/>
</mask>
<g mask="url(#mask0_3_2)">
<path d="M40 14C31.163 14 24 21.163 24 30C24 38.837 31.163 46 40 46C48.837 46 56 38.837 56 30C55.974 21.174 48.826 14.026 40 14ZM46.707 35.293C47.098 35.684 47.098 36.316 46.707 36.707C46.512 36.902 46.256 37 46 37C45.744 37 45.488 36.902 45.293 36.707L40 31.414L34.707 36.707C34.512 36.902 34.256 37 34 37C33.744 37 33.488 36.902 33.293 36.707C32.902 36.316 32.902 35.684 33.293 35.293L38.586 30L33.293 24.707C32.902 24.316 32.902 23.684 33.293 23.293C33.684 22.902 34.316 22.902 34.707 23.293L40 28.586L45.293 23.293C45.684 22.902 46.316 22.902 46.707 23.293C47.098 23.684 47.098 24.316 46.707 24.707L41.414 30L46.707 35.293Z" fill="#F16E67"/>
<path fill-rule="evenodd" clip-rule="evenodd" d="M40 43C47.1797 43 53 37.1797 53 30C53 22.8203 47.1797 17 40 17C32.8203 17 27 22.8203 27 30C27 37.1797 32.8203 43 40 43ZM40 44C47.732 44 54 37.732 54 30C54 22.268 47.732 16 40 16C32.268 16 26 22.268 26 30C26 37.732 32.268 44 40 44Z" fill="#FFFAD9"/>
<path d="M8 50.1943H9.11719V57.564L14.0684 50.1943H15.3061V59.5H14.189V52.1494L9.23145 59.5H8V50.1943Z" fill="#CC0E0E"/>
<path d="M21.5776 57.0308L22.7011 57.1768C22.5784 57.9512 22.2632 58.5584 21.7553 58.9985C21.2518 59.4344 20.6318 59.6523 19.8955 59.6523C18.973 59.6523 18.2303 59.3519 17.6675 58.751C17.1089 58.1458 16.8296 57.2804 16.8296 56.1548C16.8296 55.4269 16.9502 54.79 17.1914 54.2441C17.4326 53.6982 17.7986 53.2899 18.2895 53.019C18.7846 52.744 19.3221 52.6064 19.9018 52.6064C20.6339 52.6064 21.2327 52.7926 21.6982 53.165C22.1637 53.5332 22.462 54.0579 22.5932 54.7393L21.4824 54.9106C21.3766 54.4578 21.1883 54.1172 20.9175 53.8887C20.6509 53.6602 20.3271 53.5459 19.9463 53.5459C19.3707 53.5459 18.9031 53.7533 18.5434 54.168C18.1837 54.5785 18.0039 55.2301 18.0039 56.123C18.0039 57.0286 18.1774 57.6867 18.5244 58.0972C18.8714 58.5076 19.3242 58.7129 19.8828 58.7129C20.3314 58.7129 20.7059 58.5754 21.0063 58.3003C21.3068 58.0252 21.4972 57.6021 21.5776 57.0308Z" fill="#CC0E0E"/>
<path d="M23.063 52.7588H28.541V53.7046H26.3701V59.5H25.2339V53.7046H23.063V52.7588Z" fill="#CC0E0E"/>
<path d="M34.0952 57.3291L35.2759 57.4751C35.0897 58.1649 34.7448 58.7002 34.2412 59.0811C33.7376 59.4619 33.0944 59.6523 32.3115 59.6523C31.3255 59.6523 30.5426 59.3498 29.9629 58.7446C29.3873 58.1353 29.0996 57.2826 29.0996 56.1865C29.0996 55.0524 29.3916 54.1722 29.9756 53.5459C30.5595 52.9196 31.317 52.6064 32.248 52.6064C33.1494 52.6064 33.8857 52.9132 34.457 53.5269C35.0283 54.1405 35.3139 55.0037 35.3139 56.1167C35.3139 56.1844 35.3118 56.286 35.3076 56.4214H30.2802C30.3226 57.1619 30.532 57.729 30.9087 58.1226C31.2853 58.5161 31.755 58.7129 32.3178 58.7129C32.7368 58.7129 33.0944 58.6029 33.3906 58.3828C33.6868 58.1628 33.9217 57.8115 34.0952 57.3291ZM30.3437 55.4819H34.1079C34.0571 54.9149 33.9132 54.4896 33.6762 54.2061C33.3123 53.766 32.8405 53.5459 32.2607 53.5459C31.736 53.5459 31.2938 53.7215 30.9341 54.0728C30.5786 54.424 30.3818 54.8937 30.3437 55.4819Z" fill="#CC0E0E"/>
<path d="M36.7104 52.7588H37.853V55.6724C38.2169 55.6724 38.4708 55.6025 38.6147 55.4629C38.7628 55.3232 38.9787 54.917 39.2622 54.2441C39.4865 53.7109 39.6684 53.3597 39.8081 53.1904C39.9477 53.0212 40.1085 52.9069 40.2905 52.8477C40.4725 52.7884 40.7645 52.7588 41.1665 52.7588H41.395V53.7046L41.0776 53.6982C40.7772 53.6982 40.5846 53.7427 40.5 53.8315C40.4111 53.9246 40.2757 54.2018 40.0937 54.6631C39.9202 55.1032 39.7615 55.4079 39.6176 55.5771C39.4738 55.7464 39.2516 55.9009 38.9511 56.0405C39.442 56.1717 39.9245 56.6287 40.3984 57.4116L41.6489 59.5H40.3921L39.1733 57.4116C38.9236 56.9927 38.7057 56.7176 38.5195 56.5864C38.3333 56.451 38.1111 56.3833 37.853 56.3833V59.5H36.7104V52.7588Z" fill="#CC0E0E"/>
<path d="M50.4214 57.0308L51.5449 57.1768C51.4222 57.9512 51.1069 58.5584 50.5991 58.9985C50.0955 59.4344 49.4756 59.6523 48.7392 59.6523C47.8167 59.6523 47.074 59.3519 46.5112 58.751C45.9526 58.1458 45.6733 57.2804 45.6733 56.1548C45.6733 55.4269 45.7939 54.79 46.0351 54.2441C46.2763 53.6982 46.6424 53.2899 47.1333 53.019C47.6284 52.744 48.1658 52.6064 48.7456 52.6064C49.4777 52.6064 50.0765 52.7926 50.542 53.165C51.0075 53.5332 51.3058 54.0579 51.437 54.7393L50.3261 54.9106C50.2204 54.4578 50.032 54.1172 49.7612 53.8887C49.4946 53.6602 49.1709 53.5459 48.79 53.5459C48.2145 53.5459 47.7469 53.7533 47.3872 54.168C47.0275 54.5785 46.8476 55.2301 46.8476 56.123C46.8476 57.0286 47.0211 57.6867 47.3681 58.0972C47.7151 58.5076 48.1679 58.7129 48.7265 58.7129C49.1751 58.7129 49.5496 58.5754 49.8501 58.3003C50.1505 58.0252 50.341 57.6021 50.4214 57.0308Z" fill="#CC0E0E"/>
<path d="M52.5224 62.0835V52.7588H53.5634V53.6348C53.8089 53.292 54.0861 53.036 54.395 52.8667C54.7039 52.6932 55.0784 52.6064 55.5185 52.6064C56.094 52.6064 56.6019 52.7546 57.042 53.0508C57.4821 53.347 57.8143 53.766 58.0385 54.3076C58.2628 54.8451 58.375 55.4354 58.375 56.0786C58.375 56.7684 58.2501 57.3905 58.0005 57.9448C57.755 58.495 57.3953 58.9181 56.9214 59.2144C56.4516 59.5063 55.9565 59.6523 55.436 59.6523C55.0551 59.6523 54.7124 59.5719 54.4077 59.4111C54.1072 59.2503 53.8597 59.0472 53.665 58.8018V62.0835H52.5224ZM53.5571 56.1675C53.5571 57.035 53.7327 57.6761 54.084 58.0908C54.4352 58.5055 54.8605 58.7129 55.3598 58.7129C55.8676 58.7129 56.3014 58.4992 56.6611 58.0718C57.025 57.6401 57.207 56.9736 57.207 56.0723C57.207 55.2132 57.0293 54.57 56.6738 54.1426C56.3226 53.7152 55.9015 53.5015 55.4106 53.5015C54.924 53.5015 54.4923 53.73 54.1157 54.187C53.7433 54.6398 53.5571 55.3 53.5571 56.1675Z" fill="#CC0E0E"/>
<path d="M59.3335 56.1294C59.3335 54.881 59.6805 53.9564 60.3745 53.3555C60.9542 52.8561 61.6609 52.6064 62.4946 52.6064C63.4214 52.6064 64.1788 52.9111 64.7671 53.5205C65.3553 54.1257 65.6494 54.9635 65.6494 56.0342C65.6494 56.9017 65.5182 57.5851 65.2558 58.0845C64.9977 58.5796 64.619 58.9647 64.1196 59.2397C63.6245 59.5148 63.0828 59.6523 62.4946 59.6523C61.5509 59.6523 60.7871 59.3498 60.2031 58.7446C59.6233 58.1395 59.3335 57.2677 59.3335 56.1294ZM60.5078 56.1294C60.5078 56.9927 60.6961 57.6401 61.0727 58.0718C61.4494 58.4992 61.9233 58.7129 62.4946 58.7129C63.0617 58.7129 63.5335 58.4971 63.9101 58.0654C64.2868 57.6338 64.4751 56.9757 64.4751 56.0913C64.4751 55.2576 64.2846 54.6271 63.9038 54.1997C63.5272 53.7681 63.0574 53.5522 62.4946 53.5522C61.9233 53.5522 61.4494 53.766 61.0727 54.1934C60.6961 54.6208 60.5078 55.2661 60.5078 56.1294Z" fill="#CC0E0E"/>
<path d="M66.9887 52.7588H68.1313V55.6724C68.4953 55.6724 68.7492 55.6025 68.893 55.4629C69.0412 55.3232 69.257 54.917 69.5405 54.2441C69.7648 53.7109 69.9468 53.3597 70.0864 53.1904C70.226 53.0212 70.3869 52.9069 70.5688 52.8477C70.7508 52.7884 71.0428 52.7588 71.4448 52.7588H71.6733V53.7046L71.3559 53.6982C71.0555 53.6982 70.8629 53.7427 70.7783 53.8315C70.6894 53.9246 70.554 54.2018 70.372 54.6631C70.1985 55.1032 70.0398 55.4079 69.896 55.5771C69.7521 55.7464 69.5299 55.9009 69.2295 56.0405C69.7204 56.1717 70.2028 56.6287 70.6767 57.4116L71.9272 59.5H70.6704L69.4516 57.4116C69.202 56.9927 68.984 56.7176 68.7978 56.5864C68.6116 56.451 68.3895 56.3833 68.1313 56.3833V59.5H66.9887V52.7588Z" fill="#CC0E0E"/>
<path d="M13.7583 67.0518H18.4556V72.8535H19.1856V75.7036H18.2461V73.793H12.9395V75.7036H12V72.8535H12.603C13.4071 71.7618 13.7922 69.8278 13.7583 67.0518ZM14.7105 67.9976C14.6258 70.1854 14.2873 71.8041 13.6948 72.8535H17.3194V67.9976H14.7105Z" fill="#CC0E0E"/>
<path d="M25.0635 71.6221L26.2442 71.7681C26.058 72.4579 25.7131 72.9932 25.2095 73.3741C24.7059 73.7549 24.0627 73.9453 23.2798 73.9453C22.2938 73.9453 21.5109 73.6428 20.9312 73.0376C20.3557 72.4283 20.0679 71.5756 20.0679 70.4795C20.0679 69.3454 20.3599 68.4652 20.9439 67.8389C21.5279 67.2126 22.2853 66.8994 23.2163 66.8994C24.1177 66.8994 24.854 67.2062 25.4253 67.8199C25.9966 68.4335 26.2822 69.2967 26.2822 70.4097C26.2822 70.4774 26.2801 70.579 26.2759 70.7144H21.2486C21.2909 71.4549 21.5003 72.022 21.877 72.4156C22.2536 72.8091 22.7233 73.0059 23.2862 73.0059C23.7051 73.0059 24.0627 72.8959 24.3589 72.6758C24.6551 72.4558 24.89 72.1045 25.0635 71.6221ZM21.312 69.7749H25.0762C25.0254 69.2079 24.8815 68.7826 24.6446 68.4991C24.2806 68.059 23.8088 67.8389 23.229 67.8389C22.7043 67.8389 22.2621 68.0145 21.9024 68.3658C21.5469 68.717 21.3501 69.1867 21.312 69.7749Z" fill="#CC0E0E"/>
<path d="M27.6851 67.0518H28.8277V72.1934L31.9951 67.0518H33.2266V73.793H32.084V68.6831L28.9165 73.793H27.6851V67.0518ZM31.6524 64.5H32.4331C32.3696 65.029 32.175 65.4353 31.8491 65.7188C31.5275 66.0023 31.098 66.1441 30.5606 66.1441C30.0189 66.1441 29.5851 66.0044 29.2593 65.7251C28.9377 65.4416 28.7451 65.0332 28.6817 64.5H29.4624C29.5217 64.7878 29.638 65.0036 29.8115 65.1475C29.9893 65.2871 30.2263 65.357 30.5225 65.357C30.8653 65.357 31.1234 65.2893 31.2969 65.1538C31.4746 65.0142 31.5931 64.7963 31.6524 64.5Z" fill="#CC0E0E"/>
<path d="M39.3457 71.3238L40.4693 71.4698C40.3465 72.2442 40.0313 72.8514 39.5235 73.2915C39.0199 73.7274 38.3999 73.9453 37.6636 73.9453C36.7411 73.9453 35.9984 73.6449 35.4356 73.044C34.877 72.4388 34.5977 71.5734 34.5977 70.4478C34.5977 69.7199 34.7183 69.083 34.9595 68.5371C35.2007 67.9912 35.5668 67.5829 36.0576 67.312C36.5528 67.037 37.0902 66.8994 37.6699 66.8994C38.402 66.8994 39.0008 67.0856 39.4663 67.458C39.9318 67.8262 40.2302 68.3509 40.3613 69.0323L39.2505 69.2036C39.1447 68.7508 38.9564 68.4102 38.6856 68.1817C38.419 67.9532 38.0952 67.8389 37.7144 67.8389C37.1389 67.8389 36.6712 68.0463 36.3115 68.461C35.9518 68.8715 35.772 69.5231 35.772 70.416C35.772 71.3216 35.9455 71.9797 36.2925 72.3902C36.6395 72.8006 37.0923 73.0059 37.6509 73.0059C38.0995 73.0059 38.474 72.8684 38.7744 72.5933C39.0749 72.3182 39.2653 71.8951 39.3457 71.3238Z" fill="#CC0E0E"/>
<path d="M40.8311 67.0518H46.3092V67.9976H44.1382V73.793H43.002V67.9976H40.8311V67.0518Z" fill="#CC0E0E"/>
<path d="M47.4072 67.0518H50.0412C50.6892 67.0518 51.1692 67.1068 51.4822 67.2168C51.8002 67.3226 52.0702 67.5194 52.2952 67.8072C52.5232 68.0949 52.6382 68.4398 52.6382 68.8418C52.6382 69.1634 52.5702 69.4449 52.4342 69.6861C52.3032 69.923 52.1042 70.1219 51.8382 70.2827C52.1552 70.3885 52.4172 70.5874 52.6252 70.8794C52.8362 71.1672 52.9422 71.51 52.9422 71.9077C52.9002 72.5467 52.6712 73.0207 52.2572 73.3296C51.8422 73.6385 51.2392 73.793 50.4482 73.793H47.4072V67.0518ZM48.5502 69.8892H49.7682C50.2552 69.8892 50.5892 69.8638 50.7712 69.813C50.9532 69.7622 51.1162 69.6607 51.2602 69.5083C51.4042 69.3518 51.4762 69.1656 51.4762 68.9497C51.4762 68.5943 51.3492 68.3467 51.0952 68.2071C50.8452 68.0674 50.4162 67.9976 49.8062 67.9976H48.5502V69.8892ZM48.5502 72.8535H50.0542C50.7012 72.8535 51.1462 72.7795 51.3872 72.6314C51.6282 72.479 51.7552 72.2188 51.7682 71.8506C51.7682 71.6348 51.6982 71.4359 51.5582 71.2539C51.4192 71.0677 51.2372 70.9514 51.0132 70.9048C50.7882 70.854 50.4292 70.8286 49.9332 70.8286H48.5502V72.8535Z" fill="#CC0E0E"/>
<path d="M54.3072 67.0518H55.4502V72.1934L58.6172 67.0518H59.8482V73.793H58.7062V68.6831L55.5382 73.793H54.3072V67.0518Z" fill="#CC0E0E"/>
<path d="M66.8752 67.0518V73.793H65.7392V71.1651H65.0792C64.6772 71.1651 64.3762 71.218 64.1782 71.3238C63.9832 71.4253 63.6972 71.7575 63.3212 72.3203L62.3242 73.793H60.9092L62.1402 71.9776C62.5172 71.4232 62.8912 71.1101 63.2632 71.0381C62.6122 70.9492 62.1272 70.7144 61.8102 70.3335C61.4972 69.9527 61.3402 69.5147 61.3402 69.0196C61.3402 68.4356 61.5452 67.9616 61.9562 67.5977C62.3712 67.2338 62.9692 67.0518 63.7522 67.0518H66.8752ZM65.7392 67.9976H64.1142C63.4332 67.9976 62.9932 68.1034 62.7942 68.315C62.5992 68.5266 62.5022 68.7741 62.5022 69.0576C62.5022 69.4597 62.6462 69.7559 62.9332 69.9463C63.2252 70.1325 63.7402 70.2256 64.4762 70.2256H65.7392V67.9976Z" fill="#CC0E0E"/>
</g>
</g>
<defs>
<clipPath id="clip0_3_2">
<rect width="72" height="76" fill="white"/>
</clipPath>
</defs>
</svg>
