<svg width="16" height="16" viewBox="0 0 16 16" fill="none" xmlns="http://www.w3.org/2000/svg">
<g clip-path="url(#clip0_1297:403)">
<path opacity="0.5" fill-rule="evenodd" clip-rule="evenodd" d="M2 13L13 2L13.7071 2.70711L2.70711 13.7071L2 13Z" fill="#727272"/>
<path d="M13.8273 13.9922C13.9923 13.8285 14.1357 13.6447 14.254 13.4449C14.3678 13.2426 14.4554 13.0265 14.5146 12.8017L15.5159 12.7001C15.5986 12.6916 15.6747 12.6532 15.7296 12.5921C15.7846 12.5311 15.8145 12.4518 15.8136 12.3693L15.8078 11.6993C15.8071 11.6168 15.7756 11.5369 15.7195 11.4749C15.6634 11.413 15.5865 11.3733 15.5036 11.3635L14.5042 11.2484C14.3697 10.7969 14.1247 10.3836 13.7912 10.0454L14.1911 9.13237C14.224 9.05681 14.2273 8.97136 14.2003 8.89251C14.1733 8.81366 14.1179 8.747 14.0449 8.70539L13.4558 8.36527C13.3832 8.3228 13.2978 8.30817 13.216 8.32421C13.1342 8.34025 13.0619 8.38583 13.0129 8.45213L12.4221 9.25498C11.9631 9.13439 11.4831 9.1278 11.0249 9.23578L10.4255 8.42783C10.3755 8.36092 10.3027 8.31417 10.221 8.29654C10.1393 8.27891 10.0544 8.29163 9.98264 8.33228L9.39942 8.66221C9.32759 8.70272 9.27384 8.7683 9.24846 8.8464C9.22309 8.92449 9.22786 9.00962 9.26187 9.08547L9.67446 10.0034C9.50882 10.1681 9.36509 10.353 9.24665 10.5539C9.13285 10.7563 9.0453 10.9723 8.98605 11.1971L7.9848 11.2988C7.9021 11.3073 7.82599 11.3457 7.77105 11.4067C7.71611 11.4677 7.68619 11.5471 7.68701 11.6295L7.6929 12.2996C7.69341 12.3584 7.70956 12.4163 7.7397 12.4675C7.76985 12.5187 7.81294 12.5613 7.86464 12.5912C7.90531 12.6144 7.95015 12.6293 7.99646 12.635L8.99587 12.7501C9.13146 13.2009 9.3772 13.6133 9.71113 13.9506L9.30957 14.8665C9.27662 14.942 9.27333 15.0275 9.30034 15.1063C9.32734 15.1852 9.38272 15.2519 9.45578 15.2935L10.0449 15.6336C10.1175 15.6761 10.2029 15.6907 10.2847 15.6746C10.3664 15.6586 10.4388 15.613 10.4878 15.5467L11.0803 14.7449C11.5388 14.8649 12.0182 14.8711 12.4758 14.7631L13.0752 15.571C13.1033 15.6083 13.1386 15.6397 13.179 15.6633C13.2307 15.6932 13.2892 15.7091 13.3486 15.7097C13.408 15.7102 13.4662 15.6952 13.5174 15.6662L14.1007 15.3363C14.1725 15.2958 14.2262 15.2302 14.2516 15.1521C14.277 15.074 14.2722 14.9889 14.2382 14.913L13.8273 13.9922ZM11.0837 13.1541C10.8506 13.0196 10.6619 12.8204 10.5414 12.5816C10.4209 12.3429 10.3741 12.0753 10.4067 11.8129C10.4393 11.5504 10.55 11.3047 10.7248 11.107C10.8996 10.9093 11.1306 10.7683 11.3886 10.7019C11.6466 10.6356 11.9201 10.6468 12.1743 10.7342C12.4286 10.8216 12.6523 10.9812 12.8171 11.1929C12.982 11.4046 13.0805 11.6589 13.1003 11.9235C13.1202 12.1881 13.0604 12.4513 12.9285 12.6797C12.7517 12.9859 12.458 13.2079 12.112 13.2969C11.7661 13.3859 11.3961 13.3345 11.0837 13.1541Z" fill="#727272"/>
</g>
<defs>
<clipPath id="clip0_1297:403">
<rect width="16" height="16" fill="white"/>
</clipPath>
</defs>
</svg>
