<?xml version="1.0"?>
<svg width="16" height="16" xmlns="http://www.w3.org/2000/svg" xmlns:svg="http://www.w3.org/2000/svg">
 <defs>
  <clipPath id="clip0_55_16">
   <rect fill="white" height="16" id="svg_1" width="16"/>
  </clipPath>
 </defs>
 <g class="layer">
  <title>Layer 1</title>
  <g clip-path="url(#clip0_55_16)" id="svg_2">
   <path d="m32.187052,4.33813l-3,0l0.5,9l2,0l0.5,-9z" fill="#E83636" id="svg_3"/>
   <path d="m30.687052,18.33813c0.82843,0 1.5,-0.6716 1.5,-1.5c0,-0.8284 -0.67157,-1.5 -1.5,-1.5c-0.82843,0 -1.5,0.6716 -1.5,1.5c0,0.8284 0.67157,1.5 1.5,1.5z" fill="#E83636" id="svg_4"/>
  </g>
  <path d="m8.028777,10c1.1046,0 2,-0.89543 2,-2c0,-1.10457 -0.8954,-2 -2,-2c-1.1046,0 -2,0.89543 -2,2c0,1.10457 0.8954,2 2,2z" fill="#ABABAB" id="svg_5"/>
 </g>
</svg>