<svg width="16" height="16" viewBox="0 0 16 16" fill="none" xmlns="http://www.w3.org/2000/svg">
<g clip-path="url(#clip0)">
<path d="M0 14V1H14V15H1L0 14Z" fill="#4A678E" fill-opacity="0.85"/>
<path d="M3 2H1V13L2 14H13V2H11V7H3V2Z" fill="#92B1DA"/>
<rect x="3" y="2" width="8" height="5" fill="white"/>
<rect x="4" y="3" width="6" height="1" fill="#A2B4CA"/>
<rect x="4" y="5" width="6" height="1" fill="#A2B4CA"/>
<rect x="2" y="1" width="10" height="1" fill="#82909B"/>
<rect x="3" y="14" width="8" height="1" fill="#82909B"/>
<rect x="2" y="9" width="10" height="5" fill="#6C85A8"/>
<rect x="3" y="10" width="8" height="4" fill="#BFC8C6"/>
<rect x="3" y="10" width="8" height="4" fill="url(#paint0_linear)" fill-opacity="0.4"/>
<rect x="4" y="11" width="2" height="1" fill="#4C6A93"/>
<rect x="4" y="12" width="2" height="2" fill="#6685AF"/>
<path opacity="0.6" fill-rule="evenodd" clip-rule="evenodd" d="M8.87718 11.0683V10.1094L11.1726 7.82653L12.1531 8.80175L9.87415 11.0683H8.87718ZM7.13876 10.428C7.07943 10.4876 7.02953 10.553 6.98904 10.6224H7.87718V12.0683H9.33099V12.9686C9.40628 12.9265 9.4771 12.8735 9.54118 12.8098L13.6222 8.75107L13.5948 8.73118C13.3684 8.56595 13.1256 8.35857 12.8856 8.11981L11.8576 7.09742C11.6178 6.85894 11.4095 6.61777 11.2434 6.3929L11.2234 6.36561L7.14251 10.4242L7.13876 10.428ZM5.95103 10.6224H5.93876L4.61827 15H3.59959L5.29365 9.62242C5.41783 9.41214 5.57061 9.214 5.75201 9.0336L10.1377 4.6719C10.1457 4.66349 10.1538 4.65512 10.1622 4.64679L11.3846 3.43107C11.8055 3.01253 12.3384 3.0774 12.5477 3.12059C12.8053 3.17375 13.0489 3.28684 13.2504 3.40018C13.5212 3.55243 13.8091 3.75842 14.0941 4H14V5.28309L13.8409 5.12489L13.84 5.12393C13.0833 4.37165 12.2998 3.93121 12.0898 4.14012L10.8674 5.35583L10.8642 5.3591L10.8606 5.36301L10.859 5.36483L6.45717 9.74264C6.20336 9.99507 6.03464 10.3001 5.95103 10.6224ZM14 9.73852L10.2265 13.4914L10.2228 13.4951C9.96828 13.7469 9.66104 13.9139 9.33656 13.9961L9.33138 13.9974L9.30552 14.0037L5.96636 15H9.46401L9.56356 14.9703C9.65574 14.9476 9.74703 14.9204 9.83709 14.8887L10.331 14.6612C10.5456 14.5369 10.7478 14.3833 10.9317 14.2004L14 11.1489V9.73852ZM16 9.15911L16.5643 8.59791C16.9875 8.17698 16.9224 7.64115 16.8784 7.43019C16.8245 7.17191 16.7101 6.92844 16.596 6.72777C16.4443 6.46088 16.2397 6.17746 16 5.89688V9.15911ZM6.11236 16H3.28457L2.99121 16.9312L6.11236 16Z" fill="white"/>
<path d="M6.45661 12.4691C5.69961 11.7163 5.69961 10.4956 6.45661 9.74278L10.8602 5.36327C11.6172 4.6104 12.8445 4.6104 13.6015 5.36327L14.6295 6.38565C15.3865 7.13852 15.3865 8.35915 14.6295 9.11202L10.226 13.4915C9.46895 14.2444 8.24161 14.2444 7.48461 13.4915L6.45661 12.4691Z" fill="#57C063"/>
<path fill-rule="evenodd" clip-rule="evenodd" d="M11.5455 6.04486L7.14194 10.4244C6.76344 10.8008 6.76344 11.4111 7.14194 11.7875L8.16995 12.8099C8.54845 13.1864 9.16212 13.1864 9.54062 12.8099L13.9442 8.43043C14.3227 8.05399 14.3227 7.44368 13.9442 7.06724L12.9162 6.04486C12.5377 5.66843 11.924 5.66843 11.5455 6.04486ZM6.45661 9.74278C5.69961 10.4956 5.69961 11.7163 6.45661 12.4691L7.48461 13.4915C8.24161 14.2444 9.46895 14.2444 10.226 13.4915L14.6295 9.11202C15.3865 8.35915 15.3865 7.13852 14.6295 6.38565L13.6015 5.36327C12.8445 4.6104 11.6172 4.6104 10.8602 5.36327L6.45661 9.74278Z" fill="#3B9045"/>
<path d="M11.857 7.09756C11.1 6.34469 10.6567 5.56496 10.8668 5.35597L12.0892 4.14025C12.2993 3.93126 13.0834 4.37216 13.8404 5.12502L14.8684 6.14741C15.6254 6.90027 16.0687 7.68001 15.8586 7.889L14.6362 9.10472C14.426 9.31371 13.642 8.87281 12.885 8.11994L11.857 7.09756Z" fill="#4D5965"/>
<path d="M5.93819 10.6226H7.87661V12.0684H9.33043V13.9963L4.48438 15.4421L5.93819 10.6226Z" fill="#816E4E"/>
<path d="M6.08409 11.8276H7.24714V12.6952H8.11943V13.8519L5.4541 14.4784L6.08409 11.8276Z" fill="#F5C572"/>
<rect width="3.18098" height="0.966566" rx="0.483283" transform="matrix(0.709041 -0.705167 0.709041 0.705167 3.80029 15.5161)" fill="#594F40"/>
</g>
<defs>
<linearGradient id="paint0_linear" x1="7" y1="10" x2="7" y2="14" gradientUnits="userSpaceOnUse">
<stop stop-color="white"/>
<stop offset="1" stop-color="white" stop-opacity="0"/>
</linearGradient>
<clipPath id="clip0">
<rect width="16" height="16" fill="white"/>
</clipPath>
</defs>
</svg>
