<svg width="16" height="16" viewBox="0 0 16 16" fill="none" xmlns="http://www.w3.org/2000/svg">
<path d="M1 1H6V10H1V1Z" fill="white"/>
<path d="M8 3H6V10H8V3Z" fill="white"/>
<path d="M2 2H3V7H2V2Z" fill="#C4C4C4"/>
<path d="M6 2H7V7H6V2Z" fill="#C4C4C4"/>
<path d="M4 2H5V7H4V2Z" fill="#C4C4C4"/>
<path d="M7 6V7H2V6L7 6Z" fill="#C4C4C4"/>
<path d="M7 4V5L2 5L2 4L7 4Z" fill="#C4C4C4"/>
<path d="M7 2V3L2 3L2 2H7Z" fill="#C4C4C4"/>
<path d="M6 0H0V11H1V1H6V3H8V11H9V3L6 0Z" fill="#768390"/>
<path d="M1 10H8V11H1V10Z" fill="#768390"/>
<rect x="2" y="7" width="3" height="2" fill="#FF7A00"/>
<path d="M8 6H13V15H8V6Z" fill="white"/>
<path d="M15 8H13V15H15V8Z" fill="white"/>
<path d="M9 7H10V12H9V7Z" fill="#C4C4C4"/>
<path d="M13 7H14V12H13V7Z" fill="#C4C4C4"/>
<path d="M11 7H12V12H11V7Z" fill="#C4C4C4"/>
<path d="M14 11V12H9V11L14 11Z" fill="#C4C4C4"/>
<path d="M14 9V10L9 10L9 9L14 9Z" fill="#C4C4C4"/>
<path d="M14 7V8L9 8L9 7H14Z" fill="#C4C4C4"/>
<path d="M13 5H7V16H8V6H13V8H15V16H16V8L13 5Z" fill="#768390"/>
<path d="M8 15H15V16H8V15Z" fill="#768390"/>
<rect x="9" y="12" width="3" height="2" fill="#FF7A00"/>
</svg>
