<svg width="288" height="16" viewBox="0 0 288 16" fill="none" xmlns="http://www.w3.org/2000/svg">
<path d="M4 12C4 10.3431 5.51099 9 7.375 9H9.625C11.489 9 13 10.3431 13 12V14H4V12Z" fill="#3B92C1"/>
<path d="M7 9H10V10.3333C10 10.7015 9.32845 11 8.5 11C7.67155 11 7 10.7015 7 10.3333V9Z" fill="#DCEAF2"/>
<path d="M10 7H7V9H10V7Z" fill="#BB8942"/>
<path d="M12 6C12 6 10.433 6 8.5 6C6.56695 6 5 6 5 6C5 3.79086 6.56695 2 8.5 2C10.433 2 12 3.79086 12 6Z" fill="#110702"/>
<path d="M8.5 8C9.88071 8 11 6.88071 11 5.5C11 4.11929 9.88071 3 8.5 3C7.11929 3 6 4.11929 6 5.5C6 6.88071 7.11929 8 8.5 8Z" fill="#ECB968"/>
<path opacity="0.7" fill-rule="evenodd" clip-rule="evenodd" d="M14 15H3V12C3 10.1597 4.30798 8.719 6 8.20437V7.94949C5.7296 7.67356 5.50453 7.35304 5.33682 7H5.00007L5 6H6.05001C6.125 6.36944 6.28146 6.70929 6.49982 7C6.64208 7.18939 6.81061 7.35792 7 7.50018V9H7.375C7.24825 9 7.12312 9.00621 7 9.01831C6.64745 9.05295 6.31127 9.13585 6 9.25943C4.82137 9.72735 4 10.7784 4 12V14H13V12C13 10.7784 12.1786 9.72735 11 9.25943C10.6887 9.13585 10.3526 9.05295 10 9.01831C9.87687 9.00621 9.75175 9 9.625 9H10V7.50018C10.1894 7.35792 10.3579 7.18939 10.5002 7C10.7185 6.70929 10.875 6.36944 10.95 6H12L12 7H11.664C11.4963 7.35304 11.2704 7.67356 11 7.94949V8.20437C12.692 8.719 14 10.1597 14 12V15ZM12 6C12 5.99994 12 6.00006 12 6L12 7H13V6C13 3.36819 11.1066 1 8.5 1C5.8934 1 4 3.36819 4 6V7H5.00007L5 6C5 6.00006 5 5.99994 5 6C5 5.91045 5.00258 5.82142 5.00765 5.73333C5.01217 5.65492 5.01866 5.57712 5.02708 5.5C5.04565 5.32978 5.07358 5.16288 5.11026 5C5.49879 3.27477 6.8691 2 8.5 2C10.1309 2 11.5012 3.27477 11.8897 5C11.9264 5.16288 11.9543 5.32978 11.9729 5.5C11.9813 5.57712 11.9878 5.65492 11.9923 5.73333C11.9974 5.82142 12 5.91045 12 6Z" fill="white"/>
<path opacity="0.7" d="M8 5.5L6.5 7L5.5 5.5L5 4.5L6 3L8 5.5Z" fill="white"/>
<path d="M5.57042 0L3.5 2.11972L1.42958 0L0 1.42958L2.11972 3.5L0 5.57042L1.42958 7L3.5 4.88028L5.57042 7L7 5.57042L4.88028 3.5L7 1.42958L5.57042 0Z" fill="#ED604B"/>
<path d="M20 12C20 10.3431 21.511 9 23.375 9H25.625C27.489 9 29 10.3431 29 12V14H20V12Z" fill="#3B92C1"/>
<path d="M23 9H26V10.3333C26 10.7015 25.3284 11 24.5 11C23.6716 11 23 10.7015 23 10.3333V9Z" fill="#DCEAF2"/>
<path d="M26 7H23V9H26V7Z" fill="#BB8942"/>
<path d="M28 6C28 6 26.433 6 24.5 6C22.5669 6 21 6 21 6C21 3.79086 22.5669 2 24.5 2C26.433 2 28 3.79086 28 6Z" fill="#110702"/>
<path d="M24.5 8C25.8807 8 27 6.88071 27 5.5C27 4.11929 25.8807 3 24.5 3C23.1193 3 22 4.11929 22 5.5C22 6.88071 23.1193 8 24.5 8Z" fill="#ECB968"/>
<path opacity="0.7" fill-rule="evenodd" clip-rule="evenodd" d="M30 15H19V12C19 10.1597 20.308 8.719 22 8.20437V7.94949C21.7296 7.67356 21.5045 7.35304 21.3368 7H21.0001L21 6H22.05C22.125 6.36944 22.2815 6.70929 22.4998 7C22.6421 7.18939 22.8106 7.35792 23 7.50018V9H23.375C23.2482 9 23.1231 9.00621 23 9.01831C22.6474 9.05295 22.3113 9.13585 22 9.25943C20.8214 9.72735 20 10.7784 20 12V14H29V12C29 10.7784 28.1786 9.72735 27 9.25943C26.6887 9.13585 26.3526 9.05295 26 9.01831C25.8769 9.00621 25.7518 9 25.625 9H26V7.50018C26.1894 7.35792 26.3579 7.18939 26.5002 7C26.7185 6.70929 26.875 6.36944 26.95 6H28L28 7H27.664C27.4963 7.35304 27.2704 7.67356 27 7.94949V8.20437C28.692 8.719 30 10.1597 30 12V15ZM28 6C28 5.99994 28 6.00006 28 6L28 7H29V6C29 3.36819 27.1066 1 24.5 1C21.8934 1 20 3.36819 20 6V7H21.0001L21 6C21 6.00006 21 5.99994 21 6C21 5.91045 21.0026 5.82142 21.0077 5.73333C21.0122 5.65492 21.0187 5.57712 21.0271 5.5C21.0456 5.32978 21.0736 5.16288 21.1103 5C21.4988 3.27477 22.8691 2 24.5 2C26.1309 2 27.5012 3.27477 27.8897 5C27.9264 5.16288 27.9543 5.32978 27.9729 5.5C27.9813 5.57712 27.9878 5.65492 27.9923 5.73333C27.9974 5.82142 28 5.91045 28 6Z" fill="white"/>
<rect x="34" y="8" width="12" height="6" fill="#D9D9D9"/>
<path d="M34 8H46V14H34V8Z" fill="#F7DA7D"/>
<path d="M34 7H46V5.5H41L40 4H34V7Z" fill="#FFE069"/>
<path fill-rule="evenodd" clip-rule="evenodd" d="M35.9142 4C35.7816 4 35.6544 4.05268 35.5607 4.14645L34.1464 5.56066C34.0527 5.65443 34 5.78161 34 5.91421V13.5C34 13.7761 34.2239 14 34.5 14H45.5C45.7761 14 46 13.7761 46 13.5V6.5C46 6.22386 45.7761 6 45.5 6H41.5C41.0279 6 40.5833 5.77771 40.3 5.4L39.4 4.2C39.3056 4.0741 39.1574 4 39 4H35.9142ZM34.8536 3.43934C35.1349 3.15803 35.5164 3 35.9142 3H39C39.4721 3 39.9167 3.22229 40.2 3.6L41.1 4.8C41.1944 4.9259 41.3426 5 41.5 5H45.5C46.3284 5 47 5.67157 47 6.5V13.5C47 14.3284 46.3284 15 45.5 15H34.5C33.6716 15 33 14.3284 33 13.5V5.91421C33 5.51639 33.158 5.13486 33.4393 4.85355L34.8536 3.43934Z" fill="#BB8744"/>
<path d="M34 7H46V8H34V7Z" fill="#BB8744"/>
<path d="M36 12C36 10.3431 37.511 9 39.375 9H41.625C43.489 9 45 10.3431 45 12V14H36V12Z" fill="#3B92C1"/>
<path d="M39 9H42V10.3333C42 10.7015 41.3284 11 40.5 11C39.6716 11 39 10.7015 39 10.3333V9Z" fill="#DCEAF2"/>
<path d="M42 7H39V9H42V7Z" fill="#BB8942"/>
<path d="M44 6C44 6 42.433 6 40.5 6C38.5669 6 37 6 37 6C37 3.79086 38.5669 2 40.5 2C42.433 2 44 3.79086 44 6Z" fill="#110702"/>
<path d="M40.5 8C41.8807 8 43 6.88071 43 5.5C43 4.11929 41.8807 3 40.5 3C39.1193 3 38 4.11929 38 5.5C38 6.88071 39.1193 8 40.5 8Z" fill="#ECB968"/>
<path opacity="0.7" fill-rule="evenodd" clip-rule="evenodd" d="M46 15H35V12C35 10.1597 36.308 8.719 38 8.20437V7.94949C37.7296 7.67356 37.5045 7.35304 37.3368 7H37.0001L37 6H38.05C38.125 6.36944 38.2815 6.70929 38.4998 7C38.6421 7.18939 38.8106 7.35792 39 7.50018V9H39.375C39.2482 9 39.1231 9.00621 39 9.01831C38.6474 9.05295 38.3113 9.13585 38 9.25943C36.8214 9.72735 36 10.7784 36 12V14H45V12C45 10.7784 44.1786 9.72735 43 9.25943C42.6887 9.13585 42.3526 9.05295 42 9.01831C41.8769 9.00621 41.7518 9 41.625 9H42V7.50018C42.1894 7.35792 42.3579 7.18939 42.5002 7C42.7185 6.70929 42.875 6.36944 42.95 6H44L44 7H43.664C43.4963 7.35304 43.2704 7.67356 43 7.94949V8.20437C44.692 8.719 46 10.1597 46 12V15ZM44 6C44 5.99994 44 6.00006 44 6L44 7H45V6C45 3.36819 43.1066 1 40.5 1C37.8934 1 36 3.36819 36 6V7H37.0001L37 6C37 6.00006 37 5.99994 37 6C37 5.91045 37.0026 5.82142 37.0077 5.73333C37.0122 5.65492 37.0187 5.57712 37.0271 5.5C37.0456 5.32978 37.0736 5.16288 37.1103 5C37.4988 3.27477 38.8691 2 40.5 2C42.1309 2 43.5012 3.27477 43.8897 5C43.9264 5.16288 43.9543 5.32978 43.9729 5.5C43.9813 5.57712 43.9878 5.65492 43.9923 5.73333C43.9974 5.82142 44 5.91045 44 6Z" fill="white"/>
<path opacity="0.7" d="M40 5.5L38.5 7L37.5 5.5L37 4.5L38 3L40 5.5Z" fill="white"/>
<path d="M37.5704 0L35.5 2.11972L33.4296 0L32 1.42958L34.1197 3.5L32 5.57042L33.4296 7L35.5 4.88028L37.5704 7L39 5.57042L36.8803 3.5L39 1.42958L37.5704 0Z" fill="#ED604B"/>
<rect x="50" y="8" width="12" height="6" fill="#D9D9D9"/>
<path d="M50 8H62V14H50V8Z" fill="#F7DA7D"/>
<path d="M50 7H62V5.5H57L56 4H50V7Z" fill="#FFE069"/>
<path fill-rule="evenodd" clip-rule="evenodd" d="M51.9142 4C51.7816 4 51.6544 4.05268 51.5607 4.14645L50.1464 5.56066C50.0527 5.65443 50 5.78161 50 5.91421V13.5C50 13.7761 50.2239 14 50.5 14H61.5C61.7761 14 62 13.7761 62 13.5V6.5C62 6.22386 61.7761 6 61.5 6H57.5C57.0279 6 56.5833 5.77771 56.3 5.4L55.4 4.2C55.3056 4.0741 55.1574 4 55 4H51.9142ZM50.8536 3.43934C51.1349 3.15803 51.5164 3 51.9142 3H55C55.4721 3 55.9167 3.22229 56.2 3.6L57.1 4.8C57.1944 4.9259 57.3426 5 57.5 5H61.5C62.3284 5 63 5.67157 63 6.5V13.5C63 14.3284 62.3284 15 61.5 15H50.5C49.6716 15 49 14.3284 49 13.5V5.91421C49 5.51639 49.158 5.13486 49.4393 4.85355L50.8536 3.43934Z" fill="#BB8744"/>
<path d="M50 7H62V8H50V7Z" fill="#BB8744"/>
<path d="M52 12C52 10.3431 53.511 9 55.375 9H57.625C59.489 9 61 10.3431 61 12V14H52V12Z" fill="#3B92C1"/>
<path d="M55 9H58V10.3333C58 10.7015 57.3284 11 56.5 11C55.6716 11 55 10.7015 55 10.3333V9Z" fill="#DCEAF2"/>
<path d="M58 7H55V9H58V7Z" fill="#BB8942"/>
<path d="M60 6C60 6 58.433 6 56.5 6C54.5669 6 53 6 53 6C53 3.79086 54.5669 2 56.5 2C58.433 2 60 3.79086 60 6Z" fill="#110702"/>
<path d="M56.5 8C57.8807 8 59 6.88071 59 5.5C59 4.11929 57.8807 3 56.5 3C55.1193 3 54 4.11929 54 5.5C54 6.88071 55.1193 8 56.5 8Z" fill="#ECB968"/>
<path opacity="0.7" fill-rule="evenodd" clip-rule="evenodd" d="M62 15H51V12C51 10.1597 52.308 8.719 54 8.20437V7.94949C53.7296 7.67356 53.5045 7.35304 53.3368 7H53.0001L53 6H54.05C54.125 6.36944 54.2815 6.70929 54.4998 7C54.6421 7.18939 54.8106 7.35792 55 7.50018V9H55.375C55.2482 9 55.1231 9.00621 55 9.01831C54.6474 9.05295 54.3113 9.13585 54 9.25943C52.8214 9.72735 52 10.7784 52 12V14H61V12C61 10.7784 60.1786 9.72735 59 9.25943C58.6887 9.13585 58.3526 9.05295 58 9.01831C57.8769 9.00621 57.7518 9 57.625 9H58V7.50018C58.1894 7.35792 58.3579 7.18939 58.5002 7C58.7185 6.70929 58.875 6.36944 58.95 6H60L60 7H59.664C59.4963 7.35304 59.2704 7.67356 59 7.94949V8.20437C60.692 8.719 62 10.1597 62 12V15ZM60 6C60 5.99994 60 6.00006 60 6L60 7H61V6C61 3.36819 59.1066 1 56.5 1C53.8934 1 52 3.36819 52 6V7H53.0001L53 6C53 6.00006 53 5.99994 53 6C53 5.91045 53.0026 5.82142 53.0077 5.73333C53.0122 5.65492 53.0187 5.57712 53.0271 5.5C53.0456 5.32978 53.0736 5.16288 53.1103 5C53.4988 3.27477 54.8691 2 56.5 2C58.1309 2 59.5012 3.27477 59.8897 5C59.9264 5.16288 59.9543 5.32978 59.9729 5.5C59.9813 5.57712 59.9878 5.65492 59.9923 5.73333C59.9974 5.82142 60 5.91045 60 6Z" fill="white"/>
<path d="M68 12C68 10.3431 69.511 9 71.375 9H73.625C75.489 9 77 10.3431 77 12V14H68V12Z" fill="#3B92C1"/>
<path d="M71 9H74V10.3333C74 10.7015 73.3284 11 72.5 11C71.6716 11 71 10.7015 71 10.3333V9Z" fill="#DCEAF2"/>
<path d="M74 7H71V9H74V7Z" fill="#BB8942"/>
<path d="M76 6C76 6 74.433 6 72.5 6C70.5669 6 69 6 69 6C69 3.79086 70.5669 2 72.5 2C74.433 2 76 3.79086 76 6Z" fill="#110702"/>
<path d="M72.5 8C73.8807 8 75 6.88071 75 5.5C75 4.11929 73.8807 3 72.5 3C71.1193 3 70 4.11929 70 5.5C70 6.88071 71.1193 8 72.5 8Z" fill="#ECB968"/>
<path opacity="0.7" fill-rule="evenodd" clip-rule="evenodd" d="M78 15H67V12C67 10.1597 68.308 8.719 70 8.20437V7.94949C69.7296 7.67356 69.5045 7.35304 69.3368 7H69.0001L69 6H70.05C70.125 6.36944 70.2815 6.70929 70.4998 7C70.6421 7.18939 70.8106 7.35792 71 7.50018V9H71.375C71.2482 9 71.1231 9.00621 71 9.01831C70.6474 9.05295 70.3113 9.13585 70 9.25943C68.8214 9.72735 68 10.7784 68 12V14H77V12C77 10.7784 76.1786 9.72735 75 9.25943C74.6887 9.13585 74.3526 9.05295 74 9.01831C73.8769 9.00621 73.7518 9 73.625 9H74V7.50018C74.1894 7.35792 74.3579 7.18939 74.5002 7C74.7185 6.70929 74.875 6.36944 74.95 6H76L76 7H75.664C75.4963 7.35304 75.2704 7.67356 75 7.94949V8.20437C76.692 8.719 78 10.1597 78 12V15ZM76 6C76 5.99994 76 6.00006 76 6L76 7H77V6C77 3.36819 75.1066 1 72.5 1C69.8934 1 68 3.36819 68 6V7H69.0001L69 6C69 6.00006 69 5.99994 69 6C69 5.91045 69.0026 5.82142 69.0077 5.73333C69.0122 5.65492 69.0187 5.57712 69.0271 5.5C69.0456 5.32978 69.0736 5.16288 69.1103 5C69.4988 3.27477 70.8691 2 72.5 2C74.1309 2 75.5012 3.27477 75.8897 5C75.9264 5.16288 75.9543 5.32978 75.9729 5.5C75.9813 5.57712 75.9878 5.65492 75.9923 5.73333C75.9974 5.82142 76 5.91045 76 6Z" fill="white"/>
<path d="M66.3095 0.00358324C65.4996 0.00191163 64.7035 0.217664 64 0.629416L64.5318 1.72543C65.0427 1.43028 65.6139 1.26222 66.1996 1.23475C66.43 1.22068 66.6589 1.28021 66.855 1.40514C66.9317 1.46053 66.9935 1.53503 67.0344 1.62166C67.0754 1.70828 67.0942 1.80417 67.0891 1.9003C67.0904 2.08878 67.0331 2.27279 66.9255 2.42556C66.731 2.66217 66.5034 2.8679 66.2502 3.03602C65.9599 3.23549 65.7114 3.49247 65.5192 3.79189C65.3814 4.04733 65.3124 4.33591 65.3195 4.62783V5H66.6116V4.69765C66.6043 4.52656 66.6478 4.35723 66.7364 4.2121C66.9089 4.005 67.1085 3.8233 67.3294 3.67211C67.6894 3.43281 68.0032 3.12725 68.255 2.77083C68.4227 2.48421 68.5074 2.15446 68.4991 1.82023C68.5075 1.56776 68.4583 1.31676 68.3553 1.0873C68.2524 0.857837 68.0985 0.65628 67.9061 0.498741C67.4466 0.14741 66.8817 -0.0277705 66.3095 0.00358324Z" fill="#333333"/>
<path d="M66.0002 9.00046C66.5526 9.00046 67.0005 8.55264 67.0005 8.00023C67.0005 7.44782 66.5526 7 66.0002 7C65.4478 7 65 7.44782 65 8.00023C65 8.55264 65.4478 9.00046 66.0002 9.00046Z" fill="#333333"/>
<path d="M84 12C84 10.3431 85.511 9 87.375 9H89.625C91.489 9 93 10.3431 93 12V14H84V12Z" fill="#3B92C1"/>
<path d="M87 9H90V10.3333C90 10.7015 89.3284 11 88.5 11C87.6716 11 87 10.7015 87 10.3333V9Z" fill="#DCEAF2"/>
<path d="M90 7H87V9H90V7Z" fill="#BB8942"/>
<path d="M92 6C92 6 90.433 6 88.5 6C86.5669 6 85 6 85 6C85 3.79086 86.5669 2 88.5 2C90.433 2 92 3.79086 92 6Z" fill="#110702"/>
<path d="M88.5 8C89.8807 8 91 6.88071 91 5.5C91 4.11929 89.8807 3 88.5 3C87.1193 3 86 4.11929 86 5.5C86 6.88071 87.1193 8 88.5 8Z" fill="#ECB968"/>
<path opacity="0.7" fill-rule="evenodd" clip-rule="evenodd" d="M94 15H83V12C83 10.1597 84.308 8.719 86 8.20437V7.94949C85.7296 7.67356 85.5045 7.35304 85.3368 7H85.0001L85 6H86.05C86.125 6.36944 86.2815 6.70929 86.4998 7C86.6421 7.18939 86.8106 7.35792 87 7.50018V9H87.375C87.2482 9 87.1231 9.00621 87 9.01831C86.6474 9.05295 86.3113 9.13585 86 9.25943C84.8214 9.72735 84 10.7784 84 12V14H93V12C93 10.7784 92.1786 9.72735 91 9.25943C90.6887 9.13585 90.3526 9.05295 90 9.01831C89.8769 9.00621 89.7518 9 89.625 9H90V7.50018C90.1894 7.35792 90.3579 7.18939 90.5002 7C90.7185 6.70929 90.875 6.36944 90.95 6H92L92 7H91.664C91.4963 7.35304 91.2704 7.67356 91 7.94949V8.20437C92.692 8.719 94 10.1597 94 12V15ZM92 6C92 5.99994 92 6.00006 92 6L92 7H93V6C93 3.36819 91.1066 1 88.5 1C85.8934 1 84 3.36819 84 6V7H85.0001L85 6C85 6.00006 85 5.99994 85 6C85 5.91045 85.0026 5.82142 85.0077 5.73333C85.0122 5.65492 85.0187 5.57712 85.0271 5.5C85.0456 5.32978 85.0736 5.16288 85.1103 5C85.4988 3.27477 86.8691 2 88.5 2C90.1309 2 91.5012 3.27477 91.8897 5C91.9264 5.16288 91.9543 5.32978 91.9729 5.5C91.9813 5.57712 91.9878 5.65492 91.9923 5.73333C91.9974 5.82142 92 5.91045 92 6Z" fill="white"/>
<path d="M82.0002 9.00046C82.5526 9.00046 83.0005 8.55264 83.0005 8.00023C83.0005 7.44782 82.5526 7 82.0002 7C81.4478 7 81 7.44782 81 8.00023C81 8.55264 81.4478 9.00046 82.0002 9.00046Z" fill="#ED604B"/>
<rect x="81" width="2" height="5" rx="1" fill="#ED604B"/>
<path d="M100 12C100 10.3431 101.511 9 103.375 9H105.625C107.489 9 109 10.3431 109 12V14H100V12Z" fill="#3DB689"/>
<path d="M103 9H106V10.3333C106 10.7015 105.328 11 104.5 11C103.672 11 103 10.7015 103 10.3333V9Z" fill="#DCEAF2"/>
<path d="M106 7H103V9H106V7Z" fill="#BB8942"/>
<path d="M108 6C108 6 106.433 6 104.5 6C102.567 6 101 6 101 6C101 3.79086 102.567 2 104.5 2C106.433 2 108 3.79086 108 6Z" fill="#110702"/>
<path d="M104.5 8C105.881 8 107 6.88071 107 5.5C107 4.11929 105.881 3 104.5 3C103.119 3 102 4.11929 102 5.5C102 6.88071 103.119 8 104.5 8Z" fill="#ECB968"/>
<path opacity="0.7" fill-rule="evenodd" clip-rule="evenodd" d="M110 15H99V12C99 10.1597 100.308 8.719 102 8.20437V7.94949C101.73 7.67356 101.505 7.35304 101.337 7H101L101 6H102.05C102.125 6.36944 102.281 6.70929 102.5 7C102.642 7.18939 102.811 7.35792 103 7.50018V9H103.375C103.248 9 103.123 9.00621 103 9.01831C102.647 9.05295 102.311 9.13585 102 9.25943C100.821 9.72735 100 10.7784 100 12V14H109V12C109 10.7784 108.179 9.72735 107 9.25943C106.689 9.13585 106.353 9.05295 106 9.01831C105.877 9.00621 105.752 9 105.625 9H106V7.50018C106.189 7.35792 106.358 7.18939 106.5 7C106.719 6.70929 106.875 6.36944 106.95 6H108L108 7H107.664C107.496 7.35304 107.27 7.67356 107 7.94949V8.20437C108.692 8.719 110 10.1597 110 12V15ZM108 6C108 5.99994 108 6.00006 108 6L108 7H109V6C109 3.36819 107.107 1 104.5 1C101.893 1 100 3.36819 100 6V7H101L101 6C101 6.00006 101 5.99994 101 6C101 5.91045 101.003 5.82142 101.008 5.73333C101.012 5.65492 101.019 5.57712 101.027 5.5C101.046 5.32978 101.074 5.16288 101.11 5C101.499 3.27477 102.869 2 104.5 2C106.131 2 107.501 3.27477 107.89 5C107.926 5.16288 107.954 5.32978 107.973 5.5C107.981 5.57712 107.988 5.65492 107.992 5.73333C107.997 5.82142 108 5.91045 108 6Z" fill="white"/>
<path opacity="0.7" d="M104 5.5L102.5 7L101.5 5.5L101 4.5L102 3L104 5.5Z" fill="white"/>
<path d="M101.57 0L99.5 2.11972L97.4296 0L96 1.42958L98.1197 3.5L96 5.57042L97.4296 7L99.5 4.88028L101.57 7L103 5.57042L100.88 3.5L103 1.42958L101.57 0Z" fill="#ED604B"/>
<path d="M116 12C116 10.3431 117.511 9 119.375 9H121.625C123.489 9 125 10.3431 125 12V14H116V12Z" fill="#3DB689"/>
<path d="M119 9H122V10.3333C122 10.7015 121.328 11 120.5 11C119.672 11 119 10.7015 119 10.3333V9Z" fill="#DCEAF2"/>
<path d="M122 7H119V9H122V7Z" fill="#BB8942"/>
<path d="M124 6C124 6 122.433 6 120.5 6C118.567 6 117 6 117 6C117 3.79086 118.567 2 120.5 2C122.433 2 124 3.79086 124 6Z" fill="#110702"/>
<path d="M120.5 8C121.881 8 123 6.88071 123 5.5C123 4.11929 121.881 3 120.5 3C119.119 3 118 4.11929 118 5.5C118 6.88071 119.119 8 120.5 8Z" fill="#ECB968"/>
<path opacity="0.7" fill-rule="evenodd" clip-rule="evenodd" d="M126 15H115V12C115 10.1597 116.308 8.719 118 8.20437V7.94949C117.73 7.67356 117.505 7.35304 117.337 7H117L117 6H118.05C118.125 6.36944 118.281 6.70929 118.5 7C118.642 7.18939 118.811 7.35792 119 7.50018V9H119.375C119.248 9 119.123 9.00621 119 9.01831C118.647 9.05295 118.311 9.13585 118 9.25943C116.821 9.72735 116 10.7784 116 12V14H125V12C125 10.7784 124.179 9.72735 123 9.25943C122.689 9.13585 122.353 9.05295 122 9.01831C121.877 9.00621 121.752 9 121.625 9H122V7.50018C122.189 7.35792 122.358 7.18939 122.5 7C122.719 6.70929 122.875 6.36944 122.95 6H124L124 7H123.664C123.496 7.35304 123.27 7.67356 123 7.94949V8.20437C124.692 8.719 126 10.1597 126 12V15ZM124 6C124 5.99994 124 6.00006 124 6L124 7H125V6C125 3.36819 123.107 1 120.5 1C117.893 1 116 3.36819 116 6V7H117L117 6C117 6.00006 117 5.99994 117 6C117 5.91045 117.003 5.82142 117.008 5.73333C117.012 5.65492 117.019 5.57712 117.027 5.5C117.046 5.32978 117.074 5.16288 117.11 5C117.499 3.27477 118.869 2 120.5 2C122.131 2 123.501 3.27477 123.89 5C123.926 5.16288 123.954 5.32978 123.973 5.5C123.981 5.57712 123.988 5.65492 123.992 5.73333C123.997 5.82142 124 5.91045 124 6Z" fill="white"/>
<rect x="130" y="8" width="12" height="6" fill="#D9D9D9"/>
<path d="M130 8H142V14H130V8Z" fill="#F7DA7D"/>
<path d="M130 7H142V5.5H137L136 4H130V7Z" fill="#FFE069"/>
<path fill-rule="evenodd" clip-rule="evenodd" d="M131.914 4C131.782 4 131.654 4.05268 131.561 4.14645L130.146 5.56066C130.053 5.65443 130 5.78161 130 5.91421V13.5C130 13.7761 130.224 14 130.5 14H141.5C141.776 14 142 13.7761 142 13.5V6.5C142 6.22386 141.776 6 141.5 6H137.5C137.028 6 136.583 5.77771 136.3 5.4L135.4 4.2C135.306 4.0741 135.157 4 135 4H131.914ZM130.854 3.43934C131.135 3.15803 131.516 3 131.914 3H135C135.472 3 135.917 3.22229 136.2 3.6L137.1 4.8C137.194 4.9259 137.343 5 137.5 5H141.5C142.328 5 143 5.67157 143 6.5V13.5C143 14.3284 142.328 15 141.5 15H130.5C129.672 15 129 14.3284 129 13.5V5.91421C129 5.51639 129.158 5.13486 129.439 4.85355L130.854 3.43934Z" fill="#BB8744"/>
<path d="M130 7H142V8H130V7Z" fill="#BB8744"/>
<path d="M132 12C132 10.3431 133.511 9 135.375 9H137.625C139.489 9 141 10.3431 141 12V14H132V12Z" fill="#3DB689"/>
<path d="M135 9H138V10.3333C138 10.7015 137.328 11 136.5 11C135.672 11 135 10.7015 135 10.3333V9Z" fill="#DCEAF2"/>
<path d="M138 7H135V9H138V7Z" fill="#BB8942"/>
<path d="M140 6C140 6 138.433 6 136.5 6C134.567 6 133 6 133 6C133 3.79086 134.567 2 136.5 2C138.433 2 140 3.79086 140 6Z" fill="#110702"/>
<path d="M136.5 8C137.881 8 139 6.88071 139 5.5C139 4.11929 137.881 3 136.5 3C135.119 3 134 4.11929 134 5.5C134 6.88071 135.119 8 136.5 8Z" fill="#ECB968"/>
<path opacity="0.7" fill-rule="evenodd" clip-rule="evenodd" d="M142 15H131V12C131 10.1597 132.308 8.719 134 8.20437V7.94949C133.73 7.67356 133.505 7.35304 133.337 7H133L133 6H134.05C134.125 6.36944 134.281 6.70929 134.5 7C134.642 7.18939 134.811 7.35792 135 7.50018V9H135.375C135.248 9 135.123 9.00621 135 9.01831C134.647 9.05295 134.311 9.13585 134 9.25943C132.821 9.72735 132 10.7784 132 12V14H141V12C141 10.7784 140.179 9.72735 139 9.25943C138.689 9.13585 138.353 9.05295 138 9.01831C137.877 9.00621 137.752 9 137.625 9H138V7.50018C138.189 7.35792 138.358 7.18939 138.5 7C138.719 6.70929 138.875 6.36944 138.95 6H140L140 7H139.664C139.496 7.35304 139.27 7.67356 139 7.94949V8.20437C140.692 8.719 142 10.1597 142 12V15ZM140 6C140 5.99994 140 6.00006 140 6L140 7H141V6C141 3.36819 139.107 1 136.5 1C133.893 1 132 3.36819 132 6V7H133L133 6C133 6.00006 133 5.99994 133 6C133 5.91045 133.003 5.82142 133.008 5.73333C133.012 5.65492 133.019 5.57712 133.027 5.5C133.046 5.32978 133.074 5.16288 133.11 5C133.499 3.27477 134.869 2 136.5 2C138.131 2 139.501 3.27477 139.89 5C139.926 5.16288 139.954 5.32978 139.973 5.5C139.981 5.57712 139.988 5.65492 139.992 5.73333C139.997 5.82142 140 5.91045 140 6Z" fill="white"/>
<path opacity="0.7" d="M136 5.5L134.5 7L133.5 5.5L133 4.5L134 3L136 5.5Z" fill="white"/>
<path d="M133.57 0L131.5 2.11972L129.43 0L128 1.42958L130.12 3.5L128 5.57042L129.43 7L131.5 4.88028L133.57 7L135 5.57042L132.88 3.5L135 1.42958L133.57 0Z" fill="#ED604B"/>
<rect x="146" y="8" width="12" height="6" fill="#D9D9D9"/>
<path d="M146 8H158V14H146V8Z" fill="#F7DA7D"/>
<path d="M146 7H158V5.5H153L152 4H146V7Z" fill="#FFE069"/>
<path fill-rule="evenodd" clip-rule="evenodd" d="M147.914 4C147.782 4 147.654 4.05268 147.561 4.14645L146.146 5.56066C146.053 5.65443 146 5.78161 146 5.91421V13.5C146 13.7761 146.224 14 146.5 14H157.5C157.776 14 158 13.7761 158 13.5V6.5C158 6.22386 157.776 6 157.5 6H153.5C153.028 6 152.583 5.77771 152.3 5.4L151.4 4.2C151.306 4.0741 151.157 4 151 4H147.914ZM146.854 3.43934C147.135 3.15803 147.516 3 147.914 3H151C151.472 3 151.917 3.22229 152.2 3.6L153.1 4.8C153.194 4.9259 153.343 5 153.5 5H157.5C158.328 5 159 5.67157 159 6.5V13.5C159 14.3284 158.328 15 157.5 15H146.5C145.672 15 145 14.3284 145 13.5V5.91421C145 5.51639 145.158 5.13486 145.439 4.85355L146.854 3.43934Z" fill="#BB8744"/>
<path d="M146 7H158V8H146V7Z" fill="#BB8744"/>
<path d="M148 12C148 10.3431 149.511 9 151.375 9H153.625C155.489 9 157 10.3431 157 12V14H148V12Z" fill="#3DB689"/>
<path d="M151 9H154V10.3333C154 10.7015 153.328 11 152.5 11C151.672 11 151 10.7015 151 10.3333V9Z" fill="#DCEAF2"/>
<path d="M154 7H151V9H154V7Z" fill="#BB8942"/>
<path d="M156 6C156 6 154.433 6 152.5 6C150.567 6 149 6 149 6C149 3.79086 150.567 2 152.5 2C154.433 2 156 3.79086 156 6Z" fill="#110702"/>
<path d="M152.5 8C153.881 8 155 6.88071 155 5.5C155 4.11929 153.881 3 152.5 3C151.119 3 150 4.11929 150 5.5C150 6.88071 151.119 8 152.5 8Z" fill="#ECB968"/>
<path opacity="0.7" fill-rule="evenodd" clip-rule="evenodd" d="M158 15H147V12C147 10.1597 148.308 8.719 150 8.20437V7.94949C149.73 7.67356 149.505 7.35304 149.337 7H149L149 6H150.05C150.125 6.36944 150.281 6.70929 150.5 7C150.642 7.18939 150.811 7.35792 151 7.50018V9H151.375C151.248 9 151.123 9.00621 151 9.01831C150.647 9.05295 150.311 9.13585 150 9.25943C148.821 9.72735 148 10.7784 148 12V14H157V12C157 10.7784 156.179 9.72735 155 9.25943C154.689 9.13585 154.353 9.05295 154 9.01831C153.877 9.00621 153.752 9 153.625 9H154V7.50018C154.189 7.35792 154.358 7.18939 154.5 7C154.719 6.70929 154.875 6.36944 154.95 6H156L156 7H155.664C155.496 7.35304 155.27 7.67356 155 7.94949V8.20437C156.692 8.719 158 10.1597 158 12V15ZM156 6C156 5.99994 156 6.00006 156 6L156 7H157V6C157 3.36819 155.107 1 152.5 1C149.893 1 148 3.36819 148 6V7H149L149 6C149 6.00006 149 5.99994 149 6C149 5.91045 149.003 5.82142 149.008 5.73333C149.012 5.65492 149.019 5.57712 149.027 5.5C149.046 5.32978 149.074 5.16288 149.11 5C149.499 3.27477 150.869 2 152.5 2C154.131 2 155.501 3.27477 155.89 5C155.926 5.16288 155.954 5.32978 155.973 5.5C155.981 5.57712 155.988 5.65492 155.992 5.73333C155.997 5.82142 156 5.91045 156 6Z" fill="white"/>
<path d="M164 12C164 10.3431 165.511 9 167.375 9H169.625C171.489 9 173 10.3431 173 12V14H164V12Z" fill="#3DB689"/>
<path d="M167 9H170V10.3333C170 10.7015 169.328 11 168.5 11C167.672 11 167 10.7015 167 10.3333V9Z" fill="#DCEAF2"/>
<path d="M170 7H167V9H170V7Z" fill="#BB8942"/>
<path d="M172 6C172 6 170.433 6 168.5 6C166.567 6 165 6 165 6C165 3.79086 166.567 2 168.5 2C170.433 2 172 3.79086 172 6Z" fill="#110702"/>
<path d="M168.5 8C169.881 8 171 6.88071 171 5.5C171 4.11929 169.881 3 168.5 3C167.119 3 166 4.11929 166 5.5C166 6.88071 167.119 8 168.5 8Z" fill="#ECB968"/>
<path opacity="0.7" fill-rule="evenodd" clip-rule="evenodd" d="M174 15H163V12C163 10.1597 164.308 8.719 166 8.20437V7.94949C165.73 7.67356 165.505 7.35304 165.337 7H165L165 6H166.05C166.125 6.36944 166.281 6.70929 166.5 7C166.642 7.18939 166.811 7.35792 167 7.50018V9H167.375C167.248 9 167.123 9.00621 167 9.01831C166.647 9.05295 166.311 9.13585 166 9.25943C164.821 9.72735 164 10.7784 164 12V14H173V12C173 10.7784 172.179 9.72735 171 9.25943C170.689 9.13585 170.353 9.05295 170 9.01831C169.877 9.00621 169.752 9 169.625 9H170V7.50018C170.189 7.35792 170.358 7.18939 170.5 7C170.719 6.70929 170.875 6.36944 170.95 6H172L172 7H171.664C171.496 7.35304 171.27 7.67356 171 7.94949V8.20437C172.692 8.719 174 10.1597 174 12V15ZM172 6C172 5.99994 172 6.00006 172 6L172 7H173V6C173 3.36819 171.107 1 168.5 1C165.893 1 164 3.36819 164 6V7H165L165 6C165 6.00006 165 5.99994 165 6C165 5.91045 165.003 5.82142 165.008 5.73333C165.012 5.65492 165.019 5.57712 165.027 5.5C165.046 5.32978 165.074 5.16288 165.11 5C165.499 3.27477 166.869 2 168.5 2C170.131 2 171.501 3.27477 171.89 5C171.926 5.16288 171.954 5.32978 171.973 5.5C171.981 5.57712 171.988 5.65492 171.992 5.73333C171.997 5.82142 172 5.91045 172 6Z" fill="white"/>
<path d="M162.309 0.00358324C161.5 0.00191163 160.703 0.217664 160 0.629416L160.532 1.72543C161.043 1.43028 161.614 1.26222 162.2 1.23475C162.43 1.22068 162.659 1.28021 162.855 1.40514C162.932 1.46053 162.993 1.53503 163.034 1.62166C163.075 1.70828 163.094 1.80417 163.089 1.9003C163.09 2.08878 163.033 2.27279 162.926 2.42556C162.731 2.66217 162.503 2.8679 162.25 3.03602C161.96 3.23549 161.711 3.49247 161.519 3.79189C161.381 4.04733 161.312 4.33591 161.32 4.62783V5H162.612V4.69765C162.604 4.52656 162.648 4.35723 162.736 4.2121C162.909 4.005 163.108 3.8233 163.329 3.67211C163.689 3.43281 164.003 3.12725 164.255 2.77083C164.423 2.48421 164.507 2.15446 164.499 1.82023C164.508 1.56776 164.458 1.31676 164.355 1.0873C164.252 0.857837 164.099 0.65628 163.906 0.498741C163.447 0.14741 162.882 -0.0277705 162.309 0.00358324Z" fill="#333333"/>
<path d="M162 9.00046C162.553 9.00046 163 8.55264 163 8.00023C163 7.44782 162.553 7 162 7C161.448 7 161 7.44782 161 8.00023C161 8.55264 161.448 9.00046 162 9.00046Z" fill="#333333"/>
<path d="M180 12C180 10.3431 181.511 9 183.375 9H185.625C187.489 9 189 10.3431 189 12V14H180V12Z" fill="#3DB689"/>
<path d="M183 9H186V10.3333C186 10.7015 185.328 11 184.5 11C183.672 11 183 10.7015 183 10.3333V9Z" fill="#DCEAF2"/>
<path d="M186 7H183V9H186V7Z" fill="#BB8942"/>
<path d="M188 6C188 6 186.433 6 184.5 6C182.567 6 181 6 181 6C181 3.79086 182.567 2 184.5 2C186.433 2 188 3.79086 188 6Z" fill="#110702"/>
<path d="M184.5 8C185.881 8 187 6.88071 187 5.5C187 4.11929 185.881 3 184.5 3C183.119 3 182 4.11929 182 5.5C182 6.88071 183.119 8 184.5 8Z" fill="#ECB968"/>
<path opacity="0.7" fill-rule="evenodd" clip-rule="evenodd" d="M190 15H179V12C179 10.1597 180.308 8.719 182 8.20437V7.94949C181.73 7.67356 181.505 7.35304 181.337 7H181L181 6H182.05C182.125 6.36944 182.281 6.70929 182.5 7C182.642 7.18939 182.811 7.35792 183 7.50018V9H183.375C183.248 9 183.123 9.00621 183 9.01831C182.647 9.05295 182.311 9.13585 182 9.25943C180.821 9.72735 180 10.7784 180 12V14H189V12C189 10.7784 188.179 9.72735 187 9.25943C186.689 9.13585 186.353 9.05295 186 9.01831C185.877 9.00621 185.752 9 185.625 9H186V7.50018C186.189 7.35792 186.358 7.18939 186.5 7C186.719 6.70929 186.875 6.36944 186.95 6H188L188 7H187.664C187.496 7.35304 187.27 7.67356 187 7.94949V8.20437C188.692 8.719 190 10.1597 190 12V15ZM188 6C188 5.99994 188 6.00006 188 6L188 7H189V6C189 3.36819 187.107 1 184.5 1C181.893 1 180 3.36819 180 6V7H181L181 6C181 6.00006 181 5.99994 181 6C181 5.91045 181.003 5.82142 181.008 5.73333C181.012 5.65492 181.019 5.57712 181.027 5.5C181.046 5.32978 181.074 5.16288 181.11 5C181.499 3.27477 182.869 2 184.5 2C186.131 2 187.501 3.27477 187.89 5C187.926 5.16288 187.954 5.32978 187.973 5.5C187.981 5.57712 187.988 5.65492 187.992 5.73333C187.997 5.82142 188 5.91045 188 6Z" fill="white"/>
<path d="M178 9.00046C178.553 9.00046 179 8.55264 179 8.00023C179 7.44782 178.553 7 178 7C177.448 7 177 7.44782 177 8.00023C177 8.55264 177.448 9.00046 178 9.00046Z" fill="#ED604B"/>
<rect x="177" width="2" height="5" rx="1" fill="#ED604B"/>
<path d="M196 12C196 10.3431 197.511 9 199.375 9H201.625C203.489 9 205 10.3431 205 12V14H196V12Z" fill="#3B92C1"/>
<path d="M199 9H202V10.3333C202 10.7015 201.328 11 200.5 11C199.672 11 199 10.7015 199 10.3333V9Z" fill="#DCEAF2"/>
<path d="M202 7H199V9H202V7Z" fill="#BB8942"/>
<path d="M204 6C204 6 202.433 6 200.5 6C198.567 6 197 6 197 6C197 3.79086 198.567 2 200.5 2C202.433 2 204 3.79086 204 6Z" fill="#110702"/>
<path d="M200.5 8C201.881 8 203 6.88071 203 5.5C203 4.11929 201.881 3 200.5 3C199.119 3 198 4.11929 198 5.5C198 6.88071 199.119 8 200.5 8Z" fill="#ECB968"/>
<path opacity="0.7" fill-rule="evenodd" clip-rule="evenodd" d="M206 15H195V12C195 10.1597 196.308 8.719 198 8.20437V7.94949C197.73 7.67356 197.505 7.35304 197.337 7H197L197 6H198.05C198.125 6.36944 198.281 6.70929 198.5 7C198.642 7.18939 198.811 7.35792 199 7.50018V9H199.375C199.248 9 199.123 9.00621 199 9.01831C198.647 9.05295 198.311 9.13585 198 9.25943C196.821 9.72735 196 10.7784 196 12V14H205V12C205 10.7784 204.179 9.72735 203 9.25943C202.689 9.13585 202.353 9.05295 202 9.01831C201.877 9.00621 201.752 9 201.625 9H202V7.50018C202.189 7.35792 202.358 7.18939 202.5 7C202.719 6.70929 202.875 6.36944 202.95 6H204L204 7H203.664C203.496 7.35304 203.27 7.67356 203 7.94949V8.20437C204.692 8.719 206 10.1597 206 12V15ZM204 6C204 5.99994 204 6.00006 204 6L204 7H205V6C205 3.36819 203.107 1 200.5 1C197.893 1 196 3.36819 196 6V7H197L197 6C197 6.00006 197 5.99994 197 6C197 5.91045 197.003 5.82142 197.008 5.73333C197.012 5.65492 197.019 5.57712 197.027 5.5C197.046 5.32978 197.074 5.16288 197.11 5C197.499 3.27477 198.869 2 200.5 2C202.131 2 203.501 3.27477 203.89 5C203.926 5.16288 203.954 5.32978 203.973 5.5C203.981 5.57712 203.988 5.65492 203.992 5.73333C203.997 5.82142 204 5.91045 204 6Z" fill="white"/>
<circle opacity="0.5" cx="195.5" cy="3.5" r="3.5" fill="#F7F7F7"/>
<path d="M197.184 0.941617L197.178 0.937617C196.61 0.404451 195.857 0.113247 195.078 0.125623C194.299 0.137999 193.555 0.452983 193.004 1.00393C192.453 1.55487 192.138 2.29855 192.126 3.0776C192.113 3.85665 192.404 4.60996 192.938 5.17813L192.942 5.18363L192.947 5.18763C193.515 5.72079 194.269 6.012 195.048 5.99962C195.827 5.98724 196.57 5.67226 197.121 5.12132C197.672 4.57037 197.987 3.8267 198 3.04764C198.012 2.26859 197.721 1.51528 197.188 0.947117L197.184 0.941617ZM195.063 1.06262C195.419 1.06436 195.767 1.16232 196.072 1.34612L193.346 4.07212C193.162 3.76734 193.064 3.41853 193.063 3.06262C193.063 2.53219 193.273 2.02348 193.648 1.64841C194.023 1.27333 194.532 1.06262 195.063 1.06262V1.06262ZM195.063 5.06263C194.707 5.06088 194.358 4.96293 194.053 4.77913L196.779 2.05312C196.963 2.3579 197.061 2.70671 197.063 3.06262C197.063 3.59306 196.852 4.10177 196.477 4.47684C196.102 4.85191 195.593 5.06263 195.063 5.06263V5.06263Z" fill="#ED604B"/>
<path d="M244 12C244 10.3431 245.511 9 247.375 9H249.625C251.489 9 253 10.3431 253 12V14H244V12Z" fill="#3DB689"/>
<path d="M247 9H250V10.3333C250 10.7015 249.328 11 248.5 11C247.672 11 247 10.7015 247 10.3333V9Z" fill="#DCEAF2"/>
<path d="M250 7H247V9H250V7Z" fill="#BB8942"/>
<path d="M252 6C252 6 250.433 6 248.5 6C246.567 6 245 6 245 6C245 3.79086 246.567 2 248.5 2C250.433 2 252 3.79086 252 6Z" fill="#110702"/>
<path d="M248.5 8C249.881 8 251 6.88071 251 5.5C251 4.11929 249.881 3 248.5 3C247.119 3 246 4.11929 246 5.5C246 6.88071 247.119 8 248.5 8Z" fill="#ECB968"/>
<path opacity="0.7" fill-rule="evenodd" clip-rule="evenodd" d="M254 15H243V12C243 10.1597 244.308 8.719 246 8.20437V7.94949C245.73 7.67356 245.505 7.35304 245.337 7H245L245 6H246.05C246.125 6.36944 246.281 6.70929 246.5 7C246.642 7.18939 246.811 7.35792 247 7.50018V9H247.375C247.248 9 247.123 9.00621 247 9.01831C246.647 9.05295 246.311 9.13585 246 9.25943C244.821 9.72735 244 10.7784 244 12V14H253V12C253 10.7784 252.179 9.72735 251 9.25943C250.689 9.13585 250.353 9.05295 250 9.01831C249.877 9.00621 249.752 9 249.625 9H250V7.50018C250.189 7.35792 250.358 7.18939 250.5 7C250.719 6.70929 250.875 6.36944 250.95 6H252L252 7H251.664C251.496 7.35304 251.27 7.67356 251 7.94949V8.20437C252.692 8.719 254 10.1597 254 12V15ZM252 6C252 5.99994 252 6.00006 252 6L252 7H253V6C253 3.36819 251.107 1 248.5 1C245.893 1 244 3.36819 244 6V7H245L245 6C245 6.00006 245 5.99994 245 6C245 5.91045 245.003 5.82142 245.008 5.73333C245.012 5.65492 245.019 5.57712 245.027 5.5C245.046 5.32978 245.074 5.16288 245.11 5C245.499 3.27477 246.869 2 248.5 2C250.131 2 251.501 3.27477 251.89 5C251.926 5.16288 251.954 5.32978 251.973 5.5C251.981 5.57712 251.988 5.65492 251.992 5.73333C251.997 5.82142 252 5.91045 252 6Z" fill="white"/>
<circle opacity="0.5" cx="243.5" cy="3.5" r="3.5" fill="#F7F7F7"/>
<path d="M245.184 0.941617L245.178 0.937617C244.61 0.404451 243.857 0.113247 243.078 0.125623C242.299 0.137999 241.555 0.452983 241.004 1.00393C240.453 1.55487 240.138 2.29855 240.126 3.0776C240.113 3.85665 240.404 4.60996 240.938 5.17813L240.942 5.18363L240.947 5.18763C241.515 5.72079 242.269 6.012 243.048 5.99962C243.827 5.98724 244.57 5.67226 245.121 5.12132C245.672 4.57037 245.987 3.8267 246 3.04764C246.012 2.26859 245.721 1.51528 245.188 0.947117L245.184 0.941617ZM243.063 1.06262C243.419 1.06436 243.767 1.16232 244.072 1.34612L241.346 4.07212C241.162 3.76734 241.064 3.41853 241.063 3.06262C241.063 2.53219 241.273 2.02348 241.648 1.64841C242.023 1.27333 242.532 1.06262 243.063 1.06262V1.06262ZM243.063 5.06263C242.707 5.06088 242.358 4.96293 242.053 4.77913L244.779 2.05312C244.963 2.3579 245.061 2.70671 245.063 3.06262C245.063 3.59306 244.852 4.10177 244.477 4.47684C244.102 4.85191 243.593 5.06263 243.063 5.06263V5.06263Z" fill="#ED604B"/>
<path d="M212 12C212 10.3431 213.511 9 215.375 9H217.625C219.489 9 221 10.3431 221 12V14H212V12Z" fill="#3B92C1"/>
<path d="M215 9H218V10.3333C218 10.7015 217.328 11 216.5 11C215.672 11 215 10.7015 215 10.3333V9Z" fill="#DCEAF2"/>
<path d="M218 7H215V9H218V7Z" fill="#BB8942"/>
<path d="M220 6C220 6 218.433 6 216.5 6C214.567 6 213 6 213 6C213 3.79086 214.567 2 216.5 2C218.433 2 220 3.79086 220 6Z" fill="#110702"/>
<path d="M216.5 8C217.881 8 219 6.88071 219 5.5C219 4.11929 217.881 3 216.5 3C215.119 3 214 4.11929 214 5.5C214 6.88071 215.119 8 216.5 8Z" fill="#ECB968"/>
<path opacity="0.7" fill-rule="evenodd" clip-rule="evenodd" d="M222 15H211V12C211 10.1597 212.308 8.719 214 8.20437V7.94949C213.73 7.67356 213.505 7.35304 213.337 7H213L213 6H214.05C214.125 6.36944 214.281 6.70929 214.5 7C214.642 7.18939 214.811 7.35792 215 7.50018V9H215.375C215.248 9 215.123 9.00621 215 9.01831C214.647 9.05295 214.311 9.13585 214 9.25943C212.821 9.72735 212 10.7784 212 12V14H221V12C221 10.7784 220.179 9.72735 219 9.25943C218.689 9.13585 218.353 9.05295 218 9.01831C217.877 9.00621 217.752 9 217.625 9H218V7.50018C218.189 7.35792 218.358 7.18939 218.5 7C218.719 6.70929 218.875 6.36944 218.95 6H220L220 7H219.664C219.496 7.35304 219.27 7.67356 219 7.94949V8.20437C220.692 8.719 222 10.1597 222 12V15ZM220 6C220 5.99994 220 6.00006 220 6L220 7H221V6C221 3.36819 219.107 1 216.5 1C213.893 1 212 3.36819 212 6V7H213L213 6C213 6.00006 213 5.99994 213 6C213 5.91045 213.003 5.82142 213.008 5.73333C213.012 5.65492 213.019 5.57712 213.027 5.5C213.046 5.32978 213.074 5.16288 213.11 5C213.499 3.27477 214.869 2 216.5 2C218.131 2 219.501 3.27477 219.89 5C219.926 5.16288 219.954 5.32978 219.973 5.5C219.981 5.57712 219.988 5.65492 219.992 5.73333C219.997 5.82142 220 5.91045 220 6Z" fill="white"/>
<path d="M209 2H212L211 3.5L212.5 5.5L212 6H209L208.5 5.5L210 3.5L209 2Z" fill="#CA9713"/>
<path fill-rule="evenodd" clip-rule="evenodd" d="M208 1.5C208 0.671573 208.672 0 209.5 0H211.5C212.328 0 213 0.671573 213 1.5V1.88197C213 2.45012 212.679 2.96952 212.171 3.22361L211.447 3.58541L212.4 4.3C212.778 4.58328 213 5.02786 213 5.5C213 6.32843 212.328 7 211.5 7H209.5C208.672 7 208 6.32843 208 5.5C208 5.02786 208.222 4.58328 208.6 4.3L209.553 3.58541L208.829 3.22361C208.321 2.96952 208 2.45012 208 1.88197V1.5ZM210.5 4.125L209.2 5.1C209.074 5.19443 209 5.34262 209 5.5C209 5.77614 209.224 6 209.5 6H211.5C211.776 6 212 5.77614 212 5.5C212 5.34262 211.926 5.19443 211.8 5.1L210.5 4.125ZM210.5 2.94098L211.724 2.32918C211.893 2.24448 212 2.07135 212 1.88197V1.5C212 1.22386 211.776 1 211.5 1H209.5C209.224 1 209 1.22386 209 1.5V1.88197C209 2.07135 209.107 2.24448 209.276 2.32918L210.5 2.94098Z" fill="#564D3E"/>
<rect x="210" y="2" width="1" height="3" fill="#CA9612"/>
<path d="M260 12C260 10.3431 261.511 9 263.375 9H265.625C267.489 9 269 10.3431 269 12V14H260V12Z" fill="#3DB689"/>
<path d="M263 9H266V10.3333C266 10.7015 265.328 11 264.5 11C263.672 11 263 10.7015 263 10.3333V9Z" fill="#DCEAF2"/>
<path d="M266 7H263V9H266V7Z" fill="#BB8942"/>
<path d="M268 6C268 6 266.433 6 264.5 6C262.567 6 261 6 261 6C261 3.79086 262.567 2 264.5 2C266.433 2 268 3.79086 268 6Z" fill="#110702"/>
<path d="M264.5 8C265.881 8 267 6.88071 267 5.5C267 4.11929 265.881 3 264.5 3C263.119 3 262 4.11929 262 5.5C262 6.88071 263.119 8 264.5 8Z" fill="#ECB968"/>
<path opacity="0.7" fill-rule="evenodd" clip-rule="evenodd" d="M270 15H259V12C259 10.1597 260.308 8.719 262 8.20437V7.94949C261.73 7.67356 261.505 7.35304 261.337 7H261L261 6H262.05C262.125 6.36944 262.281 6.70929 262.5 7C262.642 7.18939 262.811 7.35792 263 7.50018V9H263.375C263.248 9 263.123 9.00621 263 9.01831C262.647 9.05295 262.311 9.13585 262 9.25943C260.821 9.72735 260 10.7784 260 12V14H269V12C269 10.7784 268.179 9.72735 267 9.25943C266.689 9.13585 266.353 9.05295 266 9.01831C265.877 9.00621 265.752 9 265.625 9H266V7.50018C266.189 7.35792 266.358 7.18939 266.5 7C266.719 6.70929 266.875 6.36944 266.95 6H268L268 7H267.664C267.496 7.35304 267.27 7.67356 267 7.94949V8.20437C268.692 8.719 270 10.1597 270 12V15ZM268 6C268 5.99994 268 6.00006 268 6L268 7H269V6C269 3.36819 267.107 1 264.5 1C261.893 1 260 3.36819 260 6V7H261L261 6C261 6.00006 261 5.99994 261 6C261 5.91045 261.003 5.82142 261.008 5.73333C261.012 5.65492 261.019 5.57712 261.027 5.5C261.046 5.32978 261.074 5.16288 261.11 5C261.499 3.27477 262.869 2 264.5 2C266.131 2 267.501 3.27477 267.89 5C267.926 5.16288 267.954 5.32978 267.973 5.5C267.981 5.57712 267.988 5.65492 267.992 5.73333C267.997 5.82142 268 5.91045 268 6Z" fill="white"/>
<path d="M257 2H260L259 3.5L260.5 5.5L260 6H257L256.5 5.5L258 3.5L257 2Z" fill="#CA9713"/>
<path fill-rule="evenodd" clip-rule="evenodd" d="M256 1.5C256 0.671573 256.672 0 257.5 0H259.5C260.328 0 261 0.671573 261 1.5V1.88197C261 2.45012 260.679 2.96952 260.171 3.22361L259.447 3.58541L260.4 4.3C260.778 4.58328 261 5.02786 261 5.5C261 6.32843 260.328 7 259.5 7H257.5C256.672 7 256 6.32843 256 5.5C256 5.02786 256.222 4.58328 256.6 4.3L257.553 3.58541L256.829 3.22361C256.321 2.96952 256 2.45012 256 1.88197V1.5ZM258.5 4.125L257.2 5.1C257.074 5.19443 257 5.34262 257 5.5C257 5.77614 257.224 6 257.5 6H259.5C259.776 6 260 5.77614 260 5.5C260 5.34262 259.926 5.19443 259.8 5.1L258.5 4.125ZM258.5 2.94098L259.724 2.32918C259.893 2.24448 260 2.07135 260 1.88197V1.5C260 1.22386 259.776 1 259.5 1H257.5C257.224 1 257 1.22386 257 1.5V1.88197C257 2.07135 257.107 2.24448 257.276 2.32918L258.5 2.94098Z" fill="#564D3E"/>
<rect x="258" y="2" width="1" height="3" fill="#CA9612"/>
<path d="M229.562 9C228.937 9.34611 228.416 9.85327 228.054 10.4688C227.691 11.0843 227.5 11.7856 227.5 12.5V13.5H236.5V12.5C236.5 11.7856 236.309 11.0843 235.946 10.4688C235.584 9.85327 235.063 9.34611 234.438 9" stroke="#3B92C1" stroke-linecap="round" stroke-linejoin="round"/>
<path d="M234.5 5.125C234.5 3.67525 233.381 2.5 232 2.5C230.619 2.5 229.5 3.67525 229.5 5.125V5.875C229.5 7.32475 230.619 8.5 232 8.5C233.381 8.5 234.5 7.32475 234.5 5.875V5.125Z" stroke="#3B92C1" stroke-linecap="round" stroke-linejoin="round"/>
<rect x="228" y="12" width="8" height="1" fill="#3B92C1"/>
<path d="M277.562 9C276.937 9.34611 276.416 9.85327 276.054 10.4688C275.691 11.0843 275.5 11.7856 275.5 12.5V13.5H284.5V12.5C284.5 11.7856 284.309 11.0843 283.946 10.4688C283.584 9.85327 283.063 9.34611 282.438 9" stroke="#3DB689" stroke-linecap="round" stroke-linejoin="round"/>
<path d="M282.5 5.125C282.5 3.67525 281.381 2.5 280 2.5C278.619 2.5 277.5 3.67525 277.5 5.125V5.875C277.5 7.32475 278.619 8.5 280 8.5C281.381 8.5 282.5 7.32475 282.5 5.875V5.125Z" stroke="#3DB689" stroke-linecap="round" stroke-linejoin="round"/>
<rect x="276" y="12" width="8" height="1" fill="#3DB689"/>
</svg>
