<svg width="16" height="16" viewBox="0 0 16 16" fill="none" xmlns="http://www.w3.org/2000/svg">
<path fill-opacity="0.8" fill-rule="evenodd" clip-rule="evenodd" d="M2 5H11.5L13.75 8L11.5 11H2L2 5ZM1 5C1 4.44772 1.44772 4 2 4H11.5C11.8148 4 12.1111 4.14819 12.3 4.4L14.55 7.4C14.8167 7.75556 14.8167 8.24444 14.55 8.6L12.3 11.6C12.1111 11.8518 11.8148 12 11.5 12H2C1.44771 12 1 11.5523 1 11V5ZM11 9C11.5523 9 12 8.55228 12 8C12 7.44772 11.5523 7 11 7C10.4477 7 10 7.44772 10 8C10 8.55228 10.4477 9 11 9Z" fill="#333333"/>
</svg>
