<svg width="296" height="76" viewBox="0 0 296 76" fill="none" xmlns="http://www.w3.org/2000/svg">
<g clip-path="url(#clip0_3_216)">
<path d="M222 60.5V51.1943H225.51C226.128 51.1943 226.6 51.224 226.926 51.2832C227.383 51.3594 227.766 51.5054 228.075 51.7212C228.383 51.9328 228.631 52.2311 228.817 52.6162C229.008 53.0013 229.103 53.4245 229.103 53.8857C229.103 54.6771 228.851 55.3478 228.347 55.8979C227.844 56.4438 226.934 56.7168 225.618 56.7168H223.231V60.5H222ZM223.231 55.6187H225.637C226.433 55.6187 226.998 55.4705 227.332 55.1743C227.666 54.8781 227.833 54.4613 227.833 53.9238C227.833 53.5345 227.734 53.2023 227.535 52.9272C227.34 52.6479 227.082 52.4639 226.761 52.375C226.553 52.32 226.17 52.2925 225.612 52.2925H223.231V55.6187Z" fill="#424242" fill-opacity="0.5"/>
<path d="M234.568 58.3291L235.749 58.4751C235.563 59.1649 235.218 59.7002 234.714 60.0811C234.211 60.4619 233.567 60.6523 232.784 60.6523C231.798 60.6523 231.016 60.3498 230.436 59.7446C229.86 59.1353 229.573 58.2826 229.573 57.1865C229.573 56.0524 229.865 55.1722 230.449 54.5459C231.033 53.9196 231.79 53.6064 232.721 53.6064C233.622 53.6064 234.359 53.9132 234.93 54.5269C235.501 55.1405 235.787 56.0037 235.787 57.1167C235.787 57.1844 235.785 57.286 235.781 57.4214H230.753C230.796 58.1619 231.005 58.729 231.382 59.1226C231.758 59.5161 232.228 59.7129 232.791 59.7129C233.21 59.7129 233.567 59.6029 233.864 59.3828C234.16 59.1628 234.395 58.8115 234.568 58.3291ZM230.817 56.4819H234.581C234.53 55.9149 234.386 55.4896 234.149 55.2061C233.785 54.766 233.313 54.5459 232.734 54.5459C232.209 54.5459 231.767 54.7215 231.407 55.0728C231.052 55.424 230.855 55.8937 230.817 56.4819Z" fill="#424242" fill-opacity="0.5"/>
<path d="M237.196 53.7588H241.075V54.7046H238.339V60.5H237.196V53.7588Z" fill="#424242" fill-opacity="0.5"/>
<path d="M241.938 53.7588H243.08V58.9004L246.248 53.7588H247.479V60.5H246.337V55.3901L243.169 60.5H241.938V53.7588Z" fill="#424242" fill-opacity="0.5"/>
<path d="M253.598 58.0308L254.722 58.1768C254.599 58.9512 254.284 59.5584 253.776 59.9985C253.273 60.4344 252.653 60.6523 251.916 60.6523C250.994 60.6523 250.251 60.3519 249.688 59.751C249.13 59.1458 248.85 58.2804 248.85 57.1548C248.85 56.4269 248.971 55.79 249.212 55.2441C249.453 54.6982 249.819 54.2899 250.31 54.019C250.805 53.744 251.343 53.6064 251.923 53.6064C252.655 53.6064 253.254 53.7926 253.719 54.165C254.185 54.5332 254.483 55.0579 254.614 55.7393L253.503 55.9106C253.397 55.4578 253.209 55.1172 252.938 54.8887C252.672 54.6602 252.348 54.5459 251.967 54.5459C251.392 54.5459 250.924 54.7533 250.564 55.168C250.205 55.5785 250.025 56.2301 250.025 57.123C250.025 58.0286 250.198 58.6867 250.545 59.0972C250.892 59.5076 251.345 59.7129 251.904 59.7129C252.352 59.7129 252.727 59.5754 253.027 59.3003C253.328 59.0252 253.518 58.6021 253.598 58.0308Z" fill="#424242" fill-opacity="0.5"/>
<path d="M255.084 53.7588H260.562V54.7046H258.391V60.5H257.255V54.7046H255.084V53.7588Z" fill="#424242" fill-opacity="0.5"/>
<path d="M261.654 63.0835V53.7588H262.695V54.6348C262.94 54.292 263.217 54.036 263.526 53.8667C263.835 53.6932 264.21 53.6064 264.65 53.6064C265.225 53.6064 265.733 53.7546 266.173 54.0508C266.613 54.347 266.945 54.766 267.17 55.3076C267.394 55.8451 267.506 56.4354 267.506 57.0786C267.506 57.7684 267.381 58.3905 267.132 58.9448C266.886 59.495 266.527 59.9181 266.053 60.2144C265.583 60.5063 265.088 60.6523 264.567 60.6523C264.186 60.6523 263.844 60.5719 263.539 60.4111C263.238 60.2503 262.991 60.0472 262.796 59.8018V63.0835H261.654ZM262.688 57.1675C262.688 58.035 262.864 58.6761 263.215 59.0908C263.566 59.5055 263.992 59.7129 264.491 59.7129C264.999 59.7129 265.433 59.4992 265.792 59.0718C266.156 58.6401 266.338 57.9736 266.338 57.0723C266.338 56.2132 266.16 55.57 265.805 55.1426C265.454 54.7152 265.033 54.5015 264.542 54.5015C264.055 54.5015 263.624 54.73 263.247 55.187C262.874 55.6398 262.688 56.3 262.688 57.1675Z" fill="#424242" fill-opacity="0.5"/>
<path d="M273.289 59.6685C272.866 60.0282 272.457 60.2821 272.064 60.4302C271.674 60.5783 271.256 60.6523 270.807 60.6523C270.066 60.6523 269.497 60.4725 269.099 60.1128C268.702 59.7489 268.503 59.2855 268.503 58.7227C268.503 58.3926 268.577 58.0921 268.725 57.8213C268.877 57.5462 269.074 57.3262 269.315 57.1611C269.561 56.9961 269.836 56.8713 270.14 56.7866C270.365 56.7274 270.703 56.6702 271.156 56.6152C272.079 56.5052 272.758 56.374 273.194 56.2217C273.198 56.0651 273.2 55.9657 273.2 55.9233C273.2 55.4578 273.092 55.1299 272.876 54.9395C272.584 54.6813 272.151 54.5522 271.575 54.5522C271.038 54.5522 270.64 54.6475 270.382 54.8379C270.128 55.0241 269.939 55.3563 269.817 55.8345L268.7 55.6821C268.801 55.2039 268.968 54.8188 269.201 54.5269C269.434 54.2306 269.77 54.0042 270.21 53.8477C270.65 53.6868 271.16 53.6064 271.74 53.6064C272.316 53.6064 272.783 53.6742 273.143 53.8096C273.503 53.945 273.767 54.1164 273.936 54.3237C274.106 54.5269 274.224 54.785 274.292 55.0981C274.33 55.2928 274.349 55.644 274.349 56.1519V57.6753C274.349 58.7375 274.372 59.4103 274.419 59.6938C274.47 59.9731 274.567 60.2419 274.711 60.5H273.517C273.399 60.263 273.323 59.9858 273.289 59.6685ZM273.194 57.1167C272.779 57.286 272.157 57.4299 271.327 57.5483C270.858 57.616 270.526 57.6922 270.331 57.7769C270.136 57.8615 269.986 57.9863 269.88 58.1514C269.774 58.3122 269.721 58.492 269.721 58.6909C269.721 58.9956 269.836 59.2495 270.064 59.4526C270.297 59.6558 270.636 59.7573 271.08 59.7573C271.52 59.7573 271.911 59.6621 272.254 59.4717C272.597 59.277 272.849 59.0125 273.01 58.6782C273.132 58.4201 273.194 58.0392 273.194 57.5356V57.1167Z" fill="#424242" fill-opacity="0.5"/>
<path d="M276.145 53.7588H277.288V59.5605H280.449V53.7588H281.592V59.5605H282.328V62.4106H281.388V60.5H276.145V53.7588Z" fill="#424242" fill-opacity="0.5"/>
<path d="M283.578 53.7588H284.721V58.9004L287.888 53.7588H289.12V60.5H287.977V55.3901L284.81 60.5H283.578V53.7588Z" fill="#424242" fill-opacity="0.5"/>
<path d="M296.147 53.7588V60.5H295.011V57.8721H294.35C293.948 57.8721 293.648 57.925 293.449 58.0308C293.254 58.1323 292.969 58.4645 292.592 59.0273L291.596 60.5H290.18L291.411 58.6846C291.788 58.1302 292.163 57.8171 292.535 57.7451C291.883 57.6562 291.399 57.4214 291.081 57.0405C290.768 56.6597 290.612 56.2217 290.612 55.7266C290.612 55.1426 290.817 54.6686 291.227 54.3047C291.642 53.9408 292.241 53.7588 293.024 53.7588H296.147ZM295.011 54.7046H293.386C292.704 54.7046 292.264 54.8104 292.065 55.022C291.871 55.2336 291.773 55.4811 291.773 55.7646C291.773 56.1667 291.917 56.4629 292.205 56.6533C292.497 56.8395 293.011 56.9326 293.747 56.9326H295.011V54.7046Z" fill="#424242" fill-opacity="0.5"/>
<path opacity="0.7" d="M273 30.5C273 38.232 266.732 44.5 259 44.5C251.268 44.5 245 38.232 245 30.5C245 22.768 251.268 16.5 259 16.5C266.732 16.5 273 22.768 273 30.5Z" fill="#424242" fill-opacity="0.5"/>
<path d="M258.971 37.7344C256.871 37.7344 255.348 36.9824 254.498 35.5371C254.273 35.1465 254.176 34.7949 254.176 34.4141C254.176 33.9258 254.479 33.5938 254.986 33.5938C255.387 33.5938 255.611 33.8086 255.797 34.2871C256.266 35.498 257.271 36.2109 258.971 36.2109C260.826 36.2109 262.066 35.1562 262.076 33.6816C262.086 31.9434 260.846 30.9668 258.863 30.9668H257.74C257.271 30.9668 256.949 30.6641 256.949 30.2246C256.949 29.7852 257.271 29.4824 257.74 29.4824H258.785C260.465 29.4824 261.637 28.4473 261.637 27.041C261.637 25.6445 260.758 24.6973 258.951 24.6973C257.398 24.6973 256.549 25.3516 256.041 26.6309C255.865 27.1387 255.689 27.3242 255.25 27.3242C254.752 27.3242 254.469 27.0312 254.469 26.5234C254.469 26.123 254.557 25.7715 254.762 25.3906C255.504 23.9844 256.998 23.1738 258.951 23.1738C261.773 23.1738 263.404 24.7949 263.404 26.8066C263.404 28.5547 262.184 29.7559 260.416 30.127V30.166C262.467 30.3418 263.863 31.6211 263.863 33.623C263.863 36.0449 261.734 37.7344 258.971 37.7344Z" fill="#FFFAD9"/>
<path opacity="0.7" d="M164 29H243V31H164V29Z" fill="#424242" fill-opacity="0.5"/>
<path d="M116 51.1943H123.319V60.5H122.081V52.2925H117.231V60.5H116V51.1943Z" fill="#009646"/>
<path d="M124.76 57.1294C124.76 55.881 125.107 54.9564 125.801 54.3555C126.38 53.8561 127.087 53.6064 127.921 53.6064C128.847 53.6064 129.605 53.9111 130.193 54.5205C130.781 55.1257 131.075 55.9635 131.075 57.0342C131.075 57.9017 130.944 58.5851 130.682 59.0845C130.424 59.5796 130.045 59.9647 129.546 60.2397C129.051 60.5148 128.509 60.6523 127.921 60.6523C126.977 60.6523 126.213 60.3498 125.629 59.7446C125.049 59.1395 124.76 58.2677 124.76 57.1294ZM125.934 57.1294C125.934 57.9927 126.122 58.6401 126.499 59.0718C126.875 59.4992 127.349 59.7129 127.921 59.7129C128.488 59.7129 128.96 59.4971 129.336 59.0654C129.713 58.6338 129.901 57.9757 129.901 57.0913C129.901 56.2576 129.711 55.6271 129.33 55.1997C128.953 54.7681 128.483 54.5522 127.921 54.5522C127.349 54.5522 126.875 54.766 126.499 55.1934C126.122 55.6208 125.934 56.2661 125.934 57.1294Z" fill="#009646"/>
<path d="M133.031 53.7588H137.728V59.5605H138.458V62.4106H137.518V60.5H132.212V62.4106H131.272V59.5605H131.875C132.679 58.4688 133.064 56.5348 133.031 53.7588ZM133.983 54.7046C133.898 56.8924 133.56 58.5111 132.967 59.5605H136.592V54.7046H133.983Z" fill="#009646"/>
<path d="M139.727 53.7588H145.047V60.5H143.904V54.7046H140.87V60.5H139.727V53.7588Z" fill="#009646"/>
<path d="M146.767 53.7588H147.909V58.9004L151.077 53.7588H152.308V60.5H151.166V55.3901L147.998 60.5H146.767V53.7588Z" fill="#009646"/>
<path d="M158.428 58.0308L159.551 58.1768C159.428 58.9512 159.113 59.5584 158.605 59.9985C158.102 60.4344 157.482 60.6523 156.745 60.6523C155.823 60.6523 155.08 60.3519 154.517 59.751C153.959 59.1458 153.679 58.2804 153.679 57.1548C153.679 56.4269 153.8 55.79 154.041 55.2441C154.282 54.6982 154.649 54.2899 155.139 54.019C155.635 53.744 156.172 53.6064 156.752 53.6064C157.484 53.6064 158.083 53.7926 158.548 54.165C159.014 54.5332 159.312 55.0579 159.443 55.7393L158.332 55.9106C158.226 55.4578 158.038 55.1172 157.767 54.8887C157.501 54.6602 157.177 54.5459 156.796 54.5459C156.221 54.5459 155.753 54.7533 155.393 55.168C155.034 55.5785 154.854 56.2301 154.854 57.123C154.854 58.0286 155.027 58.6867 155.374 59.0972C155.721 59.5076 156.174 59.7129 156.733 59.7129C157.181 59.7129 157.556 59.5754 157.856 59.3003C158.157 59.0252 158.347 58.6021 158.428 58.0308Z" fill="#009646"/>
<path d="M164.928 59.6685C164.504 60.0282 164.096 60.2821 163.702 60.4302C163.313 60.5783 162.894 60.6523 162.446 60.6523C161.705 60.6523 161.136 60.4725 160.738 60.1128C160.34 59.7489 160.141 59.2855 160.141 58.7227C160.141 58.3926 160.215 58.0921 160.364 57.8213C160.516 57.5462 160.713 57.3262 160.954 57.1611C161.199 56.9961 161.474 56.8713 161.779 56.7866C162.003 56.7274 162.342 56.6702 162.795 56.6152C163.717 56.5052 164.396 56.374 164.832 56.2217C164.837 56.0651 164.839 55.9657 164.839 55.9233C164.839 55.4578 164.731 55.1299 164.515 54.9395C164.223 54.6813 163.789 54.5522 163.214 54.5522C162.676 54.5522 162.278 54.6475 162.02 54.8379C161.766 55.0241 161.578 55.3563 161.455 55.8345L160.338 55.6821C160.44 55.2039 160.607 54.8188 160.84 54.5269C161.072 54.2306 161.409 54.0042 161.849 53.8477C162.289 53.6868 162.799 53.6064 163.379 53.6064C163.954 53.6064 164.422 53.6742 164.782 53.8096C165.141 53.945 165.406 54.1164 165.575 54.3237C165.744 54.5269 165.863 54.785 165.93 55.0981C165.969 55.2928 165.988 55.644 165.988 56.1519V57.6753C165.988 58.7375 166.011 59.4103 166.057 59.6938C166.108 59.9731 166.206 60.2419 166.349 60.5H165.156C165.038 60.263 164.961 59.9858 164.928 59.6685ZM164.832 57.1167C164.418 57.286 163.796 57.4299 162.966 57.5483C162.496 57.616 162.164 57.6922 161.969 57.7769C161.775 57.8615 161.625 57.9863 161.519 58.1514C161.413 58.3122 161.36 58.492 161.36 58.6909C161.36 58.9956 161.474 59.2495 161.703 59.4526C161.936 59.6558 162.274 59.7573 162.719 59.7573C163.159 59.7573 163.55 59.6621 163.893 59.4717C164.236 59.277 164.487 59.0125 164.648 58.6782C164.771 58.4201 164.832 58.0392 164.832 57.5356V57.1167Z" fill="#009646"/>
<path d="M167.771 53.7588H168.914V56.5645H172.081V53.7588H173.224V60.5H172.081V57.5103H168.914V60.5H167.771V53.7588Z" fill="#009646"/>
<path d="M179.349 59.6685C178.926 60.0282 178.518 60.2821 178.124 60.4302C177.735 60.5783 177.316 60.6523 176.867 60.6523C176.127 60.6523 175.558 60.4725 175.16 60.1128C174.762 59.7489 174.563 59.2855 174.563 58.7227C174.563 58.3926 174.637 58.0921 174.785 57.8213C174.938 57.5462 175.135 57.3262 175.376 57.1611C175.621 56.9961 175.896 56.8713 176.201 56.7866C176.425 56.7274 176.764 56.6702 177.217 56.6152C178.139 56.5052 178.818 56.374 179.254 56.2217C179.258 56.0651 179.261 55.9657 179.261 55.9233C179.261 55.4578 179.153 55.1299 178.937 54.9395C178.645 54.6813 178.211 54.5522 177.636 54.5522C177.098 54.5522 176.7 54.6475 176.442 54.8379C176.188 55.0241 176 55.3563 175.877 55.8345L174.76 55.6821C174.862 55.2039 175.029 54.8188 175.261 54.5269C175.494 54.2306 175.831 54.0042 176.271 53.8477C176.711 53.6868 177.221 53.6064 177.801 53.6064C178.376 53.6064 178.844 53.6742 179.203 53.8096C179.563 53.945 179.828 54.1164 179.997 54.3237C180.166 54.5269 180.285 54.785 180.352 55.0981C180.39 55.2928 180.409 55.644 180.409 56.1519V57.6753C180.409 58.7375 180.433 59.4103 180.479 59.6938C180.53 59.9731 180.627 60.2419 180.771 60.5H179.578C179.459 60.263 179.383 59.9858 179.349 59.6685ZM179.254 57.1167C178.839 57.286 178.217 57.4299 177.388 57.5483C176.918 57.616 176.586 57.6922 176.391 57.7769C176.197 57.8615 176.046 57.9863 175.941 58.1514C175.835 58.3122 175.782 58.492 175.782 58.6909C175.782 58.9956 175.896 59.2495 176.125 59.4526C176.358 59.6558 176.696 59.7573 177.14 59.7573C177.581 59.7573 177.972 59.6621 178.315 59.4717C178.657 59.277 178.909 59.0125 179.07 58.6782C179.193 58.4201 179.254 58.0392 179.254 57.5356V57.1167Z" fill="#009646"/>
<path d="M37 14C28.163 14 21 21.163 21 30C21 38.837 28.163 46 37 46C45.837 46 53 38.837 53 30C52.974 21.174 45.826 14.026 37 14ZM44.707 25.707L36.707 35.707C36.512 35.902 36.256 36 36 36C35.744 36 35.488 35.902 35.293 35.707L31.293 31.707C30.902 31.316 30.902 30.684 31.293 30.293C31.684 29.902 32.316 29.902 32.707 30.293L36 33.586L43.293 24.293C43.684 23.902 44.316 23.902 44.707 24.293C45.098 24.684 45.098 25.316 44.707 25.707Z" fill="#14AA5A"/>
<path fill-rule="evenodd" clip-rule="evenodd" d="M37 43C44.1797 43 50 37.1797 50 30C50 22.8203 44.1797 17 37 17C29.8203 17 24 22.8203 24 30C24 37.1797 29.8203 43 37 43ZM37 44C44.732 44 51 37.732 51 30C51 22.268 44.732 16 37 16C29.268 16 23 22.268 23 30C23 37.732 29.268 44 37 44Z" fill="#FFFAD9"/>
<path d="M148 14C139.163 14 132 21.163 132 30C132 38.837 139.163 46 148 46C156.837 46 164 38.837 164 30C163.974 21.174 156.826 14.026 148 14ZM155.707 25.707L147.707 35.707C147.512 35.902 147.256 36 147 36C146.744 36 146.488 35.902 146.293 35.707L142.293 31.707C141.902 31.316 141.902 30.684 142.293 30.293C142.684 29.902 143.316 29.902 143.707 30.293L147 33.586L154.293 24.293C154.684 23.902 155.316 23.902 155.707 24.293C156.098 24.684 156.098 25.316 155.707 25.707Z" fill="#14AA5A"/>
<path fill-rule="evenodd" clip-rule="evenodd" d="M148 43C155.18 43 161 37.1797 161 30C161 22.8203 155.18 17 148 17C140.82 17 135 22.8203 135 30C135 37.1797 140.82 43 148 43ZM148 44C155.732 44 162 37.732 162 30C162 22.268 155.732 16 148 16C140.268 16 134 22.268 134 30C134 37.732 140.268 44 148 44Z" fill="#FFFAD9"/>
<path d="M53 29H132V31H53V29Z" fill="#14AA5A"/>
<path d="M18.9951 56.2373L20.2266 56.5483C19.9684 57.5597 19.5029 58.332 18.8301 58.8652C18.1615 59.3942 17.3426 59.6587 16.3735 59.6587C15.3706 59.6587 14.5539 59.4556 13.9233 59.0493C13.297 58.6388 12.8189 58.0464 12.4888 57.272C12.1629 56.4976 12 55.666 12 54.7773C12 53.8083 12.1841 52.964 12.5522 52.2446C12.9246 51.521 13.4515 50.973 14.1328 50.6006C14.8184 50.224 15.5716 50.0356 16.3926 50.0356C17.3236 50.0356 18.1064 50.2726 18.7412 50.7466C19.376 51.2205 19.8182 51.887 20.0679 52.7461L18.8555 53.0317C18.6396 52.3547 18.3265 51.8617 17.916 51.5527C17.5055 51.2438 16.9893 51.0894 16.3672 51.0894C15.652 51.0894 15.0532 51.2607 14.5708 51.6035C14.0926 51.9463 13.7562 52.4076 13.5615 52.9873C13.3669 53.5628 13.2695 54.1574 13.2695 54.771C13.2695 55.5623 13.3838 56.2542 13.6123 56.8467C13.845 57.4349 14.2048 57.875 14.6914 58.167C15.1781 58.459 15.7049 58.605 16.272 58.605C16.9617 58.605 17.5457 58.4061 18.0239 58.0083C18.5021 57.6105 18.8258 57.0202 18.9951 56.2373Z" fill="#009646"/>
<path d="M21.1787 56.1294C21.1787 54.881 21.5257 53.9564 22.2197 53.3555C22.7994 52.8561 23.5061 52.6064 24.3398 52.6064C25.2666 52.6064 26.024 52.9111 26.6123 53.5205C27.2005 54.1257 27.4946 54.9635 27.4946 56.0342C27.4946 56.9017 27.3634 57.5851 27.101 58.0845C26.8429 58.5796 26.4642 58.9647 25.9648 59.2397C25.4697 59.5148 24.928 59.6523 24.3398 59.6523C23.3961 59.6523 22.6323 59.3498 22.0483 58.7446C21.4685 58.1395 21.1787 57.2677 21.1787 56.1294ZM22.353 56.1294C22.353 56.9927 22.5413 57.6401 22.9179 58.0718C23.2946 58.4992 23.7685 58.7129 24.3398 58.7129C24.9069 58.7129 25.3787 58.4971 25.7553 58.0654C26.132 57.6338 26.3203 56.9757 26.3203 56.0913C26.3203 55.2576 26.1298 54.6271 25.749 54.1997C25.3724 53.7681 24.9026 53.5522 24.3398 53.5522C23.7685 53.5522 23.2946 53.766 22.9179 54.1934C22.5413 54.6208 22.353 55.2661 22.353 56.1294Z" fill="#009646"/>
<path d="M30.1796 56.4531V55.5581C30.6621 55.5539 30.99 55.5348 31.1635 55.501C31.3413 55.4671 31.5084 55.3656 31.665 55.1963C31.8216 55.027 31.8999 54.8154 31.8999 54.5615C31.8999 54.2526 31.7962 54.0072 31.5888 53.8252C31.3857 53.639 31.1212 53.5459 30.7954 53.5459C30.1521 53.5459 29.7015 53.9246 29.4433 54.6821L28.3579 54.5044C28.6964 53.2391 29.5131 52.6064 30.8081 52.6064C31.5275 52.6064 32.0903 52.8032 32.4965 53.1968C32.907 53.5903 33.1123 54.0601 33.1123 54.606C33.1123 55.1561 32.8457 55.5941 32.3125 55.9199C32.651 56.1019 32.9049 56.3346 33.0742 56.6182C33.2435 56.8975 33.3281 57.2297 33.3281 57.6147C33.3281 58.2199 33.108 58.7108 32.6679 59.0874C32.2278 59.464 31.6121 59.6523 30.8208 59.6523C29.2846 59.6523 28.3938 58.9689 28.1484 57.6021L29.2212 57.3735C29.3185 57.8052 29.5153 58.1395 29.8115 58.3765C30.1119 58.6134 30.4547 58.7319 30.8398 58.7319C31.2249 58.7319 31.5444 58.624 31.7983 58.4082C32.0564 58.1882 32.1855 57.9089 32.1855 57.5703C32.1855 57.3079 32.1051 57.0794 31.9443 56.8848C31.7835 56.6901 31.6121 56.5695 31.4301 56.5229C31.2482 56.4722 30.9181 56.4468 30.4399 56.4468C30.4018 56.4468 30.3151 56.4489 30.1796 56.4531Z" fill="#009646"/>
<path d="M35.2642 52.7588H39.9615V58.5605H40.6915V61.4106H39.752V59.5H34.4454V61.4106H33.5059V58.5605H34.1089C34.913 57.4688 35.2981 55.5348 35.2642 52.7588ZM36.2164 53.7046C36.1317 55.8924 35.7932 57.5111 35.2007 58.5605H38.8253V53.7046H36.2164Z" fill="#009646"/>
<path d="M46.3535 58.6685C45.9303 59.0282 45.5219 59.2821 45.1284 59.4302C44.7391 59.5783 44.3201 59.6523 43.8715 59.6523C43.131 59.6523 42.5618 59.4725 42.164 59.1128C41.7662 58.7489 41.5673 58.2855 41.5673 57.7227C41.5673 57.3926 41.6414 57.0921 41.7895 56.8213C41.9419 56.5462 42.1386 56.3262 42.3798 56.1611C42.6253 55.9961 42.9004 55.8713 43.205 55.7866C43.4293 55.7274 43.7679 55.6702 44.2207 55.6152C45.1432 55.5052 45.8224 55.374 46.2583 55.2217C46.2625 55.0651 46.2646 54.9657 46.2646 54.9233C46.2646 54.4578 46.1567 54.1299 45.9409 53.9395C45.6489 53.6813 45.2151 53.5522 44.6396 53.5522C44.1022 53.5522 43.7044 53.6475 43.4463 53.8379C43.1923 54.0241 43.004 54.3563 42.8813 54.8345L41.7641 54.6821C41.8657 54.2039 42.0328 53.8188 42.2656 53.5269C42.4983 53.2306 42.8348 53.0042 43.2749 52.8477C43.715 52.6868 44.2249 52.6064 44.8046 52.6064C45.3802 52.6064 45.8478 52.6742 46.2075 52.8096C46.5672 52.945 46.8317 53.1164 47.0009 53.3237C47.1702 53.5269 47.2887 53.785 47.3564 54.0981C47.3945 54.2928 47.4135 54.644 47.4135 55.1519V56.6753C47.4135 57.7375 47.4368 58.4103 47.4834 58.6938C47.5341 58.9731 47.6315 59.2419 47.7754 59.5H46.582C46.4635 59.263 46.3873 58.9858 46.3535 58.6685ZM46.2583 56.1167C45.8435 56.286 45.2215 56.4299 44.3921 56.5483C43.9223 56.616 43.5901 56.6922 43.3955 56.7769C43.2008 56.8615 43.0506 56.9863 42.9448 57.1514C42.839 57.3122 42.7861 57.492 42.7861 57.6909C42.7861 57.9956 42.9004 58.2495 43.1289 58.4526C43.3616 58.6558 43.7002 58.7573 44.1445 58.7573C44.5846 58.7573 44.976 58.6621 45.3188 58.4717C45.6616 58.277 45.9134 58.0125 46.0742 57.6782C46.1969 57.4201 46.2583 57.0392 46.2583 56.5356V56.1167Z" fill="#009646"/>
<path d="M49.1971 52.7588H50.3397V55.5645H53.5072V52.7588H54.6498V59.5H53.5072V56.5103H50.3397V59.5H49.1971V52.7588Z" fill="#009646"/>
<path d="M60.7755 58.6685C60.3523 59.0282 59.9439 59.2821 59.5504 59.4302C59.161 59.5783 58.7421 59.6523 58.2935 59.6523C57.553 59.6523 56.9838 59.4725 56.586 59.1128C56.1882 58.7489 55.9893 58.2855 55.9893 57.7227C55.9893 57.3926 56.0634 57.0921 56.2115 56.8213C56.3638 56.5462 56.5606 56.3262 56.8018 56.1611C57.0473 55.9961 57.3223 55.8713 57.627 55.7866C57.8513 55.7274 58.1898 55.6702 58.6426 55.6152C59.5652 55.5052 60.2444 55.374 60.6802 55.2217C60.6845 55.0651 60.6866 54.9657 60.6866 54.9233C60.6866 54.4578 60.5787 54.1299 60.3629 53.9395C60.0709 53.6813 59.6371 53.5522 59.0616 53.5522C58.5241 53.5522 58.1264 53.6475 57.8682 53.8379C57.6143 54.0241 57.426 54.3563 57.3033 54.8345L56.1861 54.6821C56.2877 54.2039 56.4548 53.8188 56.6876 53.5269C56.9203 53.2306 57.2567 53.0042 57.6968 52.8477C58.1369 52.6868 58.6469 52.6064 59.2266 52.6064C59.8021 52.6064 60.2698 52.6742 60.6295 52.8096C60.9892 52.945 61.2536 53.1164 61.4229 53.3237C61.5922 53.5269 61.7107 53.785 61.7784 54.0981C61.8165 54.2928 61.8355 54.644 61.8355 55.1519V56.6753C61.8355 57.7375 61.8588 58.4103 61.9053 58.6938C61.9561 58.9731 62.0534 59.2419 62.1973 59.5H61.004C60.8855 59.263 60.8093 58.9858 60.7755 58.6685ZM60.6802 56.1167C60.2655 56.286 59.6435 56.4299 58.814 56.5483C58.3443 56.616 58.0121 56.6922 57.8174 56.7769C57.6228 56.8615 57.4726 56.9863 57.3668 57.1514C57.261 57.3122 57.2081 57.492 57.2081 57.6909C57.2081 57.9956 57.3223 58.2495 57.5508 58.4526C57.7836 58.6558 58.1221 58.7573 58.5665 58.7573C59.0066 58.7573 59.398 58.6621 59.7408 58.4717C60.0836 58.277 60.3353 58.0125 60.4962 57.6782C60.6189 57.4201 60.6802 57.0392 60.6802 56.5356V56.1167Z" fill="#009646"/>
</g>
<defs>
<clipPath id="clip0_3_216">
<rect width="296" height="76" fill="white"/>
</clipPath>
</defs>
</svg>
