<svg width="16" height="16" viewBox="0 0 16 16" fill="none" xmlns="http://www.w3.org/2000/svg">
<path opacity="0.5" fill-rule="evenodd" clip-rule="evenodd" d="M1.99999 13L13 2L13.7071 2.70711L2.7071 13.7071L1.99999 13Z" fill="#727272"/>
<path d="M15.7802 8.40908L14.5907 7.21959C14.4501 7.07899 14.2593 7 14.0605 7C13.8616 7 13.6709 7.07899 13.5302 7.21959L12.5155 8.23433L14.7655 10.4843L15.7802 9.46958C15.9208 9.32893 15.9998 9.1382 15.9998 8.93933C15.9998 8.74046 15.9208 8.54973 15.7802 8.40908V8.40908Z" fill="#727272"/>
<path d="M11.9845 8.76534L8.75 11.9998L8 14.9998L11 14.2498L14.2345 11.0153L11.9845 8.76534Z" fill="#727272"/>
<path d="M4.50011 6C7.14781 6 8.85614 3.358 8.92758 3.246C9.02376 3.094 9.02433 2.908 8.92814 2.756C8.85726 2.6435 7.16131 0 4.50011 0C1.8254 0 0.14126 2.6445 0.0709472 2.757C-0.024116 2.9085 -0.0235535 3.093 0.0720723 3.2445C0.142948 3.3565 1.8389 6 4.50011 6ZM4.50011 1C6.09706 1 7.33288 2.4175 7.77276 3C7.33175 3.583 6.09593 5 4.50011 5C2.90203 5 1.66621 3.581 1.22689 2.9995C1.66396 2.4175 2.89472 1 4.50011 1Z" fill="#727272"/>
<path d="M4.5 4.125C5.12132 4.125 5.625 3.62132 5.625 3C5.625 2.37868 5.12132 1.875 4.5 1.875C3.87868 1.875 3.375 2.37868 3.375 3C3.375 3.62132 3.87868 4.125 4.5 4.125Z" fill="#727272"/>
</svg>
