<svg width="16" height="16" viewBox="0 0 16 16" fill="none" xmlns="http://www.w3.org/2000/svg">
<g clip-path="url(#clip0_55_11)">
<path d="M11.2806 7.293L8.98764 9.586V4C8.98764 3.73478 8.88234 3.48043 8.69474 3.29289C8.50724 3.10536 8.25294 3 7.98764 3C7.72244 3 7.46814 3.10536 7.28054 3.29289C7.09304 3.48043 6.98764 3.73478 6.98764 4V9.586L4.69464 7.293C4.50604 7.11084 4.25344 7.01005 3.99124 7.01233C3.72904 7.0146 3.47824 7.11977 3.29284 7.30518C3.10744 7.49059 3.00224 7.7414 3.00004 8.0036C2.99774 8.2658 3.09854 8.5184 3.28064 8.707L7.28064 12.707C7.46824 12.8945 7.72254 12.9998 7.98764 12.9998C8.25284 12.9998 8.50714 12.8945 8.69464 12.707L12.6946 8.707C12.8768 8.5184 12.9776 8.2658 12.9753 8.0036C12.973 7.7414 12.8679 7.49059 12.6825 7.30518C12.4971 7.11977 12.2462 7.0146 11.984 7.01233C11.7218 7.01005 11.4692 7.11084 11.2806 7.293Z" fill="#ABABAB"/>
</g>
<defs>
<clipPath id="clip0_55_11">
<rect width="16" height="16" fill="white"/>
</clipPath>
</defs>
</svg>
