<svg width="16" height="16" viewBox="0 0 16 16" fill="none" xmlns="http://www.w3.org/2000/svg">
<path d="M5.06997 11.8528C5.56362 12.4702 6.06638 13.2465 6.32949 13.7154C6.6499 14.325 6.78275 14.7366 7.02111 15.4738C7.16048 15.8776 7.29333 16 7.57207 16C7.87685 16 8.01622 15.7942 8.12302 15.4738C8.34575 14.7822 8.51768 14.2559 8.7899 13.7545C9.83971 11.7747 11.5512 10.368 12.515 8.44024C12.515 8.44024 13.1494 7.26277 13.1494 5.61379C13.1494 4.07683 12.5242 3.00877 12.5242 3.00877L5.07388 11.8658L5.06997 11.8528Z" fill="#34A853"/>
<path d="M2.54314 8.23182C3.1436 9.59945 4.28849 10.7978 5.06999 11.8528L9.21192 6.94233C9.21192 6.94233 8.6271 7.70821 7.57078 7.70821C6.39332 7.70821 5.43468 6.7704 5.43468 5.58511C5.43468 4.76974 5.92052 4.20445 5.92052 4.20445C2.87268 4.65773 3.042 5.39625 2.53403 8.22921L2.54314 8.23182Z" fill="#FBBC04"/>
<path d="M9.26403 0.256622C10.6447 0.700776 11.8169 1.63728 12.5203 3.0049L9.21193 6.95149C9.21193 6.95149 9.69776 6.3836 9.69776 5.57083C9.69776 4.36081 8.6766 3.44775 7.57469 3.44775C6.52878 3.44775 5.93354 4.20451 5.93354 4.20451C6.18753 3.6262 8.81206 0.4533 9.26793 0.257925L9.26403 0.256622Z" fill="#4285F4"/>
<path d="M3.2986 1.99282C4.12177 1.01334 5.56494 0 7.55776 0C8.5203 0 9.251 0.25529 9.251 0.25529L5.92964 4.20186C5.70561 4.08034 3.52002 2.37836 3.2986 1.98761V1.99282Z" fill="#1A73E8"/>
<path d="M2.54314 8.23179C2.54314 8.23179 2 7.15332 2 5.60075C2 4.12893 2.5757 2.83946 3.3025 2.00586L5.93354 4.2201L2.54705 8.23179H2.54314Z" fill="#EA4335"/>
</svg>
