<svg width="32" height="16" viewBox="0 0 32 16" fill="none" xmlns="http://www.w3.org/2000/svg">
<path d="M17 4L19 2H23L25 4H30C30.5523 4 31 4.44772 31 5V13C31 13.5523 30.5523 14 30 14H18C17.4477 14 17 13.5523 17 13V4Z" fill="#BB8744"/>
<rect x="18" y="7" width="12" height="6" fill="#F7DA7D"/>
<rect x="18" y="5" width="12" height="1" fill="#FFE069"/>
<path d="M20 3L18 5H24L22 3H20Z" fill="#FFE069"/>
<path d="M12.5 2.5H3.5C2.94772 2.5 2.5 2.94772 2.5 3.5V12.5C2.5 13.0523 2.94772 13.5 3.5 13.5H12.5C13.0523 13.5 13.5 13.0523 13.5 12.5V3.5C13.5 2.94772 13.0523 2.5 12.5 2.5Z" fill="white" stroke="#B4B4B4" stroke-linecap="round" stroke-linejoin="round"/>
<path d="M4.5 8.5L6.5 10.5L11.5 5.5" stroke="#212121" stroke-linecap="round" stroke-linejoin="round"/>
</svg>
