<svg width="16" height="16" viewBox="0 0 16 16" fill="none" xmlns="http://www.w3.org/2000/svg">
<path d="M6 0H0V11H1V1H6V3H8V11H9V3L6 0Z" fill="#768390"/>
<path d="M1 10H8V11H1V10Z" fill="#768390"/>
<path d="M1 1H6V10H1V1Z" fill="white"/>
<path d="M8 3H6V10H8V3Z" fill="white"/>
<rect x="2" y="2" width="3" height="2" fill="#FF7A00"/>
<rect x="2" y="4" width="1" height="5" fill="#C4C4C4"/>
<rect x="6" y="4" width="1" height="5" fill="#C4C4C4"/>
<rect x="4" y="4" width="1" height="5" fill="#C4C4C4"/>
<rect x="7" y="8" width="1" height="5" transform="rotate(90 7 8)" fill="#C4C4C4"/>
<rect x="7" y="6" width="1" height="5" transform="rotate(90 7 6)" fill="#C4C4C4"/>
<rect x="7" y="4" width="1" height="5" transform="rotate(90 7 4)" fill="#C4C4C4"/>
<path d="M13 5H7V16H8V6H13V8H15V16H16V8L13 5Z" fill="#768390"/>
<path d="M8 15H15V16H8V15Z" fill="#768390"/>
<path d="M8 6H13V15H8V6Z" fill="white"/>
<path d="M15 8H13V15H15V8Z" fill="white"/>
<rect x="9" y="7" width="3" height="2" fill="#FF7A00"/>
<rect x="9" y="9" width="1" height="5" fill="#C4C4C4"/>
<rect x="13" y="9" width="1" height="5" fill="#C4C4C4"/>
<rect x="11" y="9" width="1" height="5" fill="#C4C4C4"/>
<rect x="14" y="13" width="1" height="5" transform="rotate(90 14 13)" fill="#C4C4C4"/>
<rect x="14" y="11" width="1" height="5" transform="rotate(90 14 11)" fill="#C4C4C4"/>
<rect x="14" y="9" width="1" height="5" transform="rotate(90 14 9)" fill="#C4C4C4"/>
</svg>
